<svg xmlns="http://www.w3.org/2000/svg" width="150" height="150" viewBox="0 0 150 150">
  <g id="그룹_4958" data-name="그룹 4958" transform="translate(-979.441 -1046.889)">
    <rect id="사각형_436" data-name="사각형 436" width="150" height="150" transform="translate(979.441 1046.889)" fill="none"/>
    <g id="그룹_4955" data-name="그룹 4955">
      <path id="패스_2174" data-name="패스 2174" d="M1063.38,1079.672a10.936,10.936,0,1,1-17.857-.03" fill="none" stroke="#333" stroke-linecap="round" stroke-linejoin="round" stroke-width="4"/>
      <path id="패스_2175" data-name="패스 2175" d="M1054.441,1063.723l-20.653,10.337,20.653,9.724,20.653-9.724Z" fill="none" stroke="#007dff" stroke-linecap="round" stroke-linejoin="round" stroke-width="4"/>
      <line id="선_284" data-name="선 284" y2="8.207" transform="translate(1075.094 1074.06)" fill="none" stroke="#007dff" stroke-linecap="round" stroke-linejoin="round" stroke-width="4"/>
      <path id="패스_2176" data-name="패스 2176" d="M1075.488,1114.213a12.849,12.849,0,0,0-12.58-10.24h-16.934a12.849,12.849,0,0,0-12.58,10.24" fill="none" stroke="#333" stroke-linecap="round" stroke-linejoin="round" stroke-width="4"/>
    </g>
    <g id="그룹_4956" data-name="그룹 4956">
      <path id="패스_2177" data-name="패스 2177" d="M1103.38,1145.4a10.936,10.936,0,1,1-17.857-.03" fill="none" stroke="#333" stroke-linecap="round" stroke-linejoin="round" stroke-width="4"/>
      <path id="패스_2178" data-name="패스 2178" d="M1094.441,1129.448l-20.653,10.337,20.653,9.724,20.653-9.724Z" fill="none" stroke="#007dff" stroke-linecap="round" stroke-linejoin="round" stroke-width="4"/>
      <line id="선_285" data-name="선 285" y2="8.207" transform="translate(1115.094 1139.785)" fill="none" stroke="#007dff" stroke-linecap="round" stroke-linejoin="round" stroke-width="4"/>
      <path id="패스_2179" data-name="패스 2179" d="M1115.488,1179.938a12.849,12.849,0,0,0-12.58-10.24h-16.934a12.849,12.849,0,0,0-12.58,10.24" fill="none" stroke="#333" stroke-linecap="round" stroke-linejoin="round" stroke-width="4"/>
    </g>
    <g id="그룹_4957" data-name="그룹 4957">
      <path id="패스_2180" data-name="패스 2180" d="M1023.38,1144.646a10.936,10.936,0,1,1-17.857-.031" fill="none" stroke="#333" stroke-linecap="round" stroke-linejoin="round" stroke-width="4"/>
      <path id="패스_2181" data-name="패스 2181" d="M1014.441,1128.7l-20.653,10.337,20.653,9.724,20.653-9.724Z" fill="none" stroke="#007dff" stroke-linecap="round" stroke-linejoin="round" stroke-width="4"/>
      <line id="선_286" data-name="선 286" y2="8.207" transform="translate(1035.094 1139.034)" fill="none" stroke="#007dff" stroke-linecap="round" stroke-linejoin="round" stroke-width="4"/>
      <path id="패스_2182" data-name="패스 2182" d="M1035.488,1179.187a12.849,12.849,0,0,0-12.58-10.24h-16.934a12.849,12.849,0,0,0-12.58,10.24" fill="none" stroke="#333" stroke-linecap="round" stroke-linejoin="round" stroke-width="4"/>
    </g>
  </g>
</svg>
