<svg xmlns="http://www.w3.org/2000/svg" width="150" height="150" viewBox="0 0 150 150">
  <g id="그룹_4954" data-name="그룹 4954" transform="translate(-806.733 -1046.889)">
    <rect id="사각형_434" data-name="사각형 434" width="150" height="150" transform="translate(806.733 1046.889)" fill="none"/>
    <g id="그룹_4951" data-name="그룹 4951">
      <path id="패스_2165" data-name="패스 2165" d="M922.351,1095.711a13.023,13.023,0,0,1,11.153,7.24l10.8,21.823a13.024,13.024,0,0,1-5.9,17.45l-70.245,34.76a13.024,13.024,0,0,1-17.45-5.9l-10.8-21.822a13.026,13.026,0,0,1,5.9-17.451l32.029-15.849" fill="none" stroke="#333" stroke-linecap="round" stroke-linejoin="round" stroke-width="4"/>
      <path id="패스_2166" data-name="패스 2166" d="M887.929,1128.7l-16.851,20.8-13.929-5.541Z" fill="none" stroke="#007dff" stroke-linecap="round" stroke-linejoin="round" stroke-width="4"/>
      <path id="패스_2167" data-name="패스 2167" d="M887.929,1128.7l-16.851,20.8,8.312,12.475Z" fill="none" stroke="#007dff" stroke-linecap="round" stroke-linejoin="round" stroke-width="4"/>
      <path id="패스_2168" data-name="패스 2168" d="M866.625,1147.725l3.27,12.433,3.736-6.83" fill="none" stroke="#007dff" stroke-linecap="round" stroke-linejoin="round" stroke-width="4"/>
      <path id="패스_2169" data-name="패스 2169" d="M911.061,1115.921a4.958,4.958,0,0,1-.892,8.318l3.055,6.173a4.956,4.956,0,1,1,4.4,8.883l3.055,6.174a4.955,4.955,0,0,1,6.639,2.243" fill="none" stroke="#333" stroke-linecap="round" stroke-linejoin="round" stroke-width="4"/>
    </g>
    <g id="그룹_4953" data-name="그룹 4953">
      <rect id="사각형_435" data-name="사각형 435" width="104.424" height="50.398" rx="13.025" transform="translate(817.864 1065.691) rotate(-0.118)" fill="none" stroke="#333" stroke-linecap="round" stroke-linejoin="round" stroke-width="4"/>
      <g id="그룹_4952" data-name="그룹 4952">
        <path id="패스_2170" data-name="패스 2170" d="M870.056,1081.469l-24.305,11.221L835.7,1081.566Z" fill="none" stroke="#007dff" stroke-linecap="round" stroke-linejoin="round" stroke-width="4"/>
        <path id="패스_2171" data-name="패스 2171" d="M870.056,1081.469l-24.305,11.221,1.948,14.863Z" fill="none" stroke="#007dff" stroke-linecap="round" stroke-linejoin="round" stroke-width="4"/>
        <path id="패스_2172" data-name="패스 2172" d="M842.538,1089.133l-2.557,12.6,6.369-4.478" fill="none" stroke="#007dff" stroke-linecap="round" stroke-linejoin="round" stroke-width="4"/>
      </g>
      <path id="패스_2173" data-name="패스 2173" d="M896.889,1065.528a4.957,4.957,0,0,1-4.946,4.966l.014,6.887a4.956,4.956,0,1,1,.021,9.912l.014,6.887a4.956,4.956,0,0,1,.021,9.912l.014,6.888a4.955,4.955,0,0,1,4.966,4.945" fill="none" stroke="#333" stroke-linecap="round" stroke-linejoin="round" stroke-width="4"/>
    </g>
  </g>
</svg>
