<svg xmlns="http://www.w3.org/2000/svg" width="150" height="150" viewBox="0 0 150 150">
  <g id="그룹_4978" data-name="그룹 4978" transform="translate(-1227.851 -2284.063)">
    <rect id="사각형_473" data-name="사각형 473" width="150" height="150" transform="translate(1227.851 2284.063)" fill="none"/>
    <g id="그룹_4977" data-name="그룹 4977">
      <g id="그룹_4974" data-name="그룹 4974">
        <path id="패스_2203" data-name="패스 2203" d="M1348.116,2400.873a16.542,16.542,0,0,1-16.53,16.53h-19.06a16.5,16.5,0,0,1-7.86-1.99,14.93,14.93,0,0,1-1.81-1.15,16.22,16.22,0,0,1-3.01-2.79,15.55,15.55,0,0,1-1.19-1.61,16.512,16.512,0,0,1-.98-1.74,16.527,16.527,0,0,1-.01-14.5,8.483,8.483,0,0,1,3.01,3.17,12.579,12.579,0,0,0,0,8.16,12.757,12.757,0,0,0,.98,2.16,12.14,12.14,0,0,0,1.2,1.73,12.75,12.75,0,0,0,3,2.63,11.825,11.825,0,0,0,1.8.94h.01a11.628,11.628,0,0,0,2.02.66,12.066,12.066,0,0,0,2.84.33h19.06a12.53,12.53,0,0,0,0-25.06h-19.06a12.053,12.053,0,0,0-2.84.33,20.21,20.21,0,0,0-3.01-3.26,16.458,16.458,0,0,1,5.85-1.07h19.06A16.548,16.548,0,0,1,1348.116,2400.873Z" fill="#007dff"/>
        <path id="패스_2204" data-name="패스 2204" d="M1309.716,2400.873a16.347,16.347,0,0,1-1.69,7.25,8.58,8.58,0,0,1-2.99-3.17,12.581,12.581,0,0,0,0-8.16,12.755,12.755,0,0,0-.98-2.16,12.117,12.117,0,0,0-1.2-1.73,12.6,12.6,0,0,0-3.01-2.63,11,11,0,0,0-1.8-.94,11.632,11.632,0,0,0-2.02-.66,12.054,12.054,0,0,0-2.84-.33h-19.07a12.53,12.53,0,0,0,0,25.06h19.07a12.067,12.067,0,0,0,2.84-.33,20.22,20.22,0,0,0,3.01,3.26,16.464,16.464,0,0,1-5.85,1.07h-19.07a16.53,16.53,0,0,1,0-33.06h19.07a16.459,16.459,0,0,1,5.85,1.07,14.765,14.765,0,0,1,2.02.93,15.213,15.213,0,0,1,1.8,1.14,16.211,16.211,0,0,1,3,2.79,15.536,15.536,0,0,1,1.19,1.61,14.317,14.317,0,0,1,.99,1.75A16.3,16.3,0,0,1,1309.716,2400.873Z" fill="#007dff"/>
        <path id="패스_2205" data-name="패스 2205" d="M1348.116,2400.873a16.542,16.542,0,0,1-16.53,16.53h-19.06a16.5,16.5,0,0,1-7.86-1.99,14.93,14.93,0,0,1-1.81-1.15,16.22,16.22,0,0,1-3.01-2.79,15.55,15.55,0,0,1-1.19-1.61,16.512,16.512,0,0,1-.98-1.74,16.527,16.527,0,0,1-.01-14.5,8.483,8.483,0,0,1,3.01,3.17,12.579,12.579,0,0,0,0,8.16,12.757,12.757,0,0,0,.98,2.16,12.14,12.14,0,0,0,1.2,1.73,12.75,12.75,0,0,0,3,2.63,11.825,11.825,0,0,0,1.8.94h.01a11.628,11.628,0,0,0,2.02.66,12.066,12.066,0,0,0,2.84.33h19.06a12.53,12.53,0,0,0,0-25.06h-19.06a12.053,12.053,0,0,0-2.84.33,20.21,20.21,0,0,0-3.01-3.26,16.458,16.458,0,0,1,5.85-1.07h19.06A16.548,16.548,0,0,1,1348.116,2400.873Z" fill="#007dff"/>
        <path id="패스_2206" data-name="패스 2206" d="M1309.716,2400.873a16.347,16.347,0,0,1-1.69,7.25,8.58,8.58,0,0,1-2.99-3.17,12.581,12.581,0,0,0,0-8.16,12.755,12.755,0,0,0-.98-2.16,12.117,12.117,0,0,0-1.2-1.73,12.6,12.6,0,0,0-3.01-2.63,11,11,0,0,0-1.8-.94,11.632,11.632,0,0,0-2.02-.66,12.054,12.054,0,0,0-2.84-.33h-19.07a12.53,12.53,0,0,0,0,25.06h19.07a12.067,12.067,0,0,0,2.84-.33,20.22,20.22,0,0,0,3.01,3.26,16.464,16.464,0,0,1-5.85,1.07h-19.07a16.53,16.53,0,0,1,0-33.06h19.07a16.459,16.459,0,0,1,5.85,1.07,14.765,14.765,0,0,1,2.02.93,15.213,15.213,0,0,1,1.8,1.14,16.211,16.211,0,0,1,3,2.79,15.536,15.536,0,0,1,1.19,1.61,14.317,14.317,0,0,1,.99,1.75A16.3,16.3,0,0,1,1309.716,2400.873Z" fill="#007dff"/>
      </g>
      <g id="그룹_4976" data-name="그룹 4976">
        <g id="그룹_4975" data-name="그룹 4975">
          <path id="패스_2207" data-name="패스 2207" d="M1335.066,2321.755a33.015,33.015,0,0,1-1.888,11.051,32.6,32.6,0,0,1-2.741,5.855,33.178,33.178,0,0,1-5.867,7.3h0l-22.66-2.1h0l6.63-11.055,5.467-9.111,13.681-22.8a33,33,0,0,1,7.215,17.544Q1335.066,2320.075,1335.066,2321.755Z" fill="none" stroke="#333" stroke-linejoin="round" stroke-width="4"/>
          <path id="패스_2208" data-name="패스 2208" d="M1290.855,2332.806v7.146l-20.22-7.146Z" fill="none" stroke="#333" stroke-linejoin="round" stroke-width="4"/>
          <path id="패스_2209" data-name="패스 2209" d="M1301.91,2343.861l-11.628,8.958h0a33.2,33.2,0,0,1-15.1-11.432,32.776,32.776,0,0,1-4.548-8.581l20.22,7.146Z" fill="none" stroke="#333" stroke-linejoin="round" stroke-width="4"/>
          <path id="패스_2210" data-name="패스 2210" d="M1314.007,2323.7l-5.467,9.111-6.631,11.054h0l-11.051-3.908,0-37.344Z" fill="none" stroke="#333" stroke-linejoin="round" stroke-width="4"/>
          <path id="패스_2211" data-name="패스 2211" d="M1324.57,2345.962l-10.678,2.135-16.506,3.3-7.1,1.421,11.627-8.958h0Z" fill="none" stroke="#333" stroke-linejoin="round" stroke-width="4"/>
        </g>
        <line id="선_289" data-name="선 289" x2="14.242" y2="35.939" transform="translate(1290.855 2302.609)" fill="none" stroke="#333" stroke-linejoin="round" stroke-width="4"/>
      </g>
    </g>
  </g>
</svg>
