<svg xmlns="http://www.w3.org/2000/svg" xmlns:xlink="http://www.w3.org/1999/xlink" width="338.605" height="72.236" viewBox="0 0 338.605 72.236">
  <defs>
    <linearGradient id="linear-gradient" x1="0.245" y1="0.114" x2="0.852" y2="0.858" gradientUnits="objectBoundingBox">
      <stop offset="0" stop-color="#00d2ff"/>
      <stop offset="1" stop-color="#007dff"/>
    </linearGradient>
  </defs>
  <g id="그룹_109" data-name="그룹 109" transform="translate(-320 -2883.5)">
    <g id="그룹_108" data-name="그룹 108" transform="translate(320 2883.5)">
      <g id="그룹_107" data-name="그룹 107">
        <path id="패스_44" data-name="패스 44" d="M1127.87,1686.452a44.955,44.955,0,0,0-10.025-24.085,2.221,2.221,0,0,0-3.6.25l-16.709,27.515-28.633-25.768a2.227,2.227,0,0,0-2.377-.383,2.18,2.18,0,0,0-1.314,1.994l0,37.285h-24.543c-.024,0-.046.006-.069.007a2.271,2.271,0,0,0-.247.021c-.04.006-.08.01-.119.018a2.183,2.183,0,0,0-.276.076c-.021.007-.043.011-.063.018a2.2,2.2,0,0,0-.31.146c-.033.018-.063.039-.095.059-.068.042-.132.088-.2.136-.034.027-.066.055-.1.084s-.057.046-.084.072-.051.059-.077.087-.057.063-.084.1a2.16,2.16,0,0,0-.144.2c-.018.028-.038.055-.055.084a2.061,2.061,0,0,0-.148.313c-.009.022-.014.046-.022.07a2.163,2.163,0,0,0-.074.276c0,.016-.01.03-.012.046s0,.044-.006.067a2.173,2.173,0,0,0-.021.249c0,.039,0,.078,0,.116a2.136,2.136,0,0,0,.028.281c0,.022,0,.046.008.068a2.29,2.29,0,0,0,.084.311l.014.036,0,.009a44.788,44.788,0,0,0,6.3,11.735,45.885,45.885,0,0,0,20.976,15.691c.019.008.039.01.059.017a2.187,2.187,0,0,0,.251.067c.035.008.07.018.105.023a2.266,2.266,0,0,0,.357.031h0a2.275,2.275,0,0,0,.322-.026c.02,0,.039,0,.058-.009l.052-.008,45.351-8.962a1.984,1.984,0,0,0,.281-.083c.032-.011.067-.016.1-.029a2.273,2.273,0,0,0,.364-.182c.008-.006.015-.013.025-.018a2.189,2.189,0,0,0,.294-.225l.013-.01a45.588,45.588,0,0,0,8.148-10.018A44.958,44.958,0,0,0,1128.1,1691,45.344,45.344,0,0,0,1127.87,1686.452Zm-46.8,30.787-11.448-4,0-37.816c1.441,5.033,3.235,9.951,5.162,14.839a135.567,135.567,0,0,0,10.148,20.622Zm4.547-7.491a137.686,137.686,0,0,0-6.736-21.092,152.87,152.87,0,0,0-7.554-16.21l23.887,21.5Zm-20.411-2.129v4.078l-11.679-4.078Zm-16.749,7.74a40.771,40.771,0,0,1-3.833-6.226l32.851,11.472-11.18,8.51A41.479,41.479,0,0,1,1048.46,1715.36Zm27.021,12.268,7.214-5.492,14.055,1.288-21.131,4.177Zm45.832-22.91a40.285,40.285,0,0,1-3.442,7.263,41.17,41.17,0,0,1-6.661,8.39l-25.478-2.334,2.212-3.643,28.393-46.754a40.571,40.571,0,0,1,7.145,19.245,41.136,41.136,0,0,1,.205,4.113A40.521,40.521,0,0,1,1121.313,1704.718Z" transform="translate(-1038.467 -1661.56)" fill="url(#linear-gradient)"/>
        <g id="그룹_84" data-name="그룹 84" transform="translate(104.685 6.123)">
          <path id="패스_45" data-name="패스 45" d="M1374.1,1704.714a6.573,6.573,0,0,0-.866-1.4l-.844,1.4h-53.694v7.5h22.531v3.219c-7.347,1.4-12.876,5.946-12.876,13.581,0,9.165,8.118,13.924,17.785,13.924,9.582,0,17.7-4.834,17.7-13.924,0-7.5-5.24-12.042-12.383-13.517v-3.283h21.164a5.153,5.153,0,0,0,.406-.417,6.606,6.606,0,0,0,1.251-2.075,6.5,6.5,0,0,0,.417-2.289A6.624,6.624,0,0,0,1374.1,1704.714Zm-20.34,24.3c0,4.406-3.154,6.224-7.624,6.224s-7.7-1.818-7.7-6.224,3.219-6.309,7.7-6.309S1353.756,1724.594,1353.756,1729.011Z" transform="translate(-1199.559 -1676.821)" fill="#007dff"/>
          <path id="패스_46" data-name="패스 46" d="M1213.907,1674.953v8.613h-11.763c-3.08-3.716-7.839-5.99-13.784-5.99-11.347,0-18.2,8.337-18.2,18.95s6.792,18.878,18.2,18.878a17.726,17.726,0,0,0,13.227-5.307h12.32v20.468h10.149v-55.612Zm-25.547,32.535c-5.53,0-8.192-5.307-8.192-10.961,0-5.717,2.663-11.023,8.192-11.023s8.255,5.306,8.255,11.023C1196.615,1702.181,1193.888,1707.488,1188.36,1707.488Zm25.547-5.307h-8.052a24.24,24.24,0,0,0,.7-5.655,23.449,23.449,0,0,0-.566-5.032h7.913Z" transform="translate(-1170.158 -1670.334)" fill="#007dff"/>
          <path id="패스_47" data-name="패스 47" d="M1275.452,1678.091h-12.876a6.554,6.554,0,0,0,2.074-4.78,6.467,6.467,0,0,0-1.465-4.117l-9.431,2.663a13.472,13.472,0,0,1,.769,3.572,5.469,5.469,0,0,1-.63,2.663h-11.122v7.133h3.5a14.3,14.3,0,0,0-1.261,6.234c0,8.951,6.084,13.507,14.138,13.507,7.773,0,14.073-4.621,14.073-13.507a14.292,14.292,0,0,0-1.337-6.234h3.573Zm-16.308,19.174c-3.284,0-5.39-2.1-5.39-5.807,0-3.572,2.106-5.742,5.39-5.742,3.358,0,5.325,2.17,5.325,5.742C1264.469,1695.17,1262.5,1697.265,1259.144,1697.265Z" transform="translate(-1184.531 -1669.194)" fill="#007dff"/>
          <path id="패스_48" data-name="패스 48" d="M1282.357,1715.62c-9.657,0-17.773,5.668-17.773,14.908,0,9.176,8.116,14.843,17.773,14.843,9.592,0,17.708-5.743,17.708-14.843C1300.066,1721.288,1292.089,1715.62,1282.357,1715.62Zm0,22.052c-4.481,0-7.624-2.728-7.624-7.143s3.143-7.133,7.624-7.133,7.561,2.726,7.561,7.133S1286.839,1737.671,1282.357,1737.671Z" transform="translate(-1188.849 -1679.258)" fill="#007dff"/>
          <path id="패스_49" data-name="패스 49" d="M1298.946,1687.386h-4.2v-13.3h-8.959v31.426h8.959V1695.3h4.2v13.3h9.1v-34.506h-9.1Z" transform="translate(-1193.046 -1670.163)" fill="#007dff"/>
          <path id="패스_50" data-name="패스 50" d="M1336.76,1695.4h10.5c7.978,0,16.308-.56,22.466-2.73l-1.54-7.068c-6.648,2.029-14.279,2.449-20.437,2.449h-8.26c-1.61,0-2.169-.28-2.169-1.82V1681.4h30.725v-7.489h-40.8v13.928C1327.24,1694.281,1331.371,1695.4,1336.76,1695.4Z" transform="translate(-1201.252 -1670.129)" fill="#007dff"/>
          <path id="패스_51" data-name="패스 51" d="M1445.916,1712.211a6.556,6.556,0,0,0,2.074-4.78,6.63,6.63,0,0,0-.588-2.717,6.505,6.505,0,0,0-.866-1.4l-.844,1.4h-52.219a6.517,6.517,0,0,1-1.475,7.5h22.532v3.219c-7.347,1.4-12.876,5.946-12.876,13.581,0,9.165,8.117,13.924,17.784,13.924,9.582,0,17.7-4.834,17.7-13.924,0-7.5-5.239-12.042-12.383-13.517v-3.283Zm-18.854,16.8c0,4.406-3.155,6.224-7.625,6.224s-7.7-1.818-7.7-6.224,3.219-6.309,7.7-6.309S1427.062,1724.594,1427.062,1729.011Z" transform="translate(-1214.069 -1676.821)" fill="#007dff"/>
          <path id="패스_52" data-name="패스 52" d="M1410.066,1695.4h10.5c7.979,0,16.308-.56,22.466-2.73l-1.54-7.068c-6.647,2.029-14.278,2.449-20.436,2.449h-8.26c-1.61,0-2.169-.28-2.169-1.82V1681.4h30.726v-7.489h-40.805v13.928C1400.546,1694.281,1404.677,1695.4,1410.066,1695.4Z" transform="translate(-1215.762 -1670.129)" fill="#007dff"/>
        </g>
      </g>
    </g>
  </g>
</svg>
