<svg xmlns="http://www.w3.org/2000/svg" width="1030.299" height="295.045" viewBox="0 0 1030.299 295.045">
  <g id="그룹_118" data-name="그룹 118" transform="translate(-419 -2521)">
    <g id="그룹_117" data-name="그룹 117" transform="translate(419 2521)">
      <path id="패스_81" data-name="패스 81" d="M1629.425,1117.591a28.816,28.816,0,0,0-3.815-6.168l-3.721,6.168h-236.5v33.019h99.242v14.177c-32.359,6.17-56.71,26.189-56.71,59.82,0,40.365,35.751,61.326,78.331,61.326,42.2,0,77.952-21.29,77.952-61.326,0-33.019-23.079-53.037-54.544-59.537v-14.459h93.214a22.306,22.306,0,0,0,1.789-1.838,29.065,29.065,0,0,0,5.51-9.138,28.574,28.574,0,0,0,1.838-10.08A29.178,29.178,0,0,0,1629.425,1117.591Zm-89.587,107.016c0,19.406-13.9,27.412-33.583,27.412-19.738,0-33.914-8.006-33.914-27.412,0-19.452,14.176-27.79,33.914-27.79C1525.942,1196.817,1539.838,1205.155,1539.838,1224.607Z" transform="translate(-860.679 -990.889)" fill="#ededed"/>
      <path id="패스_82" data-name="패스 82" d="M317.108,870.656v38.53H265.3c-13.565-16.626-34.526-26.8-60.713-26.8-49.976,0-80.169,37.3-80.169,84.783s29.91,84.454,80.169,84.454c24.632,0,44.37-8.949,58.263-23.739h54.261v91.565h44.7V870.656ZM204.584,1016.2c-24.353,0-36.08-23.74-36.08-49.033,0-25.577,11.727-49.314,36.08-49.314s36.361,23.737,36.361,49.314C240.945,992.462,228.935,1016.2,204.584,1016.2Zm112.524-23.74H281.641a109.993,109.993,0,0,0,3.107-25.294,106.328,106.328,0,0,0-2.5-22.514h34.855Z" transform="translate(-124.415 -850.309)" fill="#007dff"/>
      <path id="패스_83" data-name="패스 83" d="M884.812,860.946H828.1a28.867,28.867,0,0,0,9.137-21.053,28.5,28.5,0,0,0-6.454-18.135l-41.542,11.729c1.555,5.228,3.39,10.787,3.39,15.731a24.1,24.1,0,0,1-2.778,11.727H740.87v31.418h15.4c-3.721,7.723-5.559,16.957-5.559,27.458,0,39.424,26.8,59.491,62.269,59.491,34.24,0,61.984-20.349,61.984-59.491a62.906,62.906,0,0,0-5.888-27.458h15.733ZM812.983,945.4c-14.462,0-23.739-9.232-23.739-25.577,0-15.731,9.278-25.292,23.739-25.292,14.788,0,23.454,9.561,23.454,25.292C836.437,936.168,827.771,945.4,812.983,945.4Z" transform="translate(-484.353 -821.758)" fill="#ededed"/>
      <path id="패스_84" data-name="패스 84" d="M1004.336,1215.9c-42.534,0-78.283,24.965-78.283,65.661,0,40.414,35.749,65.376,78.283,65.376,42.249,0,78-25.294,78-65.376C1082.334,1240.86,1047.2,1215.9,1004.336,1215.9Zm0,97.124c-19.738,0-33.583-12.01-33.583-31.463,0-19.406,13.845-31.416,33.583-31.416s33.3,12.01,33.3,31.416C1037.636,1301.009,1024.071,1313.019,1004.336,1313.019Z" transform="translate(-592.479 -1051.888)" fill="#ededed"/>
      <path id="패스_85" data-name="패스 85" d="M1164.02,921.883h-18.493V863.31h-39.459v138.416h39.459V956.717h18.493v58.573h40.075V863.31H1164.02Z" transform="translate(-697.586 -846.019)" fill="#ededed"/>
      <path id="패스_86" data-name="패스 86" d="M1499.9,956.468h46.243c35.14,0,71.827-2.466,98.952-12.024l-6.782-31.131c-29.282,8.937-62.89,10.786-90.015,10.786h-36.379c-7.091,0-9.553-1.233-9.553-8.017V894.813H1637.7V861.828H1457.972v61.347C1457.972,951.537,1476.166,956.468,1499.9,956.468Z" transform="translate(-903.058 -845.154)" fill="#ededed"/>
      <path id="패스_87" data-name="패스 87" d="M2245.213,1150.611a28.872,28.872,0,0,0,9.137-21.055,29.217,29.217,0,0,0-2.59-11.964,28.739,28.739,0,0,0-3.815-6.168l-3.721,6.168h-230a28.7,28.7,0,0,1-6.5,33.019h99.242v14.177c-32.359,6.17-56.71,26.189-56.71,59.82,0,40.365,35.749,61.326,78.329,61.326,42.2,0,77.955-21.29,77.955-61.326,0-33.019-23.08-53.037-54.544-59.537v-14.459Zm-83.04,74c0,19.406-13.9,27.412-33.585,27.412-19.735,0-33.911-8.006-33.911-27.412,0-19.452,14.176-27.79,33.911-27.79C2148.277,1196.817,2162.173,1205.155,2162.173,1224.607Z" transform="translate(-1224.051 -990.889)" fill="#007dff"/>
      <path id="패스_88" data-name="패스 88" d="M2122.24,956.468h46.241c35.14,0,71.827-2.466,98.952-12.024l-6.782-31.131c-29.279,8.937-62.887,10.786-90.012,10.786h-36.382c-7.09,0-9.554-1.233-9.554-8.017V894.813h135.332V861.828H2080.308v61.347C2080.308,951.537,2098.5,956.468,2122.24,956.468Z" transform="translate(-1266.43 -845.154)" fill="#007dff"/>
    </g>
  </g>
</svg>
