<svg xmlns="http://www.w3.org/2000/svg" width="234" height="234" viewBox="0 0 234 234">
  <g id="그룹_4339" data-name="그룹 4339" transform="translate(11809.048 -21402.473)">
    <circle id="타원_1925" data-name="타원 1925" cx="117" cy="117" r="117" transform="translate(-11809.048 21402.473)" fill="#007dff"/>
    <g id="그룹_4331" data-name="그룹 4331" transform="translate(-13339.24 18152.883)">
      <g id="그룹_4329" data-name="그룹 4329">
        <path id="패스_1916" data-name="패스 1916" d="M1612.84,3391.735a16.43,16.43,0,0,1-5.436-.917,16.008,16.008,0,0,1-4.637-2.542,15.213,15.213,0,0,1-5.49-8.715,2,2,0,0,1,3.911-.838,12.037,12.037,0,0,0,23.315-.051,2,2,0,1,1,3.915.818,15.2,15.2,0,0,1-5.477,8.763,16.011,16.011,0,0,1-4.648,2.557A16.421,16.421,0,0,1,1612.84,3391.735Z" fill="#ffe878"/>
        <path id="패스_1917" data-name="패스 1917" d="M1605.835,3316.886a2,2,0,0,1-1.971-2.354,10.2,10.2,0,0,1,3.065-5.681,8.6,8.6,0,0,1,11.824-.015,10.2,10.2,0,0,1,3.073,5.651,2,2,0,1,1-3.934.724,5.056,5.056,0,0,0-10.091.028A2,2,0,0,1,1605.835,3316.886Z" fill="#ffe878"/>
        <path id="패스_1918" data-name="패스 1918" d="M1613.259,3297.431a2,2,0,0,1-2-2v-13.884a2,2,0,0,1,4,0v13.884A2,2,0,0,1,1613.259,3297.431Z" fill="#fff"/>
        <path id="패스_1919" data-name="패스 1919" d="M1596.938,3306.376a1.99,1.99,0,0,1-1-.268l-12.024-6.942a2,2,0,0,1,2-3.464l12.024,6.942a2,2,0,0,1-1,3.732Z" fill="#fff"/>
        <path id="패스_1920" data-name="패스 1920" d="M1629.58,3306.376a2,2,0,0,1-1-3.732l12.024-6.942a2,2,0,1,1,2,3.464l-12.024,6.942A1.99,1.99,0,0,1,1629.58,3306.376Z" fill="#fff"/>
        <path id="패스_1921" data-name="패스 1921" d="M1650.041,3381.082h-74.39a2,2,0,0,1-2-2,15.2,15.2,0,0,1,1.088-4.956,19.953,19.953,0,0,0,.68-2.233c.191-.9.663-5.02,1.042-8.333.295-2.576.573-5.009.754-6.3,6.076-43.07,30.128-45.251,34.888-45.251.158,0,.313,0,.458.007h.009c.112,0,.2.008.276.012s.164-.008.276-.012h.009c.146,0,.3-.007.458-.007,4.76,0,28.812,2.182,34.888,45.251.181,1.287.46,3.72.754,6.3.379,3.313.851,7.437,1.042,8.334a19.947,19.947,0,0,0,.68,2.232,15.2,15.2,0,0,1,1.088,4.956A2,2,0,0,1,1650.041,3381.082Zm-72.058-4h69.726c-.153-.536-.343-1.086-.538-1.651a23.2,23.2,0,0,1-.81-2.7c-.216-1.011-.577-4.107-1.1-8.715-.292-2.549-.567-4.958-.741-6.192-2.4-17.033-7.883-29.164-16.289-36.057a23.836,23.836,0,0,0-14.638-5.752c-.119,0-.233,0-.338.005h-.014c-.13,0-.208.01-.226.011a1.682,1.682,0,0,1-.329,0c-.016,0-.095-.006-.226-.011h-.014c-.105,0-.219-.005-.338-.005a23.837,23.837,0,0,0-14.637,5.751c-8.406,6.893-13.887,19.025-16.29,36.058-.174,1.235-.449,3.643-.741,6.192-.527,4.608-.889,7.7-1.1,8.714a23.2,23.2,0,0,1-.811,2.7C1578.326,3376,1578.135,3376.546,1577.983,3377.082Z" fill="#ffe878"/>
      </g>
      <g id="그룹_4330" data-name="그룹 4330">
        <path id="패스_1922" data-name="패스 1922" d="M1673.589,3416.881a2,2,0,0,1-2-2v-41.993a7.645,7.645,0,0,1,15.289,0v22.8a2,2,0,0,1-4,0v-22.8a3.645,3.645,0,0,0-7.289,0v41.993A2,2,0,0,1,1673.589,3416.881Z" fill="#fff"/>
        <path id="패스_1923" data-name="패스 1923" d="M1684.869,3417.881a2,2,0,0,1-2-2V3395.69a7.644,7.644,0,1,1,15.288,0v3.1a2,2,0,0,1-4,0v-3.1a3.644,3.644,0,1,0-7.288,0v20.191A2,2,0,0,1,1684.869,3417.881Z" fill="#fff"/>
        <path id="패스_1924" data-name="패스 1924" d="M1696.157,3417.881a2,2,0,0,1-2-2v-17.086a7.645,7.645,0,1,1,15.289,0v2.388a2,2,0,0,1-4,0v-2.388a3.645,3.645,0,1,0-7.289,0v17.086A2,2,0,0,1,1696.157,3417.881Z" fill="#fff"/>
        <path id="패스_1925" data-name="패스 1925" d="M1689.123,3453.633c-9.948,0-16.548-3.125-19.615-9.287-3.232-6.494-14.433-38.114-15.181-40.227a7.644,7.644,0,0,1,14.022-6.091l7.07,16.046a2,2,0,1,1-3.66,1.613l-7.07-16.046a3.644,3.644,0,0,0-6.67,2.939c.02.046.039.093.055.14.118.334,11.849,33.485,15.014,39.844,2.368,4.757,7.613,7.069,16.035,7.069,23.093,0,27.611-6.062,27.611-16.533v-31.917a3.644,3.644,0,1,0-7.288,0v14.7a2,2,0,0,1-4,0v-14.7a7.644,7.644,0,1,1,15.288,0V3433.1a22.765,22.765,0,0,1-1.572,9,14.8,14.8,0,0,1-5.546,6.656C1708.668,3452.083,1700.885,3453.633,1689.123,3453.633Z" fill="#fff"/>
      </g>
    </g>
  </g>
</svg>
