<svg xmlns="http://www.w3.org/2000/svg" width="234" height="234" viewBox="0 0 234 234">
  <g id="그룹_4338" data-name="그룹 4338" transform="translate(12199.513 -21408.211)">
    <circle id="타원_1921" data-name="타원 1921" cx="117" cy="117" r="117" transform="translate(-12199.513 21408.211)" fill="#007dff"/>
    <g id="그룹_4328" data-name="그룹 4328" transform="translate(-13339.24 18152.883)">
      <path id="패스_1913" data-name="패스 1913" d="M1235.86,3381.869v41.675c0,7.211-5.321,13.061-11.881,13.061h-31.872c-6.56,0-11.882-5.85-11.882-13.061v-41.675c0-7.22,5.322-13.061,11.882-13.061h31.872C1230.539,3368.808,1235.86,3374.649,1235.86,3381.869Z" fill="none" stroke="#fff" stroke-linejoin="round" stroke-width="4"/>
      <circle id="타원_1922" data-name="타원 1922" cx="4.537" cy="4.537" r="4.537" transform="translate(1188.85 3436.605)" fill="none" stroke="#fff" stroke-linejoin="round" stroke-width="4"/>
      <circle id="타원_1923" data-name="타원 1923" cx="4.537" cy="4.537" r="4.537" transform="translate(1218.161 3436.605)" fill="none" stroke="#fff" stroke-linejoin="round" stroke-width="4"/>
      <line id="선_255" data-name="선 255" y2="33.057" transform="translate(1193.387 3386.544)" fill="none" stroke="#fff" stroke-linecap="round" stroke-linejoin="round" stroke-width="4"/>
      <line id="선_256" data-name="선 256" y2="33.057" transform="translate(1208.043 3386.544)" fill="none" stroke="#fff" stroke-linecap="round" stroke-linejoin="round" stroke-width="4"/>
      <line id="선_257" data-name="선 257" y2="33.057" transform="translate(1222.698 3386.544)" fill="none" stroke="#fff" stroke-linecap="round" stroke-linejoin="round" stroke-width="4"/>
      <rect id="사각형_400" data-name="사각형 400" width="20.513" height="10.096" transform="translate(1197.786 3325.767)" fill="none" stroke="#fff" stroke-linejoin="round" stroke-width="4"/>
      <line id="선_258" data-name="선 258" y2="32.945" transform="translate(1197.786 3335.862)" fill="none" stroke="#fff" stroke-linejoin="round" stroke-width="4"/>
      <line id="선_259" data-name="선 259" y2="32.945" transform="translate(1218.299 3335.862)" fill="none" stroke="#fff" stroke-linejoin="round" stroke-width="4"/>
      <g id="그룹_4327" data-name="그룹 4327">
        <path id="패스_1914" data-name="패스 1914" d="M1283.078,3326.907s-.42-10.515,12.619-10.515,12.619,10.515,12.619,10.515c0,7.011-11.637,11.918-12.619,14.161v8.15" fill="none" stroke="#ffe878" stroke-linecap="round" stroke-linejoin="round" stroke-width="4"/>
        <circle id="타원_1924" data-name="타원 1924" cx="2.528" cy="2.528" r="2.528" transform="translate(1293.17 3356.317)" fill="#ffe878"/>
      </g>
      <path id="패스_1915" data-name="패스 1915" d="M1295.325,3298.976a37.905,37.905,0,0,0-33.939,54.785l-9.222,14.041,16.494-3.988a37.9,37.9,0,1,0,26.667-64.838Z" fill="none" stroke="#fff" stroke-linecap="round" stroke-linejoin="round" stroke-width="4"/>
    </g>
  </g>
</svg>
