<svg xmlns="http://www.w3.org/2000/svg" width="300" height="300" viewBox="0 0 300 300">
  <g id="그룹_2756" data-name="그룹 2756" transform="translate(-215.553 -2509.849)">
    <rect id="사각형_359" data-name="사각형 359" width="300" height="300" transform="translate(215.553 2509.849)" fill="none"/>
    <g id="그룹_2751" data-name="그룹 2751">
      <path id="패스_1565" data-name="패스 1565" d="M461.588,2552.992a84.182,84.182,0,0,0-61.656,26.057" fill="none" stroke="#007dff" stroke-linecap="round" stroke-linejoin="round" stroke-width="4"/>
      <path id="패스_1566" data-name="패스 1566" d="M447.964,2539.541l13.613,13.435-13.435,13.613" fill="none" stroke="#007dff" stroke-linecap="round" stroke-linejoin="round" stroke-width="4"/>
    </g>
    <g id="그룹_2752" data-name="그룹 2752">
      <path id="패스_1567" data-name="패스 1567" d="M269.495,2552.992a84.182,84.182,0,0,1,61.657,26.057" fill="none" stroke="#007dff" stroke-linecap="round" stroke-linejoin="round" stroke-width="4"/>
      <path id="패스_1568" data-name="패스 1568" d="M283.119,2539.541l-13.613,13.435,13.435,13.613" fill="none" stroke="#007dff" stroke-linecap="round" stroke-linejoin="round" stroke-width="4"/>
    </g>
    <g id="그룹_2753" data-name="그룹 2753">
      <path id="패스_1569" data-name="패스 1569" d="M287.66,2610.564h34.673a4.572,4.572,0,1,1,0,9.144h-5.657" fill="none" stroke="#000" stroke-linecap="round" stroke-linejoin="round" stroke-width="4"/>
      <path id="패스_1570" data-name="패스 1570" d="M287.66,2619.708h29.016a4.571,4.571,0,0,1,4.572,4.571h0a4.572,4.572,0,0,1-4.572,4.572H306.505" fill="none" stroke="#000" stroke-linecap="round" stroke-linejoin="round" stroke-width="4"/>
      <path id="패스_1571" data-name="패스 1571" d="M218.107,2604.7c4.451,0,28.214,1.474,41.164-4.081,4.264-1.829,8.448-4.286,12.767-6.157l7.114-3.082,6.233-2.7,3.435-1.488.2-.086a6.3,6.3,0,1,1,5.007,11.559l-6.366,2.757h29.656a4.572,4.572,0,1,1,0,9.144" fill="none" stroke="#000" stroke-linecap="round" stroke-linejoin="round" stroke-width="4"/>
      <path id="패스_1572" data-name="패스 1572" d="M287.66,2628.851h18.845a4.572,4.572,0,0,1,0,9.144h-32.09c-9.172.573-18.035-1.986-27.083-2.955-7.437-.8-14.918-1.361-22.393-1.647-2.186-.084-4.664-.407-6.832.03" fill="none" stroke="#000" stroke-linecap="round" stroke-linejoin="round" stroke-width="4"/>
    </g>
    <g id="그룹_2754" data-name="그룹 2754">
      <path id="패스_1573" data-name="패스 1573" d="M442.943,2610.564H408.269a4.572,4.572,0,1,0,0,9.144h5.657" fill="none" stroke="#000" stroke-linecap="round" stroke-linejoin="round" stroke-width="4"/>
      <path id="패스_1574" data-name="패스 1574" d="M442.943,2619.708H413.926a4.57,4.57,0,0,0-4.571,4.571h0a4.571,4.571,0,0,0,4.571,4.572H424.1" fill="none" stroke="#000" stroke-linecap="round" stroke-linejoin="round" stroke-width="4"/>
      <path id="패스_1575" data-name="패스 1575" d="M512.5,2604.7c-4.452,0-28.215,1.474-41.165-4.081-4.263-1.829-8.447-4.286-12.766-6.157l-7.114-3.082-6.234-2.7-3.434-1.488-.2-.086a6.3,6.3,0,1,0-5.007,11.559l6.366,2.757H413.286a4.572,4.572,0,1,0,0,9.144" fill="none" stroke="#000" stroke-linecap="round" stroke-linejoin="round" stroke-width="4"/>
      <path id="패스_1576" data-name="패스 1576" d="M442.943,2628.851H424.1a4.572,4.572,0,0,0,0,9.144h32.089c9.172.573,18.036-1.986,27.083-2.955,7.438-.8,14.919-1.361,22.393-1.647,2.186-.084,4.665-.407,6.833.03" fill="none" stroke="#000" stroke-linecap="round" stroke-linejoin="round" stroke-width="4"/>
    </g>
    <g id="그룹_2755" data-name="그룹 2755">
      <line id="선_196" data-name="선 196" y2="119.804" transform="translate(365.319 2659.854)" fill="none" stroke="#007dff" stroke-linecap="round" stroke-linejoin="round" stroke-width="4"/>
      <path id="패스_1577" data-name="패스 1577" d="M353.969,2671.2l11.35-11.35,11.98,11.98" fill="none" stroke="#000" stroke-linejoin="round" stroke-width="4"/>
      <path id="패스_1578" data-name="패스 1578" d="M365.553,2779.9l72.988-58.647-58.647-72.988Z" fill="none" stroke="#000" stroke-linecap="round" stroke-linejoin="round" stroke-width="4"/>
      <path id="패스_1579" data-name="패스 1579" d="M365.553,2779.9l-72.988-58.647,58.647-72.988Z" fill="none" stroke="#000" stroke-linecap="round" stroke-linejoin="round" stroke-width="4"/>
    </g>
  </g>
</svg>
