<svg xmlns="http://www.w3.org/2000/svg" width="210" height="190" viewBox="0 0 210 190">
  <g id="그룹_2807" data-name="그룹 2807" transform="translate(-1919.538 -2582.576)">
    <path id="패스_1656" data-name="패스 1656" d="M2024.538,2770.576s-16.876-11.544-51.5-11.544-51.5,11.544-51.5,11.544v-92.637s16.875-11.544,51.5-11.544,51.5,11.544,51.5,11.544Z" fill="#007dff" stroke="#007dff" stroke-linecap="round" stroke-linejoin="round" stroke-width="4"/>
    <path id="패스_1657" data-name="패스 1657" d="M2024.538,2764.8s-14.588-11.544-44.517-11.544-49.755,5.772-49.755,5.772V2666.4s19.825-5.772,49.755-5.772,44.517,11.544,44.517,11.544Z" fill="#fff" stroke="#007dff" stroke-linecap="round" stroke-linejoin="round" stroke-width="4"/>
    <path id="패스_1658" data-name="패스 1658" d="M2024.538,2759.032s-12.877-11.544-39.3-11.544-43.919-5.772-43.919-5.772v-92.637s17.5,5.772,43.919,5.772,39.3,11.544,39.3,11.544Z" fill="#fff" stroke="#007dff" stroke-linecap="round" stroke-linejoin="round" stroke-width="4"/>
    <path id="패스_1659" data-name="패스 1659" d="M2024.538,2770.576s16.875-11.544,51.5-11.544,51.5,11.544,51.5,11.544v-92.637s-16.876-11.544-51.5-11.544-51.5,11.544-51.5,11.544Z" fill="#007dff" stroke="#007dff" stroke-linecap="round" stroke-linejoin="round" stroke-width="4"/>
    <path id="패스_1660" data-name="패스 1660" d="M2024.538,2764.8s14.587-11.544,44.517-11.544,49.754,5.772,49.754,5.772V2666.4s-19.825-5.772-49.754-5.772-44.517,11.544-44.517,11.544Z" fill="#fff" stroke="#007dff" stroke-linecap="round" stroke-linejoin="round" stroke-width="4"/>
    <path id="패스_1661" data-name="패스 1661" d="M2024.538,2759.032s12.876-11.544,39.3-11.544,43.919-5.772,43.919-5.772v-92.637s-17.5,5.772-43.919,5.772-39.3,11.544-39.3,11.544Z" fill="#fff" stroke="#007dff" stroke-linecap="round" stroke-linejoin="round" stroke-width="4"/>
    <path id="패스_1662" data-name="패스 1662" d="M2030.253,2637.549h-11.43l-1.217-6.358h13.865Z" fill="#fff" stroke="#ffe878" stroke-miterlimit="10" stroke-width="4"/>
    <path id="패스_1663" data-name="패스 1663" d="M2029.036,2643.906h-9l-1.217-6.358h11.43Z" fill="#fff" stroke="#ffe878" stroke-miterlimit="10" stroke-width="4"/>
    <ellipse id="타원_1409" data-name="타원 1409" cx="13.124" cy="13.043" rx="13.124" ry="13.043" transform="translate(2011.413 2606.291)" fill="#fff" stroke="#ffe878" stroke-miterlimit="10" stroke-width="4"/>
    <line id="선_223" data-name="선 223" y2="9.423" transform="translate(2024.538 2584.576)" fill="#fff" stroke="#007dff" stroke-linecap="round" stroke-miterlimit="10" stroke-width="4"/>
    <line id="선_224" data-name="선 224" x1="6.705" y2="6.663" transform="translate(2042.564 2594.756)" fill="#fff" stroke="#007dff" stroke-linecap="round" stroke-miterlimit="10" stroke-width="4"/>
    <line id="선_225" data-name="선 225" x2="6.705" y2="6.663" transform="translate(1999.807 2594.756)" fill="#fff" stroke="#007dff" stroke-linecap="round" stroke-miterlimit="10" stroke-width="4"/>
  </g>
</svg>
