<svg xmlns="http://www.w3.org/2000/svg" width="46" height="46" viewBox="0 0 46 46">
  <g id="그룹_4948" data-name="그룹 4948" transform="translate(-681 -737)">
    <g id="그룹_2684" data-name="그룹 2684" transform="translate(6.638 1.285)">
      <g id="그룹_2683" data-name="그룹 2683" transform="translate(-31 -8.428)">
        <g id="그룹_2675" data-name="그룹 2675" transform="translate(720.355 755.144)">
          <g id="패스_1497" data-name="패스 1497" transform="translate(0 0)" fill="#fff">
            <path d="M 7.191647052764893 21.88050842285156 C 7.162632942199707 21.82117080688477 7.131420612335205 21.68003082275391 7.190442085266113 21.52905654907227 L 8.051325798034668 21.42305946350098 C 8.125107765197754 21.53237342834473 8.146369934082031 21.66270637512207 8.121756553649902 21.76598930358887 L 7.191647052764893 21.88050842285156 Z M 7.601781368255615 20.67681694030762 C 7.481662750244141 20.49933624267578 7.337413311004639 20.28791618347168 7.165727138519287 20.03650856018066 C 5.342667102813721 17.36697769165039 0.4999970197677612 10.27578830718994 0.4999970197677612 7.325498580932617 C 0.4999970197677612 3.561908483505249 3.704876899719238 0.4999985992908478 7.644217014312744 0.4999985992908478 C 11.58355712890625 0.4999985992908478 14.78843688964844 3.561908483505249 14.78843688964844 7.325498580932617 C 14.78843688964844 9.998998641967773 10.84464740753174 15.84507846832275 8.725896835327148 18.98580932617188 C 8.208487510681152 19.7527961730957 7.847461700439453 20.29017066955566 7.601781368255615 20.67681694030762 Z" stroke="none"/>
            <path d="M 7.644217014312744 0.9999980926513672 C 3.98057746887207 0.9999980926513672 0.9999971389770508 3.837608337402344 0.9999971389770508 7.325498580932617 C 0.9999971389770508 8.119908332824707 1.430767059326172 9.814168930053711 3.48294734954834 13.37422847747803 C 4.898826599121094 15.83046913146973 6.576356887817383 18.28689956665039 7.578647136688232 19.75456809997559 C 7.583592414855957 19.76181030273438 7.588528156280518 19.7690372467041 7.593424797058105 19.77620887756348 C 7.788753986358643 19.48209190368652 8.02507209777832 19.1306209564209 8.311407089233398 18.70616912841797 C 9.421676635742188 17.06036758422852 10.94222640991211 14.80636787414551 12.18121719360352 12.62182903289795 C 13.9228572845459 9.55103874206543 14.28843688964844 8.046728134155273 14.28843688964844 7.325498580932617 C 14.28843688964844 3.837608337402344 11.30785751342773 0.9999980926513672 7.644217014312744 0.9999980926513672 M 7.644217014312744 -1.9073486328125e-06 C 11.86599731445312 -1.9073486328125e-06 15.28843688964844 3.279739379882812 15.28843688964844 7.325498580932617 C 15.28843688964844 11.22260475158691 7.841480731964111 20.7852611541748 7.635375499725342 21.65007209777832 C 7.18509578704834 20.78300476074219 -2.86102294921875e-06 11.15346336364746 -2.86102294921875e-06 7.325498580932617 C -2.86102294921875e-06 3.279739379882812 3.422427177429199 -1.9073486328125e-06 7.644217014312744 -1.9073486328125e-06 Z M 7.635375499725342 21.65007209777832 C 7.660994529724121 21.69940567016602 7.664761066436768 21.72032737731934 7.644217014312744 21.71024894714355 C 7.630192279815674 21.703369140625 7.627513408660889 21.68305969238281 7.635375499725342 21.65007209777832 Z" stroke="none" fill="#333"/>
          </g>
          <g id="타원_1405" data-name="타원 1405" transform="translate(4.644 4.57)" fill="#fff" stroke="#333" stroke-width="1">
            <circle cx="3" cy="3" r="3" stroke="none"/>
            <circle cx="3" cy="3" r="2.5" fill="none"/>
          </g>
        </g>
      </g>
      <path id="패스_1499" data-name="패스 1499" d="M-10010.638,11053.245s1.013-6.788,5.022-6.287,3.131,6.287,7.92,6.287,3.172-6.287,7.834-6.287,5.765,6.287,5.765,6.287" transform="translate(10695 -10281.797)" fill="none" stroke="#333" stroke-linecap="round" stroke-width="1"/>
    </g>
    <rect id="사각형_424" data-name="사각형 424" width="46" height="46" transform="translate(681 737)" fill="none"/>
  </g>
</svg>
