<svg xmlns="http://www.w3.org/2000/svg" width="102" height="273" viewBox="0 0 102 273">
  <g id="그룹_12391" data-name="그룹 12391" transform="translate(8672 -19299)">
    <g id="그룹_12390" data-name="그룹 12390" transform="translate(-9464.568 19216.994)">
      <path id="패스_952" data-name="패스 952" d="M823.425,109.065a2,2,0,0,1,2,2c0,1.321,2.074,3.285,6.707,4.7l.007,0a42.911,42.911,0,0,0,23.249-.081l.005,0a15.536,15.536,0,0,0,5.034-2.471,3.225,3.225,0,0,0,1.393-2.143,2,2,0,0,1,4,0v44.283a48.948,48.948,0,0,1,26.75,43.628V326.442A26.548,26.548,0,0,1,866,353h-44.75a26.535,26.535,0,0,1-26.56-26.56V198.976a48.938,48.938,0,0,1,26.738-43.628V111.065A2,2,0,0,1,823.425,109.065Zm7.535,10.52a21.881,21.881,0,0,1-5.535-2.458v39.464a2,2,0,0,1-1.138,1.8,45.19,45.19,0,0,0-25.6,40.58V326.442A22.586,22.586,0,0,0,821.247,349H866a22.592,22.592,0,0,0,22.572-22.56V198.976a45.2,45.2,0,0,0-25.612-40.58,2,2,0,0,1-1.138-1.8V117.134a21.417,21.417,0,0,1-5.222,2.36,46.872,46.872,0,0,1-25.637.091Z"/>
      <path id="패스_953" data-name="패스 953" d="M855.332,102.142l2.453.9c5.18,1.9,8.033,4.749,8.033,8.024a6.73,6.73,0,0,1-2.864,5.243,19.188,19.188,0,0,1-6.358,3.187l-2.852.9.822-9.5Zm2.933,12.409a11.276,11.276,0,0,0,2.161-1.342,3.225,3.225,0,0,0,1.393-2.144c0-1-1.113-2.16-2.974-3.178l-.293,3.353Z"/>
      <path id="패스_954" data-name="패스 954" d="M832.193,102.071l.76,8.82.852,9.56-2.838-.864a19.832,19.832,0,0,1-6.575-3.2c-2.452-1.953-2.967-3.971-2.967-5.32a6.587,6.587,0,0,1,2.577-5,17.685,17.685,0,0,1,5.753-3.136Zm-2.918,12.615-.307-3.449-.3-3.495c-2.025,1.052-3.241,2.264-3.241,3.323C825.425,112.074,826.636,113.459,829.275,114.686Z"/>
      <path id="패스_955" data-name="패스 955" d="M835.429,84H852.1a8.415,8.415,0,0,1,5.705,2.172,7.344,7.344,0,0,1,2.453,5.461v.087l-1.71,19.514-.679,7.848-1.27.4a46.868,46.868,0,0,1-25.643.093l-1.283-.4-.709-7.952-.538-6.246-1.171-13.264v-.088a7.337,7.337,0,0,1,2.461-5.463A8.437,8.437,0,0,1,835.429,84Zm20.831,7.556A3.941,3.941,0,0,0,852.1,88H835.429a3.949,3.949,0,0,0-4.17,3.555l1.155,13.083.538,6.248.466,5.234a43.887,43.887,0,0,0,20.7-.074l.446-5.159Z"/>
      <path id="패스_956" data-name="패스 956" d="M858.25,114.769,856.473,135a6.242,6.242,0,0,1-1.852,3.936,5.734,5.734,0,0,1-4.008,1.645H836.919a5.746,5.746,0,0,1-4.018-1.645,6.2,6.2,0,0,1-1.843-3.941L829.3,114.886l2.842.877a42.91,42.91,0,0,0,23.249-.081Zm-7.637,21.81a2.016,2.016,0,0,0,1.876-1.932l1.263-14.384a48.737,48.737,0,0,1-19.963.062l1.255,14.334a1.974,1.974,0,0,0,1.875,1.92Z"/>
      <g id="그룹_1400" data-name="그룹 1400">
        <path id="패스_957" data-name="패스 957" d="M845.835,330.617a2,2,0,0,1-1.962-2.4l25.659-125.611a17.62,17.62,0,0,1-3.094,1.594,24.19,24.19,0,0,1-14.471.794,20.32,20.32,0,0,1-6.777-2.959,15.525,15.525,0,0,1-4.61-4.793,11.228,11.228,0,0,1-1.444-3.863,9.592,9.592,0,0,1,.2-4.139,8.423,8.423,0,0,1,2.235-3.783,11.057,11.057,0,0,1,3.739-2.4,16.209,16.209,0,0,1,9.7-.54c2.54.609,4.765,1.215,6.282,2.47,1.8,1.487,2.374,3.617,1.765,6.512a6.119,6.119,0,0,1-2.581,4.137c-2.332,1.476-5.32.76-8.21.067l-.13-.031a2,2,0,1,1,.932-3.89l.13.031c1.985.476,4.235,1.015,5.139.443a2.4,2.4,0,0,0,.806-1.579c.407-1.939-.1-2.358-.4-2.608-.854-.707-2.772-1.208-4.664-1.662-5-1.2-9.98.582-10.879,3.886a6.359,6.359,0,0,0,.828,4.911c1.632,2.754,4.951,4.96,8.878,5.9a20.169,20.169,0,0,0,12.055-.618c3.321-1.327,5.556-3.548,6.293-6.252a2,2,0,0,1,3.889.926L847.793,329.017A2,2,0,0,1,845.835,330.617Z" fill="#007dff"/>
        <path id="패스_958" data-name="패스 958" d="M833.184,337.56a27.74,27.74,0,0,1-5.536-.571,24.23,24.23,0,0,1-11.567-5.6,13.26,13.26,0,0,1-3.239-4.435,8.614,8.614,0,0,1-.6-5.2,2,2,0,1,1,3.919.8c-.514,2.519,1.434,4.779,2.641,5.9a22.06,22.06,0,0,0,20.325,4.152c1.551-.559,4.23-1.873,4.744-4.392a2,2,0,1,1,3.919.8,8.612,8.612,0,0,1-2.587,4.545,13.262,13.262,0,0,1-4.719,2.809A21.649,21.649,0,0,1,833.184,337.56Z" fill="#007dff"/>
        <path id="선_114" data-name="선 114" d="M0,134.393a2.008,2.008,0,0,1-.4-.041,2,2,0,0,1-1.559-2.36L25.085-.4a2,2,0,0,1,2.36-1.559A2,2,0,0,1,29,.4L1.96,132.792A2,2,0,0,1,0,134.393Z" transform="translate(814.204 189.763)" fill="#007dff"/>
      </g>
    </g>
    <rect id="사각형_647" data-name="사각형 647" width="102" height="273" transform="translate(-8672 19299)" fill="none"/>
  </g>
</svg>
