<svg xmlns="http://www.w3.org/2000/svg" width="234" height="234" viewBox="0 0 234 234">
  <g id="그룹_4337" data-name="그룹 4337" transform="translate(12595.721 -21408.535)">
    <circle id="타원_1919" data-name="타원 1919" cx="117" cy="117" r="117" transform="translate(-12595.721 21408.535)" fill="#007dff"/>
    <g id="그룹_4326" data-name="그룹 4326" transform="translate(-13339.24 18152.883)">
      <path id="패스_1903" data-name="패스 1903" d="M832.8,3418.459" fill="none" stroke="#fff" stroke-linecap="round" stroke-linejoin="round" stroke-width="4"/>
      <path id="패스_1904" data-name="패스 1904" d="M839.81,3390.894" fill="none" stroke="#000" stroke-linecap="round" stroke-linejoin="round" stroke-width="4"/>
      <line id="선_252" data-name="선 252" x2="3.319" y2="10.848" transform="translate(869.181 3390.894)" fill="none" stroke="#fff" stroke-linecap="round" stroke-linejoin="round" stroke-width="4"/>
      <line id="선_253" data-name="선 253" x1="3.319" y2="10.848" transform="translate(836.494 3390.894)" fill="none" stroke="#fff" stroke-linecap="round" stroke-linejoin="round" stroke-width="4"/>
      <path id="패스_1905" data-name="패스 1905" d="M866.819,3346.738l8.934-4.777c0-6.043-6.191-10.941-13.828-10.941H847.066c-7.637,0-13.828,4.9-13.828,10.941l8.675,4.639" fill="none" stroke="#fff" stroke-linejoin="round" stroke-width="4"/>
      <g id="그룹_4324" data-name="그룹 4324">
        <path id="패스_1906" data-name="패스 1906" d="M885.546,3354.4v32.942a3.048,3.048,0,0,1-3.292,2.723H826.737a3.048,3.048,0,0,1-3.292-2.723V3354.4a3.048,3.048,0,0,1,3.292-2.723h55.517A3.048,3.048,0,0,1,885.546,3354.4Z" fill="none" stroke="#ffe878" stroke-miterlimit="10" stroke-width="4"/>
        <path id="패스_1907" data-name="패스 1907" d="M868.49,3351.673H840.5c0-6.394,6.266-11.579,14-11.579S868.49,3345.279,868.49,3351.673Z" fill="none" stroke="#ffe878" stroke-miterlimit="10" stroke-width="4"/>
      </g>
      <g id="그룹_4325" data-name="그룹 4325">
        <line id="선_254" data-name="선 254" x2="0.046" y2="27.637" transform="translate(897.925 3408.165)" fill="none" stroke="#fff" stroke-linecap="round" stroke-linejoin="round" stroke-width="4"/>
        <path id="패스_1908" data-name="패스 1908" d="M911.366,3429.859l-13.441-21.694-13.441,21.694" fill="none" stroke="#fff" stroke-linecap="round" stroke-linejoin="round" stroke-width="4"/>
        <path id="패스_1909" data-name="패스 1909" d="M863.964,3420.816l14.779,23.458H917.2Z" fill="none" stroke="#fff" stroke-linejoin="round" stroke-width="4"/>
        <path id="패스_1910" data-name="패스 1910" d="M931.978,3420.817,917.2,3444.275H878.743Z" fill="none" stroke="#fff" stroke-linejoin="round" stroke-width="4"/>
      </g>
      <circle id="타원_1920" data-name="타원 1920" cx="11.318" cy="11.318" r="11.318" transform="translate(843.178 3300.313)" fill="none" stroke="#fff" stroke-miterlimit="10" stroke-width="4"/>
      <path id="패스_1911" data-name="패스 1911" d="M789.061,3429.15s10.732-7.613,20.694-8.558,10.334,12.231,20.643,11.253a28,28,0,0,0,16.277-7.025" fill="none" stroke="#fff" stroke-linecap="round" stroke-linejoin="round" stroke-width="4"/>
      <path id="패스_1912" data-name="패스 1912" d="M790.3,3442.244s10.733-7.613,20.694-8.558,10.335,12.231,20.643,11.253a28.008,28.008,0,0,0,16.278-7.025" fill="none" stroke="#fff" stroke-linecap="round" stroke-linejoin="round" stroke-width="4"/>
    </g>
  </g>
</svg>
