<svg xmlns="http://www.w3.org/2000/svg" width="234" height="234" viewBox="0 0 234 234">
  <g id="그룹_4347" data-name="그룹 4347" transform="translate(11809.048 -21126)">
    <circle id="타원_1917" data-name="타원 1917" cx="117" cy="117" r="117" transform="translate(-11809.048 21126)" fill="#fff"/>
    <g id="그룹_4322" data-name="그룹 4322" transform="translate(-13339.24 18152.883)">
      <g id="그룹_4320" data-name="그룹 4320">
        <path id="패스_1889" data-name="패스 1889" d="M1626.46,3102.608a14.035,14.035,0,0,1-27.228.061" fill="#fff"/>
        <path id="패스_1889_-_윤곽선" data-name="패스 1889 - 윤곽선" d="M1612.84,3115.262a16.43,16.43,0,0,1-5.436-.917,16.008,16.008,0,0,1-4.638-2.542,15.214,15.214,0,0,1-5.49-8.716,2,2,0,0,1,3.911-.838,12.037,12.037,0,0,0,23.315-.051,2,2,0,1,1,3.915.818,15.2,15.2,0,0,1-5.477,8.764,16.01,16.01,0,0,1-4.648,2.557A16.421,16.421,0,0,1,1612.84,3115.262Z" fill="#007dff"/>
        <path id="패스_1890" data-name="패스 1890" d="M1605.833,3038.413a7.045,7.045,0,0,1,14.026-.037" fill="#fff"/>
        <path id="패스_1890_-_윤곽선" data-name="패스 1890 - 윤곽선" d="M1605.835,3040.413a2,2,0,0,1-1.971-2.354,10.206,10.206,0,0,1,3.065-5.682,8.6,8.6,0,0,1,11.824-.015,10.2,10.2,0,0,1,3.073,5.651,2,2,0,1,1-3.934.724,5.055,5.055,0,0,0-10.091.029A2,2,0,0,1,1605.835,3040.413Z" fill="#007dff"/>
        <path id="패스_1891" data-name="패스 1891" d="M1613.259,3014.018v0Z" fill="#fff"/>
        <path id="패스_1891_-_윤곽선" data-name="패스 1891 - 윤곽선" d="M1613.259,3020.957a2,2,0,0,1-2-2v-13.883a2,2,0,0,1,4,0v13.883A2,2,0,0,1,1613.259,3020.957Z" fill="#333"/>
        <path id="패스_1892" data-name="패스 1892" d="M1592.662,3025.433l4.278,2.47-4.278-2.47-7.746-4.472Z" fill="#fff"/>
        <path id="패스_1892_-_윤곽선" data-name="패스 1892 - 윤곽선" d="M1596.938,3029.9a1.99,1.99,0,0,1-1-.268l-12.024-6.942a2,2,0,1,1,2-3.464l12.024,6.942a2,2,0,0,1-1,3.732Z" fill="#333"/>
        <path id="패스_1893" data-name="패스 1893" d="M1633.856,3025.433l-4.278,2.47,4.278-2.47,7.746-4.472Z" fill="#fff"/>
        <path id="패스_1893_-_윤곽선" data-name="패스 1893 - 윤곽선" d="M1629.58,3029.9a2,2,0,0,1-1-3.732l12.024-6.942a2,2,0,1,1,2,3.464l-12.024,6.942A1.99,1.99,0,0,1,1629.58,3029.9Z" fill="#333"/>
        <path id="패스_1894" data-name="패스 1894" d="M1648.317,3095.837c-.359-1.682-1.389-11.7-1.821-14.767-6.065-42.993-30.175-43.627-33.311-43.525h0c-.219.007-.338.018-.338.018s-.119-.011-.338-.018h0c-3.136-.1-27.246.532-33.311,43.525-.432,3.067-1.462,13.085-1.821,14.767-.465,2.175-1.724,4.431-1.724,6.771h74.39C1650.041,3100.268,1648.782,3098.012,1648.317,3095.837Z" fill="#fff"/>
        <path id="패스_1894_-_윤곽선" data-name="패스 1894 - 윤곽선" d="M1650.041,3104.608h-74.39a2,2,0,0,1-2-2,15.2,15.2,0,0,1,1.088-4.956,20,20,0,0,0,.68-2.233c.191-.9.663-5.02,1.042-8.333.295-2.575.573-5.008.754-6.294,6.076-43.071,30.129-45.252,34.889-45.252.158,0,.311,0,.456.007h.012c.11,0,.2.008.273.012s.164-.009.273-.012h.013c.145,0,.3-.007.455-.007,4.76,0,28.813,2.182,34.889,45.252.181,1.287.46,3.719.754,6.295.379,3.314.851,7.438,1.042,8.334a20.007,20.007,0,0,0,.68,2.233,15.2,15.2,0,0,1,1.088,4.956A2,2,0,0,1,1650.041,3104.608Zm-72.058-4h69.726c-.152-.536-.343-1.086-.537-1.651a23.182,23.182,0,0,1-.81-2.7c-.216-1.01-.577-4.106-1.1-8.715-.292-2.549-.567-4.956-.741-6.191-2.4-17.034-7.884-29.166-16.29-36.059a23.837,23.837,0,0,0-14.638-5.751c-.119,0-.232,0-.338.005h-.011c-.121,0-.2.009-.214.011a1.639,1.639,0,0,1-.359,0c-.018,0-.092-.007-.214-.011h-.01c-.105,0-.219-.005-.338-.005a23.836,23.836,0,0,0-14.637,5.751c-8.407,6.893-13.888,19.025-16.291,36.06-.174,1.234-.449,3.642-.741,6.191-.527,4.609-.889,7.7-1.1,8.714a23.175,23.175,0,0,1-.81,2.7C1578.326,3099.521,1578.135,3100.072,1577.983,3100.608Z" fill="#007dff"/>
      </g>
      <g id="그룹_4321" data-name="그룹 4321">
        <path id="패스_1895" data-name="패스 1895" d="M1673.589,3138.408v-41.993a5.644,5.644,0,0,1,5.645-5.644h0a5.644,5.644,0,0,1,5.644,5.644v22.8" fill="#fff"/>
        <path id="패스_1895_-_윤곽선" data-name="패스 1895 - 윤곽선" d="M1673.589,3140.408a2,2,0,0,1-2-2v-41.993a7.645,7.645,0,0,1,15.289,0v22.8a2,2,0,0,1-4,0v-22.8a3.645,3.645,0,0,0-7.289,0v41.993A2,2,0,0,1,1673.589,3140.408Z" fill="#333"/>
        <path id="패스_1896" data-name="패스 1896" d="M1684.869,3139.407v-20.19a5.644,5.644,0,0,1,5.644-5.645h0a5.644,5.644,0,0,1,5.644,5.645v3.1" fill="#fff"/>
        <path id="패스_1896_-_윤곽선" data-name="패스 1896 - 윤곽선" d="M1684.869,3141.407a2,2,0,0,1-2-2v-20.19a7.644,7.644,0,1,1,15.288,0v3.1a2,2,0,0,1-4,0v-3.1a3.644,3.644,0,1,0-7.288,0v20.19A2,2,0,0,1,1684.869,3141.407Z" fill="#333"/>
        <path id="패스_1897" data-name="패스 1897" d="M1696.157,3139.407v-17.086a5.644,5.644,0,0,1,5.644-5.644h0a5.644,5.644,0,0,1,5.645,5.644v2.388" fill="#fff"/>
        <path id="패스_1897_-_윤곽선" data-name="패스 1897 - 윤곽선" d="M1696.157,3141.407a2,2,0,0,1-2-2v-17.086a7.645,7.645,0,0,1,15.289,0v2.388a2,2,0,0,1-4,0v-2.388a3.645,3.645,0,0,0-7.289,0v17.086A2,2,0,0,1,1696.157,3141.407Z" fill="#333"/>
        <path id="패스_1898" data-name="패스 1898" d="M1673.589,3138.408l-7.07-16.046a5.644,5.644,0,0,0-7.441-2.889h0a5.644,5.644,0,0,0-2.889,7.441s11.853,33.526,15.109,40.068c1.932,3.88,6.357,8.177,17.825,8.177,22.859,0,29.611-5.923,29.611-18.532v-31.918a5.644,5.644,0,0,0-5.644-5.644h0a5.644,5.644,0,0,0-5.644,5.644v14.7" fill="#fff"/>
        <path id="패스_1898_-_윤곽선" data-name="패스 1898 - 윤곽선" d="M1689.123,3177.159c-9.948,0-16.547-3.124-19.615-9.286-3.232-6.494-14.435-38.117-15.181-40.227a7.644,7.644,0,0,1,14.023-6.091l7.07,16.046a2,2,0,1,1-3.66,1.613l-7.07-16.046a3.644,3.644,0,1,0-6.67,2.939q.03.069.055.14c.118.334,11.849,33.485,15.014,39.844,2.368,4.756,7.613,7.068,16.035,7.068,23.093,0,27.611-6.062,27.611-16.532v-31.918a3.644,3.644,0,1,0-7.288,0v14.7a2,2,0,0,1-4,0v-14.7a7.644,7.644,0,1,1,15.288,0v31.918a22.767,22.767,0,0,1-1.572,9,14.8,14.8,0,0,1-5.546,6.656C1708.668,3175.609,1700.885,3177.159,1689.123,3177.159Z" fill="#333"/>
      </g>
    </g>
  </g>
</svg>
