<svg xmlns="http://www.w3.org/2000/svg" width="82.98" height="43.879" viewBox="0 0 82.98 43.879">
  <g id="그룹_788" data-name="그룹 788" transform="translate(-1062.946 -559.875)">
    <path id="패스_686" data-name="패스 686" d="M1100.129,585.868a33.736,33.736,0,0,1-22.616,7.376,50.294,50.294,0,0,1,8.083-15.225c.526-.674,3.057-.46,3.057-.46s-.189-2.873.459-3.517a37.805,37.805,0,0,1,3.372-2.984c11.076-8.662,25.14-9.183,25.14-9.183-9.815,8.469-4.216,9.319-7.691,14.163-.706,1.037-5.131,2.448-5.131,2.448s1.538,2.194.845,2.936A55.508,55.508,0,0,1,1100.129,585.868Z" fill="#fff" stroke="#007dff" stroke-linejoin="round" stroke-width="4"/>
    <path id="패스_687" data-name="패스 687" d="M1097.568,577.593,1068,600.875s28.375,3.25,41.75-2.75,33.625,1.125,33.625,1.125" fill="none" stroke="#007dff" stroke-linecap="round" stroke-miterlimit="10" stroke-width="4"/>
  </g>
</svg>
