<svg xmlns="http://www.w3.org/2000/svg" width="206.7" height="59.192" viewBox="0 0 206.7 59.192">
  <g id="그룹_2646" data-name="그룹 2646" transform="translate(-730.95 -900.12)">
    <g id="그룹_2641" data-name="그룹 2641" transform="translate(730.95 900.12)">
      <path id="패스_1476" data-name="패스 1476" d="M1372.323,720.4a5.785,5.785,0,0,0-.765-1.237l-.747,1.237h-47.446v6.624h19.91v2.844c-6.492,1.237-11.377,5.254-11.377,12,0,8.1,7.172,12.3,15.715,12.3,8.467,0,15.639-4.271,15.639-12.3,0-6.624-4.63-10.64-10.943-11.944v-2.9h18.7a4.55,4.55,0,0,0,.359-.369,5.842,5.842,0,0,0,1.105-1.833,5.733,5.733,0,0,0,.369-2.023A5.849,5.849,0,0,0,1372.323,720.4Zm-17.973,21.469c0,3.894-2.788,5.5-6.737,5.5s-6.8-1.606-6.8-5.5,2.844-5.575,6.8-5.575S1354.349,737.969,1354.349,741.871Z" transform="translate(-1218.096 -694.982)" fill="#007dff"/>
      <path id="패스_1477" data-name="패스 1477" d="M1213.49,690.8v7.73H1203.1a15.231,15.231,0,0,0-12.18-5.377c-10.026,0-16.084,7.483-16.084,17.009s6,16.943,16.084,16.943a15.542,15.542,0,0,0,11.688-4.763h10.886v18.37h8.968V690.8ZM1190.916,720c-4.886,0-7.239-4.763-7.239-9.837,0-5.131,2.353-9.893,7.239-9.893s7.294,4.762,7.294,9.893C1198.21,715.24,1195.8,720,1190.916,720Zm22.574-4.763h-7.115a22.066,22.066,0,0,0,.623-5.074,21.334,21.334,0,0,0-.5-4.517h6.992Z" transform="translate(-1174.832 -686.721)" fill="#007dff"/>
      <path id="패스_1478" data-name="패스 1478" d="M1276.323,692.906h-11.377a5.792,5.792,0,0,0,1.833-4.224,5.719,5.719,0,0,0-1.295-3.638l-8.335,2.353a11.915,11.915,0,0,1,.681,3.156,4.831,4.831,0,0,1-.558,2.353h-9.827v6.3h3.09a12.634,12.634,0,0,0-1.116,5.509c0,7.909,5.377,11.935,12.493,11.935,6.87,0,12.436-4.082,12.436-11.935a12.631,12.631,0,0,0-1.181-5.509h3.156Zm-14.411,16.943c-2.9,0-4.763-1.852-4.763-5.131,0-3.156,1.862-5.074,4.763-5.074,2.967,0,4.706,1.918,4.706,5.074C1266.618,708,1264.879,709.849,1261.912,709.849Z" transform="translate(-1195.982 -685.044)" fill="#007dff"/>
      <path id="패스_1479" data-name="패스 1479" d="M1284.963,731.47c-8.533,0-15.7,5.009-15.7,13.173,0,8.108,7.172,13.116,15.7,13.116,8.476,0,15.648-5.074,15.648-13.116C1300.611,736.479,1293.562,731.47,1284.963,731.47Zm0,19.485c-3.959,0-6.737-2.41-6.737-6.312s2.778-6.3,6.737-6.3,6.681,2.409,6.681,6.3S1288.923,750.955,1284.963,750.955Z" transform="translate(-1202.336 -698.567)" fill="#007dff"/>
      <path id="패스_1480" data-name="패스 1480" d="M1302.089,701.689h-3.71V689.938h-7.916v27.769h7.916v-9.03h3.71v11.751h8.04v-30.49h-8.04Z" transform="translate(-1208.512 -686.47)" fill="#007dff"/>
      <path id="패스_1481" data-name="패스 1481" d="M1340.326,708.75h9.278c7.05,0,14.41-.495,19.852-2.412l-1.361-6.245c-5.875,1.793-12.617,2.164-18.059,2.164h-7.3c-1.423,0-1.917-.247-1.917-1.609v-4.267h27.151v-6.618h-36.057v12.308C1331.914,707.761,1335.564,708.75,1340.326,708.75Z" transform="translate(-1220.587 -686.419)" fill="#007dff"/>
      <path id="패스_1482" data-name="패스 1482" d="M1444.315,727.026a5.792,5.792,0,0,0,1.833-4.224,5.857,5.857,0,0,0-.52-2.4,5.745,5.745,0,0,0-.765-1.237l-.747,1.237h-46.142a5.755,5.755,0,0,1-1.3,6.624h19.91v2.844c-6.492,1.237-11.377,5.254-11.377,12,0,8.1,7.172,12.3,15.714,12.3,8.467,0,15.64-4.271,15.64-12.3,0-6.624-4.63-10.64-10.943-11.944v-2.9Zm-16.659,14.845c0,3.894-2.788,5.5-6.738,5.5s-6.8-1.606-6.8-5.5,2.844-5.575,6.8-5.575S1427.655,737.969,1427.655,741.871Z" transform="translate(-1239.448 -694.982)" fill="#007dff"/>
      <path id="패스_1483" data-name="패스 1483" d="M1413.632,708.75h9.277c7.05,0,14.411-.495,19.852-2.412l-1.361-6.245c-5.874,1.793-12.616,2.164-18.058,2.164h-7.3c-1.423,0-1.917-.247-1.917-1.609v-4.267h27.151v-6.618H1405.22v12.308C1405.22,707.761,1408.87,708.75,1413.632,708.75Z" transform="translate(-1241.939 -686.419)" fill="#007dff"/>
    </g>
  </g>
</svg>
