<svg xmlns="http://www.w3.org/2000/svg" xmlns:xlink="http://www.w3.org/1999/xlink" width="215.204" height="45.91" viewBox="0 0 215.204 45.91">
  <defs>
    <linearGradient id="linear-gradient" x1="0.245" y1="0.114" x2="0.852" y2="0.858" gradientUnits="objectBoundingBox">
      <stop offset="0" stop-color="#00d2ff"/>
      <stop offset="1" stop-color="#007dff"/>
    </linearGradient>
  </defs>
  <g id="그룹_123" data-name="그룹 123" transform="translate(-262.751 -10.234)">
    <g id="그룹_122" data-name="그룹 122" transform="translate(262.751 10.234)">
      <path id="패스_44" data-name="패스 44" d="M1095.288,1677.381a28.571,28.571,0,0,0-6.371-15.308,1.412,1.412,0,0,0-2.292.159l-10.619,17.487-18.2-16.376a1.414,1.414,0,0,0-1.51-.244,1.386,1.386,0,0,0-.835,1.268l0,23.7h-15.6c-.016,0-.029,0-.045,0a1.574,1.574,0,0,0-.157.014l-.076.011a1.425,1.425,0,0,0-.175.048c-.013,0-.028.006-.04.011a1.445,1.445,0,0,0-.2.093c-.021.011-.04.025-.06.037a1.512,1.512,0,0,0-.124.087c-.021.017-.042.035-.062.053s-.037.029-.054.046-.033.037-.049.055-.036.04-.054.062a1.384,1.384,0,0,0-.091.129c-.012.018-.025.035-.035.054a1.3,1.3,0,0,0-.094.2c-.005.014-.009.029-.014.044a1.271,1.271,0,0,0-.047.175c0,.01-.007.02-.008.029s0,.028,0,.043a1.512,1.512,0,0,0-.014.158c0,.025,0,.049,0,.074a1.3,1.3,0,0,0,.018.178c0,.014,0,.03.005.043a1.448,1.448,0,0,0,.053.2l.009.023,0,.006a28.465,28.465,0,0,0,4.005,7.458,29.16,29.16,0,0,0,13.332,9.973c.012,0,.025.006.037.01a1.394,1.394,0,0,0,.16.043c.022,0,.044.011.067.014a1.337,1.337,0,0,0,.227.02h0a1.373,1.373,0,0,0,.2-.016l.037-.006.034,0,28.823-5.7a1.331,1.331,0,0,0,.178-.052c.021-.007.042-.011.063-.018a1.426,1.426,0,0,0,.231-.115.128.128,0,0,1,.015-.012,1.4,1.4,0,0,0,.187-.142l.008-.007a28.968,28.968,0,0,0,5.178-6.367,28.568,28.568,0,0,0,4.089-14.75A28.873,28.873,0,0,0,1095.288,1677.381Zm-29.744,19.567-7.276-2.542,0-24.035c.916,3.2,2.057,6.324,3.281,9.432a86.192,86.192,0,0,0,6.45,13.106Zm2.89-4.761a87.515,87.515,0,0,0-4.281-13.4,97.3,97.3,0,0,0-4.8-10.3l15.181,13.663Zm-12.972-1.352v2.592l-7.423-2.592Zm-10.645,4.919a25.929,25.929,0,0,1-2.437-3.957l20.879,7.291-7.1,5.409A26.365,26.365,0,0,1,1044.818,1695.753Zm17.173,7.8,4.585-3.491,8.934.819-13.431,2.654Zm29.129-14.561a25.553,25.553,0,0,1-2.188,4.616,26.152,26.152,0,0,1-4.234,5.333l-16.193-1.484,1.406-2.315,18.045-29.715a25.782,25.782,0,0,1,4.541,12.231c.086.853.131,1.732.131,2.614A25.755,25.755,0,0,1,1091.12,1688.989Z" transform="translate(-1038.467 -1661.56)" fill="url(#linear-gradient)"/>
      <g id="그룹_84" data-name="그룹 84" transform="translate(66.533 3.891)">
        <path id="패스_45" data-name="패스 45" d="M1353.9,1704.2a4.183,4.183,0,0,0-.551-.89l-.537.89h-34.125v4.765h14.32v2.045c-4.67.891-8.183,3.778-8.183,8.632,0,5.825,5.159,8.849,11.3,8.849,6.09,0,11.248-3.072,11.248-8.849,0-4.765-3.33-7.653-7.87-8.591v-2.086h13.451a3.3,3.3,0,0,0,.258-.265,4.2,4.2,0,0,0,.8-1.319,4.13,4.13,0,0,0,.265-1.454A4.214,4.214,0,0,0,1353.9,1704.2Zm-12.928,15.442c0,2.8-2.005,3.955-4.846,3.955s-4.893-1.155-4.893-3.955,2.046-4.01,4.893-4.01S1340.977,1716.84,1340.977,1719.646Z" transform="translate(-1242.976 -1686.477)" fill="#007dff"/>
        <path id="패스_46" data-name="패스 46" d="M1197.963,1674.953v5.474h-7.476a11.028,11.028,0,0,0-8.76-3.807c-7.212,0-11.569,5.3-11.569,12.044s4.316,12,11.569,12a11.264,11.264,0,0,0,8.406-3.373h7.83V1710.3h6.45v-35.345Zm-16.236,20.678c-3.515,0-5.207-3.373-5.207-6.967,0-3.634,1.692-7.006,5.207-7.006s5.247,3.372,5.247,7.006C1186.973,1692.258,1185.24,1695.631,1181.727,1695.631Zm16.236-3.373h-5.117a15.408,15.408,0,0,0,.448-3.594,14.9,14.9,0,0,0-.36-3.2h5.029Z" transform="translate(-1170.158 -1672.017)" fill="#007dff"/>
        <path id="패스_47" data-name="패스 47" d="M1263.542,1674.849h-8.183a4.166,4.166,0,0,0,1.319-3.038,4.112,4.112,0,0,0-.931-2.617l-5.994,1.693a8.55,8.55,0,0,1,.489,2.27,3.479,3.479,0,0,1-.4,1.692h-7.069v4.533h2.223a9.087,9.087,0,0,0-.8,3.962c0,5.688,3.867,8.584,8.986,8.584,4.94,0,8.943-2.937,8.943-8.584a9.081,9.081,0,0,0-.85-3.962h2.27Zm-10.364,12.186c-2.088,0-3.426-1.332-3.426-3.69,0-2.27,1.338-3.649,3.426-3.649,2.133,0,3.384,1.379,3.384,3.649C1256.562,1685.7,1255.311,1687.035,1253.178,1687.035Z" transform="translate(-1205.756 -1669.194)" fill="#007dff"/>
        <path id="패스_48" data-name="패스 48" d="M1275.88,1715.62c-6.137,0-11.3,3.6-11.3,9.475,0,5.832,5.158,9.433,11.3,9.433,6.1,0,11.255-3.65,11.255-9.433C1287.135,1719.223,1282.065,1715.62,1275.88,1715.62Zm0,14.015c-2.848,0-4.846-1.734-4.846-4.54s2-4.533,4.846-4.533,4.806,1.733,4.806,4.533S1278.728,1729.635,1275.88,1729.635Z" transform="translate(-1216.45 -1692.51)" fill="#007dff"/>
        <path id="패스_49" data-name="패스 49" d="M1294.151,1682.54h-2.668v-8.452h-5.694v19.973h5.694v-6.495h2.668v8.452h5.783v-21.93h-5.783Z" transform="translate(-1226.845 -1671.594)" fill="#007dff"/>
        <path id="패스_50" data-name="패스 50" d="M1333.29,1687.57h6.673c5.071,0,10.364-.355,14.278-1.735l-.979-4.492a46.064,46.064,0,0,1-12.989,1.557h-5.25c-1.023,0-1.378-.178-1.378-1.156v-3.069h19.528v-4.76H1327.24v8.852C1327.24,1686.859,1329.865,1687.57,1333.29,1687.57Z" transform="translate(-1247.167 -1671.507)" fill="#007dff"/>
        <path id="패스_51" data-name="패스 51" d="M1426.266,1708.969a4.169,4.169,0,0,0,1.318-3.038,4.212,4.212,0,0,0-.373-1.727,4.113,4.113,0,0,0-.55-.89l-.537.89h-33.189a4.141,4.141,0,0,1-.937,4.765h14.32v2.045c-4.669.891-8.183,3.778-8.183,8.632,0,5.825,5.158,8.849,11.3,8.849,6.09,0,11.249-3.072,11.249-8.849,0-4.765-3.33-7.653-7.87-8.591v-2.086Zm-11.983,10.677c0,2.8-2,3.955-4.846,3.955s-4.893-1.155-4.893-3.955,2.046-4.01,4.893-4.01S1414.283,1716.84,1414.283,1719.646Z" transform="translate(-1278.913 -1686.477)" fill="#007dff"/>
        <path id="패스_52" data-name="패스 52" d="M1406.6,1687.57h6.672c5.071,0,10.365-.355,14.279-1.735l-.979-4.492a46.065,46.065,0,0,1-12.989,1.557h-5.25c-1.023,0-1.378-.178-1.378-1.156v-3.069h19.528v-4.76h-25.935v8.852C1400.546,1686.859,1403.171,1687.57,1406.6,1687.57Z" transform="translate(-1283.104 -1671.507)" fill="#007dff"/>
      </g>
    </g>
  </g>
</svg>
