<svg xmlns="http://www.w3.org/2000/svg" width="41.423" height="34.669" viewBox="0 0 41.423 34.669">
  <g id="그룹_5073" data-name="그룹 5073" transform="translate(-3953.428 -1589.522)">
    <path id="패스_2266" data-name="패스 2266" d="M3994.851,1589.921l-.5-.4.373.776Z" fill="#fff"/>
    <path id="패스_2267" data-name="패스 2267" d="M3992.221,1591.668a4.976,4.976,0,0,0,1.216,2.3l-.508-1.181c.773.647.953.365.919-.07l-.182.28c-.038-.154-.534-.556-.573-.71.72-.007-.188-1.059.925-.634l.058.093-.214-.715c.188.02.5.38.6.531-.155-.6-.383-1.166-.033-1.444-1.547-1.012.346,1.683-1.2.668l-.059-.092C3993.359,1591.467,3992.168,1591.013,3992.221,1591.668Z" fill="#fff"/>
    <path id="패스_2268" data-name="패스 2268" d="M3994.462,1591.557l.014.054C3994.514,1591.645,3994.5,1591.615,3994.462,1591.557Z" fill="#fff"/>
    <path id="패스_2269" data-name="패스 2269" d="M3980.253,1602.533l.2.212A.49.49,0,0,0,3980.253,1602.533Z" fill="#fff"/>
    <path id="패스_2270" data-name="패스 2270" d="M3986.654,1601.157l-.044-.005C3986.876,1601.456,3986.817,1601.373,3986.654,1601.157Z" fill="#fff"/>
    <path id="패스_2271" data-name="패스 2271" d="M3965.007,1610.164l.222-.372C3964.972,1610.086,3964.939,1610.172,3965.007,1610.164Z" fill="#fff"/>
    <path id="패스_2272" data-name="패스 2272" d="M3960.088,1604.779l-.022.006Z" fill="#fff"/>
    <path id="패스_2273" data-name="패스 2273" d="M3958.444,1611.115l-.25.271A1.033,1.033,0,0,0,3958.444,1611.115Z" fill="#fff"/>
    <path id="패스_2274" data-name="패스 2274" d="M3956.258,1609.975a.37.37,0,0,0-.015-.262C3956.129,1609.891,3956.153,1609.983,3956.258,1609.975Z" fill="#fff"/>
    <path id="패스_2275" data-name="패스 2275" d="M3960.247,1604.721a.667.667,0,0,1-.159.058A.449.449,0,0,0,3960.247,1604.721Z" fill="#fff"/>
    <path id="패스_2276" data-name="패스 2276" d="M3960.466,1614.1l-.617.747A7.53,7.53,0,0,0,3960.466,1614.1Z" fill="#fff"/>
    <path id="패스_2277" data-name="패스 2277" d="M3955.3,1610.107a.756.756,0,0,0,.155-.329C3955.342,1609.927,3955.268,1610.059,3955.3,1610.107Z" fill="#fff"/>
    <path id="패스_2278" data-name="패스 2278" d="M3991.937,1592.058a.368.368,0,0,0,.063-.264C3991.889,1591.808,3991.886,1591.911,3991.937,1592.058Z" fill="#fff"/>
    <path id="패스_2279" data-name="패스 2279" d="M3973.19,1620.416a3.014,3.014,0,0,0,.126.4A.526.526,0,0,0,3973.19,1620.416Z" fill="#fff"/>
    <path id="패스_2280" data-name="패스 2280" d="M3963.848,1618.5a.132.132,0,0,0-.045,0,.483.483,0,0,0-.078.139Z" fill="#fff"/>
    <path id="패스_2281" data-name="패스 2281" d="M3966.631,1621.059c-.034.056-.071.117-.111.185A.633.633,0,0,0,3966.631,1621.059Z" fill="#fff"/>
    <path id="패스_2282" data-name="패스 2282" d="M3961.919,1617.994a2.2,2.2,0,0,0-.289.176Z" fill="#fff"/>
    <path id="패스_2283" data-name="패스 2283" d="M3961.462,1616.13a2.173,2.173,0,0,1-.755.638c-.036.615.9-.133.617.756l.193-.475c.688-.3,1.154-.047.678.777l-.276.168c.727-.357.013.939.552.559.22-.373.47-.464.63-.86l1.032-.09-.882.953.552-.058c.235-.5.3.876,1.088-.067-.072.592-.71.681-1.147.956.494-.037.181.436.864.063q-.218.581-.4,1.2a9.159,9.159,0,0,0,1.115-.036c-.086.067-.084.182-.168.247.388-.292.5.018.679.275s.418.448.885-.255a.693.693,0,0,0-.085.183c.5-.767.71.36.856.777.359.046.367-1.175.495-1.723.636,1.048.533.842,1.132-.463a6.985,6.985,0,0,1-.1,2.446,3.6,3.6,0,0,0,0,2.1,1.754,1.754,0,0,1,.424-1.025,8.967,8.967,0,0,1,.438-1.158c.4.3,1.087.119,1.792.788l-.3-1.033q.213-.6.387-1.149.084.89.11,1.841c.009-.467.114-1.43.111-2.086.186-1.367,1.2,1.684,1.027-.186.067.078.13.155.187.233-.2-.825.307-.977.578-1.645.2.37.385.75.564,1.137l-.461.113c.835.806.417-.722.729-.946.034-.624-.781-1.181-.887-1.579.137-.067-.006-.424.281-.231.419.091,1.029.955,1.345,1.358-.747-.988-.588-.928-.644-1.584a2.332,2.332,0,0,1,.635.7,2.221,2.221,0,0,0-.515-.8l.595.369c1.056.33-1.258-1.889-.579-2.054.354.558.243-.471.918-.073,0,.281,1.327,1.14,1.76,1.729.639-.039-.887-1.114-.823-1.583l.967,1.144c-.213-.714-.515-.618-.589-1.211.237.372.4.154.593.648.443-.252.261-.251.684-.442l-1.009-1.019c-.018-.218.478.183.7.336-.022.062-.122.1.018.217,1.009.738-.314-.683.64-.036-.36-.279-.854-.679-.792-.867.593.65.776.366,1.051.613-.514-.337.064-.469-.607-1.148.616.306.454.527.79.866-.689-.9.384-.631.032-1.187l.157.136c-.339-.629-.21-1.006-.621-2l.493.68c.56-.068-1.064-1.392-.8-1.645.791.867.347-.5,1.174.519a8.392,8.392,0,0,0-1.022-1.8c.616.3.885,1.4,1.323,1.42l-.232-.651.494.4c-.335-.339-.175-.56-.452-.808.581.492,1.051.773,1.457,1.182-.031-.3.683.005.314-.576l.277.248c-.886-1.114.206-.627-.782-1.708l.652.46c.1-.312-1-1.3-1.161-1.641.042-.124.023-.344.2-.345.411.932.952.645,1.387.951.122-.094.345-.5-.088-1.089.412.65.928.988.745,1.27,1.15.861.1-.594.5-.723l.477.464c.045-.687-.766-1.49-1.437-2.451a5.545,5.545,0,0,1,1.247,1.393c.6.085.583-.7.925-.917a1.653,1.653,0,0,1,.787.88c-.172-.733.734-.563-.14-1.76.349.475.387.143.693.228a2.773,2.773,0,0,1-.433-.481c-.253-.59-.266-1.37.312-1.22l.234.372c.641-.321-.956-2.268.32-2.063.316.12.769.928.929.707-.294-.465-1.127-1.206-.667-1.241l.672.679-.53-.836c-.654-.461-.719.008-1.17-.8.854.4-.452-.805.562-.349a5.865,5.865,0,0,0,.694,1.028c1.354.217.086-1.437,1.5-1.176-.272-.81-.027-1.279-.342-1.962a12.447,12.447,0,0,1,1.7,1.914c.321-.158-1.122-1.766.05-.966-.828-1.021.05-1.25-1.214-2.577.278.247.262-.253.753.71-.114-.749,1.568.667,1.709.51.042-.124-.931-.708-.768-.926.079.03.218.154.3.183l-.237-.372c.377.214.572.713.908,1.051.54-.005-.329-1.182-.1-1.588l.177.276.363-.283.058.092-.211-.713.334.337c-.037-.153-.237-.373-.2-.5l.4.432c-.572-.712-.626-1.365-.485-1.523l.218.153-.509-1.181c.637.244.769,1.21.816.524l.767.926c-.075-.593.423-.191.308-.658-.517-.336-.579-.15-.871-.613,1.189.735.072-.583-.133-1.172-.081.122-.158.182.275.734-.121.094-.5-.4-.6-.371l.336.622-.633-.525.213.717c-.674-.68-.322.16-.951-.645.114.467-.482.1.051.936-.537-.275-.313-.683-.512-.618a3.246,3.246,0,0,1-1.979,2.486l-.237-.373c.237.373.394.714.572.994-.677-.4-1.871-.573-1,.6-.081-.031-.2-.218-.257-.311-.124.377-1.3.14-1.543.608.948,1.21-1.215-.109.147,1.468l-.235-.372c.534.273.865,1.174,1.183,1.578-1.07-.832-.752-.709-1.764-1.447l.478.18-.832-.738c1.615,2.447-1.774-.041-.554,1.69-.061-.093-.2-.215-.254-.307-.638-.244.25.87.386,1.274a4.248,4.248,0,0,1-.809-1.083c-.638.037-.095,1.654-1.09,1.414.414.652.771.646,1.048,1.176a1.354,1.354,0,0,1-.912-.771c-1.31-.64-.372,1.69-1.766,1.3.35.837.768.926.782,1.707-.3-.464-1.406-1.17-1.224-1.452l-.394-.434c-.461.319-1.124.7-.14,2.062-.89-.833-.238-.091-.855-.4.04.156.139.123.22.154.611.868-.242.19-.223.408l-.12-.186.272.809a2,2,0,0,1-.674-.4l.614.588c-.142.158-.852-.678-.876-.333l.5.4c-.4-.152.052.655-.64.038-.137-.122-.058-.092-.037-.155-1.113-.706-.168.781-.824.6l1.049.894c.094.529-.338-.057-.677-.4-.139.16-.5-.118-.8-.022.156.342.315.4.571.712l-.437-.026-.413-.652c1.139,1.7-.924.635.2,2.12-.4-.152-.493-.68-.73-.77-1-.239.143,1.744-.891,1.35-1.2-.173-1.067,1.072-2.086,1.176l.276.247-.6.194c.492.682-.046.688.486,1.525a8.359,8.359,0,0,1-.674-.68c-.081.251.034.718-.423.472l-.174-.277c-.525.221-1.046.728-.732,1.411-.062.189-.538-.275-.894-.552-.239.191-.1.595.148,1.183a3.08,3.08,0,0,1-.614-.3c.2.227.42.432.621.657-.113-.066-.526-.523-.695-.684.354.41.313.494.23.44s-.223-.232-.219-.19l.222.416c.138.363-.183-.212-.367-.676-.127-.254.03.093.12.563s.13,1.046,0,1.008c-.153-1.023-.142-.861-.161-.7s-.055.3-.081-.988v.144c-.027.326.019-.361-.1.9.019-.244.024-.348.033-.383.06-.9.014-.213-.174.251l.143-.639c-.33,1.36-.352.848-.881,2.011a6.313,6.313,0,0,1,.325-.695c.416-1.183-.307.463-.292.115.144-.27.291-.6.406-.8.246-.668.138-.459-.152-.361-.58-.191-1.218-.368-1.291-1.068-.183-.247-.817.973-1.033.628.348-.51,1-.729,1.008-1.089-.659.4-.6.243-.718.02.313-.251.472-.466.786-.538.253-.452-1.1.249-.59-.654a2.535,2.535,0,0,1-.626.5c-1.035.449.073-1.414-.367-1.028,0,0-.219.014-.22.193-.091-.123-.122-.4.32-.79-.283.171-.691.481-.817.437l.536-.445c-.153.057-.519.309-.627.322l-.222.373c.284-.529-.938.211.005-.717l.063.02.193-.652c-.471.286-.942.572-.968.289.911-1.03-.183-.6-.277-.9l.348-.329c-.626.318-.808-.286-.905-.047-.154-.145-.119-.583.257-.811-.313.071-.56-.2-1.188.3l.571-1.06c-1.351,1.059-.054-.922-1.344.34.063-.336.378-.588.507-.905-.816.437-.906.136-1-.166l.127-.137c-.092-.3-.967.111-1.309-.1l.914-1.031c-.282-.007-1.069.709-1,.369.117-.182.2-.2.288-.219-.329.06-.263-.371-.125-.712-.909.493-.811.075-1.75.648.693-1.018.623-.14,1.286-1.081.162-.753-.619-.577-1.367-.479a3.389,3.389,0,0,1,.564-.521,18.244,18.244,0,0,0-3.8,2.726c-.72.556-1.192.842-1.446,1.653.47-.286,1.189-.484.527.275l.691-.657c.686.058-1.353,1.418-.889,1.85l.128-.317c.124.044.625-.321.5-.005a1.321,1.321,0,0,1-.5.364l1.284-.542a3.985,3.985,0,0,1-.974.83c.37.311,1.164-1.3,1.315-.621-.221.372-.44.387-.721.558-.383.768.276.369.839.2-.6.6-.659.4-.881.953.283-.349.787-.9.973-.829-.668.547-.227.42-.258.7a2.137,2.137,0,0,1,.633-.567c.155-.035-.034.257.089.3l.445-.747c.782-.358.025.64-.072,1.058a.6.6,0,0,1-.3.15c-.077.416-.387,1.076.35.768l-.093.056c1-.191.883-1.132,1.913-1.222.03.281-2.044,1.9-.981,1.548a2.642,2.642,0,0,1,1.911-1.042l-1.379.958c.071.093.538-.089.465.074l.252-.273c.978-1.008.124.4.876-.054a19.2,19.2,0,0,0-2.671,2.217c.879-.593,1.725-1.108,1.847-.7l-1.255.824c.119.58,2.063-.54,3.223-1.125-.849.693-1.005,1.086-1.792,1.623l.5.175-.941.751c1.005-.73.561.016,1.662-1.13-.188.114-.314.25-.344.15.347-.331,1.1-.967,1.224-.744-.161.4-.5.366-.787.715.565-.342-.16.4.28.187l.379-.585c.723-.561.218.165.655-.043a2.694,2.694,0,0,0-1.083,1l.077-.092c.124.044.688-.3.373.132l-.972.829.783-.536a1.377,1.377,0,0,1-.6.6c-.165.932,1.919-1.942,1.6-.614-.348.331-.631.5-.566.165a2.6,2.6,0,0,0-.915,1.211l-.1.1A.879.879,0,0,0,3961.462,1616.13Z" fill="#fff"/>
    <path id="패스_2284" data-name="패스 2284" d="M3960.146,1615.9c-.133-.147-.254-.262-.428-.2C3959.569,1615.9,3959.59,1616.468,3960.146,1615.9Z" fill="#fff"/>
    <path id="패스_2285" data-name="패스 2285" d="M3985.178,1606.892a.891.891,0,0,0,.041.14Z" fill="#fff"/>
    <path id="패스_2286" data-name="패스 2286" d="M3985.991,1605.5a.757.757,0,0,0-.26-.136C3985.91,1605.533,3986.062,1605.65,3985.991,1605.5Z" fill="#fff"/>
    <path id="패스_2287" data-name="패스 2287" d="M3975.333,1617.754l0-.012Z" fill="#fff"/>
    <path id="패스_2288" data-name="패스 2288" d="M3981.767,1611.563a3.511,3.511,0,0,0-.64-.887C3981.14,1610.809,3981.3,1611.061,3981.767,1611.563Z" fill="#fff"/>
    <path id="패스_2289" data-name="패스 2289" d="M3979.317,1613.382l.1.173A.342.342,0,0,0,3979.317,1613.382Z" fill="#fff"/>
    <path id="패스_2290" data-name="패스 2290" d="M3975.461,1618.529c-.207-.383-.058-.5-.128-.775C3975.407,1618.005,3974.938,1617.9,3975.461,1618.529Z" fill="#fff"/>
    <path id="패스_2291" data-name="패스 2291" d="M3986.313,1603.152l.353.557-.215-.436Z" fill="#fff"/>
    <path id="패스_2292" data-name="패스 2292" d="M3985.6,1604.5c-.16-.063-.045.4.253.588A1.712,1.712,0,0,1,3985.6,1604.5Z" fill="#fff"/>
    <path id="패스_2293" data-name="패스 2293" d="M3981.278,1608.136l.455.524-.294-.464Z" fill="#fff"/>
  </g>
</svg>
