<svg xmlns="http://www.w3.org/2000/svg" width="1437.592" height="580.649" viewBox="0 0 1437.592 580.649">
  <g id="그룹_12351" data-name="그룹 12351" transform="translate(-237.27 -174.105)">
    <g id="그룹_5067" data-name="그룹 5067" transform="translate(-954.863 -1399.758)">
      <g id="그룹_5011" data-name="그룹 5011" transform="translate(-1246.945 948.318)">
        <path id="패스_2218" data-name="패스 2218" d="M2591.322,778.012c-2.22-1.27-5.826-.939-8.406-.49a21.871,21.871,0,0,0-3.948,1.088,25.665,25.665,0,0,1-3.986,1.5c-3.093.626-5.916-1.287-8.322-2.367-5.552-2.493-11.53-1.53-16.843.8-1.216.533-2.448,1.338-3.745,1.843a5.341,5.341,0,0,0-.656-.51c-1.453-.959-3.592-1-5.516-.776a27.379,27.379,0,0,0-7.933-1.55,25.094,25.094,0,0,0-9.3,1.45c-4.414-1.682-9.055-.7-13.225,1.406a29.933,29.933,0,0,1-3.867,2.088c-1.085.356-2.98-.823-3.957-1.225a22,22,0,0,0-7.649-1.857,18.075,18.075,0,0,0-12.626,4.3,4.422,4.422,0,0,0-.735.714c-.076.08-.156.157-.23.238a.911.911,0,0,0-.274.827,1.761,1.761,0,0,0,.677,1.605c1.48,1.347,3.885.616,5.653.2a22.868,22.868,0,0,1,8.633-.708c2.7.38,5.287,1.14,8,1.463a24.4,24.4,0,0,0,7.791-.424,54.916,54.916,0,0,1,7.844-1.448c2.906-.156,5.623.669,8.384,1.281a71.451,71.451,0,0,0,8.8,1.441c3.217.3,11.288.778,12.324-2.7,1.08-.1,2.159-.246,3.244-.435a72.311,72.311,0,0,1,9.05-1.447c3.351-.157,6.486.669,9.672,1.281a94.379,94.379,0,0,0,10.15,1.441c4.006.326,14.542.858,14.348-3.6A6.838,6.838,0,0,0,2591.322,778.012Z" fill="#007dff" stroke="#000" stroke-linecap="round" stroke-linejoin="round" stroke-width="2"/>
        <path id="패스_2219" data-name="패스 2219" d="M2552.67,781.2a7.6,7.6,0,0,0-1.166-4.928,6.482,6.482,0,0,0-2.428-1.771,34.194,34.194,0,0,0-5.6-2.169,11.1,11.1,0,0,0-6.226-.373c-3.4,1.012-5.764,5.73-4.242,9.568.588,1.482,2.018,2.6,3.412,2.283,1.165-.268,2.247-1.453,3.375-1.022,1,.38,1.326,1.769,1.977,2.714a3.055,3.055,0,0,0,3.067,1.331c.731-.15,1.671-.692,2.451-.439.946.307.9,1.481,1.487,2.168,1.331,1.554,2.61-.625,2.938-1.983A30.559,30.559,0,0,0,2552.67,781.2Z" fill="#fff" stroke="#000" stroke-linecap="round" stroke-linejoin="round" stroke-width="2"/>
        <path id="패스_2220" data-name="패스 2220" d="M2597.808,777.809a6.46,6.46,0,0,0-4.483-6.536,46.4,46.4,0,0,0-8.153-2.052c-2.531-.517-4.971-.482-7.23,1.575a2.553,2.553,0,0,0-.6.89,5.948,5.948,0,0,0-.69,7.149c2.107,3.347,4.584.02,6.955.251,1.182.115,1.139,1.344,1.891,2.463a3.347,3.347,0,0,0,2.951,1.514,4.2,4.2,0,0,0,1.544-.187c.465-.167,1.107-.906,1.566-.762.612.191,1.034.9,1.517,1.509-.082.373-.167.71-.226.962-.89,3.748,2.969,5.365,3.851,1.647a20.373,20.373,0,0,0,.558-4.686A13.205,13.205,0,0,0,2597.808,777.809Z" fill="#fff" stroke="#000" stroke-linecap="round" stroke-linejoin="round" stroke-width="2"/>
      </g>
      <g id="그룹_5012" data-name="그룹 5012" transform="translate(-1286.945 985.898)">
        <path id="패스_2218-2" data-name="패스 2218" d="M2591.322,778.012c-2.22-1.27-5.826-.939-8.406-.49a21.871,21.871,0,0,0-3.948,1.088,25.665,25.665,0,0,1-3.986,1.5c-3.093.626-5.916-1.287-8.322-2.367-5.552-2.493-11.53-1.53-16.843.8-1.216.533-2.448,1.338-3.745,1.843a5.341,5.341,0,0,0-.656-.51c-1.453-.959-3.592-1-5.516-.776a27.379,27.379,0,0,0-7.933-1.55,25.094,25.094,0,0,0-9.3,1.45c-4.414-1.682-9.055-.7-13.225,1.406a29.933,29.933,0,0,1-3.867,2.088c-1.085.356-2.98-.823-3.957-1.225a22,22,0,0,0-7.649-1.857,18.075,18.075,0,0,0-12.626,4.3,4.422,4.422,0,0,0-.735.714c-.076.08-.156.157-.23.238a.911.911,0,0,0-.274.827,1.761,1.761,0,0,0,.677,1.605c1.48,1.347,3.885.616,5.653.2a22.868,22.868,0,0,1,8.633-.708c2.7.38,5.287,1.14,8,1.463a24.4,24.4,0,0,0,7.791-.424,54.916,54.916,0,0,1,7.844-1.448c2.906-.156,5.623.669,8.384,1.281a71.451,71.451,0,0,0,8.8,1.441c3.217.3,11.288.778,12.324-2.7,1.08-.1,2.159-.246,3.244-.435a72.311,72.311,0,0,1,9.05-1.447c3.351-.157,6.486.669,9.672,1.281a94.379,94.379,0,0,0,10.15,1.441c4.006.326,14.542.858,14.348-3.6A6.838,6.838,0,0,0,2591.322,778.012Z" fill="#007dff" stroke="#000" stroke-linecap="round" stroke-linejoin="round" stroke-width="2"/>
        <path id="패스_2219-2" data-name="패스 2219" d="M2552.67,781.2a7.6,7.6,0,0,0-1.166-4.928,6.482,6.482,0,0,0-2.428-1.771,34.194,34.194,0,0,0-5.6-2.169,11.1,11.1,0,0,0-6.226-.373c-3.4,1.012-5.764,5.73-4.242,9.568.588,1.482,2.018,2.6,3.412,2.283,1.165-.268,2.247-1.453,3.375-1.022,1,.38,1.326,1.769,1.977,2.714a3.055,3.055,0,0,0,3.067,1.331c.731-.15,1.671-.692,2.451-.439.946.307.9,1.481,1.487,2.168,1.331,1.554,2.61-.625,2.938-1.983A30.559,30.559,0,0,0,2552.67,781.2Z" fill="#fff" stroke="#000" stroke-linecap="round" stroke-linejoin="round" stroke-width="2"/>
        <path id="패스_2220-2" data-name="패스 2220" d="M2597.808,777.809a6.46,6.46,0,0,0-4.483-6.536,46.4,46.4,0,0,0-8.153-2.052c-2.531-.517-4.971-.482-7.23,1.575a2.553,2.553,0,0,0-.6.89,5.948,5.948,0,0,0-.69,7.149c2.107,3.347,4.584.02,6.955.251,1.182.115,1.139,1.344,1.891,2.463a3.347,3.347,0,0,0,2.951,1.514,4.2,4.2,0,0,0,1.544-.187c.465-.167,1.107-.906,1.566-.762.612.191,1.034.9,1.517,1.509-.082.373-.167.71-.226.962-.89,3.748,2.969,5.365,3.851,1.647a20.373,20.373,0,0,0,.558-4.686A13.205,13.205,0,0,0,2597.808,777.809Z" fill="#fff" stroke="#000" stroke-linecap="round" stroke-linejoin="round" stroke-width="2"/>
      </g>
    </g>
    <g id="그룹_5039" data-name="그룹 5039" transform="translate(323 -1021.258)">
      <g id="그룹_5011-2" data-name="그룹 5011" transform="translate(-1246.945 948.318)">
        <path id="패스_2218-3" data-name="패스 2218" d="M2591.322,778.012c-2.22-1.27-5.826-.939-8.406-.49a21.871,21.871,0,0,0-3.948,1.088,25.665,25.665,0,0,1-3.986,1.5c-3.093.626-5.916-1.287-8.322-2.367-5.552-2.493-11.53-1.53-16.843.8-1.216.533-2.448,1.338-3.745,1.843a5.341,5.341,0,0,0-.656-.51c-1.453-.959-3.592-1-5.516-.776a27.379,27.379,0,0,0-7.933-1.55,25.094,25.094,0,0,0-9.3,1.45c-4.414-1.682-9.055-.7-13.225,1.406a29.933,29.933,0,0,1-3.867,2.088c-1.085.356-2.98-.823-3.957-1.225a22,22,0,0,0-7.649-1.857,18.075,18.075,0,0,0-12.626,4.3,4.422,4.422,0,0,0-.735.714c-.076.08-.156.157-.23.238a.911.911,0,0,0-.274.827,1.761,1.761,0,0,0,.677,1.605c1.48,1.347,3.885.616,5.653.2a22.868,22.868,0,0,1,8.633-.708c2.7.38,5.287,1.14,8,1.463a24.4,24.4,0,0,0,7.791-.424,54.916,54.916,0,0,1,7.844-1.448c2.906-.156,5.623.669,8.384,1.281a71.451,71.451,0,0,0,8.8,1.441c3.217.3,11.288.778,12.324-2.7,1.08-.1,2.159-.246,3.244-.435a72.311,72.311,0,0,1,9.05-1.447c3.351-.157,6.486.669,9.672,1.281a94.379,94.379,0,0,0,10.15,1.441c4.006.326,14.542.858,14.348-3.6A6.838,6.838,0,0,0,2591.322,778.012Z" fill="#007dff" stroke="#000" stroke-linecap="round" stroke-linejoin="round" stroke-width="2"/>
        <path id="패스_2219-3" data-name="패스 2219" d="M2552.67,781.2a7.6,7.6,0,0,0-1.166-4.928,6.482,6.482,0,0,0-2.428-1.771,34.194,34.194,0,0,0-5.6-2.169,11.1,11.1,0,0,0-6.226-.373c-3.4,1.012-5.764,5.73-4.242,9.568.588,1.482,2.018,2.6,3.412,2.283,1.165-.268,2.247-1.453,3.375-1.022,1,.38,1.326,1.769,1.977,2.714a3.055,3.055,0,0,0,3.067,1.331c.731-.15,1.671-.692,2.451-.439.946.307.9,1.481,1.487,2.168,1.331,1.554,2.61-.625,2.938-1.983A30.559,30.559,0,0,0,2552.67,781.2Z" fill="#fff" stroke="#000" stroke-linecap="round" stroke-linejoin="round" stroke-width="2"/>
        <path id="패스_2220-3" data-name="패스 2220" d="M2597.808,777.809a6.46,6.46,0,0,0-4.483-6.536,46.4,46.4,0,0,0-8.153-2.052c-2.531-.517-4.971-.482-7.23,1.575a2.553,2.553,0,0,0-.6.89,5.948,5.948,0,0,0-.69,7.149c2.107,3.347,4.584.02,6.955.251,1.182.115,1.139,1.344,1.891,2.463a3.347,3.347,0,0,0,2.951,1.514,4.2,4.2,0,0,0,1.544-.187c.465-.167,1.107-.906,1.566-.762.612.191,1.034.9,1.517,1.509-.082.373-.167.71-.226.962-.89,3.748,2.969,5.365,3.851,1.647a20.373,20.373,0,0,0,.558-4.686A13.205,13.205,0,0,0,2597.808,777.809Z" fill="#fff" stroke="#000" stroke-linecap="round" stroke-linejoin="round" stroke-width="2"/>
      </g>
      <g id="그룹_5012-2" data-name="그룹 5012" transform="translate(-1286.945 985.898)">
        <path id="패스_2218-4" data-name="패스 2218" d="M2591.322,778.012c-2.22-1.27-5.826-.939-8.406-.49a21.871,21.871,0,0,0-3.948,1.088,25.665,25.665,0,0,1-3.986,1.5c-3.093.626-5.916-1.287-8.322-2.367-5.552-2.493-11.53-1.53-16.843.8-1.216.533-2.448,1.338-3.745,1.843a5.341,5.341,0,0,0-.656-.51c-1.453-.959-3.592-1-5.516-.776a27.379,27.379,0,0,0-7.933-1.55,25.094,25.094,0,0,0-9.3,1.45c-4.414-1.682-9.055-.7-13.225,1.406a29.933,29.933,0,0,1-3.867,2.088c-1.085.356-2.98-.823-3.957-1.225a22,22,0,0,0-7.649-1.857,18.075,18.075,0,0,0-12.626,4.3,4.422,4.422,0,0,0-.735.714c-.076.08-.156.157-.23.238a.911.911,0,0,0-.274.827,1.761,1.761,0,0,0,.677,1.605c1.48,1.347,3.885.616,5.653.2a22.868,22.868,0,0,1,8.633-.708c2.7.38,5.287,1.14,8,1.463a24.4,24.4,0,0,0,7.791-.424,54.916,54.916,0,0,1,7.844-1.448c2.906-.156,5.623.669,8.384,1.281a71.451,71.451,0,0,0,8.8,1.441c3.217.3,11.288.778,12.324-2.7,1.08-.1,2.159-.246,3.244-.435a72.311,72.311,0,0,1,9.05-1.447c3.351-.157,6.486.669,9.672,1.281a94.379,94.379,0,0,0,10.15,1.441c4.006.326,14.542.858,14.348-3.6A6.838,6.838,0,0,0,2591.322,778.012Z" fill="#007dff" stroke="#000" stroke-linecap="round" stroke-linejoin="round" stroke-width="2"/>
        <path id="패스_2219-4" data-name="패스 2219" d="M2552.67,781.2a7.6,7.6,0,0,0-1.166-4.928,6.482,6.482,0,0,0-2.428-1.771,34.194,34.194,0,0,0-5.6-2.169,11.1,11.1,0,0,0-6.226-.373c-3.4,1.012-5.764,5.73-4.242,9.568.588,1.482,2.018,2.6,3.412,2.283,1.165-.268,2.247-1.453,3.375-1.022,1,.38,1.326,1.769,1.977,2.714a3.055,3.055,0,0,0,3.067,1.331c.731-.15,1.671-.692,2.451-.439.946.307.9,1.481,1.487,2.168,1.331,1.554,2.61-.625,2.938-1.983A30.559,30.559,0,0,0,2552.67,781.2Z" fill="#fff" stroke="#000" stroke-linecap="round" stroke-linejoin="round" stroke-width="2"/>
        <path id="패스_2220-4" data-name="패스 2220" d="M2597.808,777.809a6.46,6.46,0,0,0-4.483-6.536,46.4,46.4,0,0,0-8.153-2.052c-2.531-.517-4.971-.482-7.23,1.575a2.553,2.553,0,0,0-.6.89,5.948,5.948,0,0,0-.69,7.149c2.107,3.347,4.584.02,6.955.251,1.182.115,1.139,1.344,1.891,2.463a3.347,3.347,0,0,0,2.951,1.514,4.2,4.2,0,0,0,1.544-.187c.465-.167,1.107-.906,1.566-.762.612.191,1.034.9,1.517,1.509-.082.373-.167.71-.226.962-.89,3.748,2.969,5.365,3.851,1.647a20.373,20.373,0,0,0,.558-4.686A13.205,13.205,0,0,0,2597.808,777.809Z" fill="#fff" stroke="#000" stroke-linecap="round" stroke-linejoin="round" stroke-width="2"/>
      </g>
    </g>
    <g id="패스_2258" data-name="패스 2258" transform="translate(-1438.938 -245.518)" fill="#e9fffe" stroke-miterlimit="10">
      <path d="M 2509.54931640625 606.6245727539062 C 2502.291259765625 606.6245727539062 2495.180419921875 605.3028564453125 2488.41455078125 602.6962280273438 L 2488.05517578125 602.5577392578125 L 2487.69580078125 602.6961669921875 C 2480.928955078125 605.3028564453125 2473.81787109375 606.6245727539062 2466.56005859375 606.6245727539062 C 2461.072509765625 606.6245727539062 2455.64013671875 605.8694458007812 2450.413818359375 604.3801879882812 C 2445.349609375 602.9370727539062 2440.495849609375 600.8109741210938 2435.987060546875 598.0609741210938 C 2427.05908203125 592.6154174804688 2419.7197265625 584.8754272460938 2414.76220703125 575.677734375 L 2414.439453125 575.0789184570312 L 2413.763916015625 575.1591186523438 C 2411.360107421875 575.4447021484375 2409 575.5894775390625 2406.74951171875 575.5894775390625 C 2398.809326171875 575.5894775390625 2391.107177734375 574.03466796875 2383.857177734375 570.96826171875 C 2380.37255859375 569.4944458007812 2377.01171875 567.670166015625 2373.86767578125 565.5462036132812 C 2370.753173828125 563.4421997070312 2367.82470703125 561.0258178710938 2365.1630859375 558.3643188476562 C 2362.50146484375 555.7027587890625 2360.085205078125 552.774169921875 2357.981201171875 549.6597900390625 C 2355.857177734375 546.515869140625 2354.032958984375 543.1549682617188 2352.55908203125 539.6703491210938 C 2349.49267578125 532.4205932617188 2347.93798828125 524.71875 2347.93798828125 516.7788696289062 C 2347.93798828125 508.8387451171875 2349.49267578125 501.13671875 2352.55908203125 493.8867797851562 C 2354.032958984375 490.402099609375 2355.857177734375 487.0411071777344 2357.981201171875 483.8971252441406 C 2360.085205078125 480.7827453613281 2362.50146484375 477.8540649414062 2365.1630859375 475.1924743652344 C 2367.82470703125 472.5309143066406 2370.753173828125 470.1145324707031 2373.86767578125 468.010498046875 C 2377.01171875 465.886474609375 2380.37255859375 464.0622253417969 2383.857177734375 462.5883483886719 C 2391.107177734375 459.5219116210938 2398.809326171875 457.9671020507812 2406.74951171875 457.9671020507812 C 2411.03662109375 457.9671020507812 2415.318359375 458.4343566894531 2419.475341796875 459.3558654785156 C 2423.509033203125 460.2501220703125 2427.46630859375 461.5806274414062 2431.23681640625 463.3104248046875 L 2432.28466796875 463.7910766601562 L 2432.612548828125 462.6859130859375 C 2434.394775390625 456.6786804199219 2437.121337890625 451.0159912109375 2440.716064453125 445.8551025390625 C 2444.26171875 440.7650756835938 2448.566162109375 436.2834167480469 2453.510498046875 432.5346069335938 C 2458.509033203125 428.7445373535156 2464.03955078125 425.7975158691406 2469.948486328125 423.7752990722656 C 2476.060546875 421.68359375 2482.466796875 420.6229858398438 2488.9892578125 420.6229858398438 C 2495.68994140625 420.6229858398438 2502.261962890625 421.7404479980469 2508.52294921875 423.9443359375 C 2514.574462890625 426.0745544433594 2520.212646484375 429.1726684570312 2525.281005859375 433.1526184082031 C 2530.300048828125 437.093994140625 2534.62353515625 441.7914428710938 2538.131591796875 447.114501953125 C 2541.697021484375 452.5249328613281 2544.323486328125 458.4386901855469 2545.9375 464.69140625 L 2546.137451171875 465.46630859375 L 2546.9375 465.4409790039062 C 2547.072998046875 465.4366760253906 2547.208740234375 465.4320373535156 2547.34423828125 465.4273986816406 C 2547.8232421875 465.4110107421875 2548.318603515625 465.39404296875 2548.8017578125 465.39404296875 C 2556.74169921875 465.39404296875 2564.443603515625 466.9488525390625 2571.693359375 470.0152893066406 C 2575.177978515625 471.4891357421875 2578.5390625 473.3134155273438 2581.68310546875 475.4374389648438 C 2584.79736328125 477.5414733886719 2587.72607421875 479.9578552246094 2590.3876953125 482.6194458007812 C 2593.04931640625 485.281005859375 2595.465576171875 488.2096862792969 2597.56982421875 491.3240661621094 C 2599.69384765625 494.4681091308594 2601.51806640625 497.8291015625 2602.991943359375 501.3137512207031 C 2606.058349609375 508.5637512207031 2607.61328125 516.2658081054688 2607.61328125 524.2058715820312 C 2607.61328125 531.4252319335938 2606.320556640625 538.474609375 2603.77099609375 545.1581420898438 C 2601.307861328125 551.6148071289062 2597.748291015625 557.5446166992188 2593.190673828125 562.782958984375 C 2588.66064453125 567.989501953125 2583.31201171875 572.322509765625 2577.29296875 575.6617431640625 C 2571.130126953125 579.0806884765625 2564.471923828125 581.3383178710938 2557.503173828125 582.3718872070312 L 2557.093017578125 582.4327392578125 L 2556.84619140625 582.7660522460938 C 2554.1728515625 586.3766479492188 2551.082763671875 589.685302734375 2547.661376953125 592.6001586914062 C 2544.223388671875 595.5292358398438 2540.451171875 598.0603637695312 2536.449462890625 600.1232299804688 C 2532.3759765625 602.2232055664062 2528.05712890625 603.841064453125 2523.613037109375 604.9319458007812 C 2519.03759765625 606.0551147460938 2514.305908203125 606.6245727539062 2509.54931640625 606.6245727539062 Z" stroke="none"/>
      <path d="M 2488.9892578125 421.6229858398438 C 2482.5771484375 421.6229858398438 2476.27978515625 422.6654052734375 2470.272216796875 424.721435546875 C 2464.46435546875 426.7090454101562 2459.0283203125 429.6058959960938 2454.11474609375 433.3314208984375 C 2449.254150390625 437.016845703125 2445.022216796875 441.4227294921875 2441.53662109375 446.4266357421875 C 2438.0029296875 451.4996337890625 2435.322998046875 457.0657958984375 2433.5712890625 462.9703369140625 L 2432.915283203125 465.1806640625 L 2430.81982421875 464.2192993164062 C 2427.113525390625 462.5189208984375 2423.2236328125 461.2111206054688 2419.2587890625 460.3321533203125 C 2415.1728515625 459.4263305664062 2410.964111328125 458.9671020507812 2406.74951171875 458.9671020507812 C 2398.94384765625 458.9671020507812 2391.372802734375 460.4953002929688 2384.246826171875 463.5093383789062 C 2380.821533203125 464.9580688476562 2377.517822265625 466.751220703125 2374.427490234375 468.839111328125 C 2371.36572265625 470.9075317382812 2368.48681640625 473.282958984375 2365.8701171875 475.8995971679688 C 2363.253662109375 478.5161743164062 2360.878173828125 481.395263671875 2358.809814453125 484.4569091796875 C 2356.721923828125 487.5474243164062 2354.9287109375 490.8511352539062 2353.480224609375 494.2763061523438 C 2350.466064453125 501.40234375 2348.93798828125 508.9732666015625 2348.93798828125 516.7788696289062 C 2348.93798828125 524.584228515625 2350.466064453125 532.1549072265625 2353.47998046875 539.2808227539062 C 2354.9287109375 542.7059326171875 2356.721923828125 546.009521484375 2358.809814453125 549.0999755859375 C 2360.878173828125 552.16162109375 2363.253662109375 555.0406494140625 2365.8701171875 557.6571655273438 C 2368.486572265625 560.2737426757812 2371.36572265625 562.649169921875 2374.427490234375 564.717529296875 C 2377.517822265625 566.805419921875 2380.821533203125 568.5985717773438 2384.246826171875 570.0472412109375 C 2391.372802734375 573.061279296875 2398.94384765625 574.5894775390625 2406.74951171875 574.5894775390625 C 2408.9609375 574.5894775390625 2411.281005859375 574.447021484375 2413.64599609375 574.1661376953125 L 2414.996826171875 574.0056762695312 L 2415.642333984375 575.2032470703125 C 2420.515869140625 584.2451171875 2427.731201171875 591.8539428710938 2436.5078125 597.207275390625 C 2440.939453125 599.9102783203125 2445.71044921875 602.0000610351562 2450.68798828125 603.41845703125 C 2455.8251953125 604.88232421875 2461.165283203125 605.6245727539062 2466.56005859375 605.6245727539062 C 2473.6943359375 605.6245727539062 2480.6845703125 604.3253173828125 2487.336181640625 601.7630004882812 L 2488.05517578125 601.486083984375 L 2488.774169921875 601.7630615234375 C 2495.4248046875 604.3253173828125 2502.41455078125 605.6245727539062 2509.54931640625 605.6245727539062 C 2514.2255859375 605.6245727539062 2518.877197265625 605.0648193359375 2523.374755859375 603.9608154296875 C 2527.74267578125 602.8885498046875 2531.9873046875 601.2984008789062 2535.991455078125 599.234375 C 2539.925048828125 597.20654296875 2543.63330078125 594.7184448242188 2547.012939453125 591.8389892578125 C 2550.37646484375 588.973388671875 2553.41455078125 585.7205810546875 2556.04248046875 582.1710205078125 L 2556.5361328125 581.50439453125 L 2557.3564453125 581.3827514648438 C 2564.2060546875 580.3668212890625 2570.75048828125 578.1478271484375 2576.807861328125 574.787353515625 C 2582.724853515625 571.5046997070312 2587.98291015625 567.2449951171875 2592.436279296875 562.1265869140625 C 2596.91650390625 556.9771728515625 2600.41552734375 551.1482543945312 2602.836669921875 544.8016357421875 C 2605.342529296875 538.232421875 2606.61328125 531.302978515625 2606.61328125 524.205810546875 C 2606.61328125 516.4003295898438 2605.0849609375 508.829345703125 2602.071044921875 501.7033081054688 C 2600.622314453125 498.2781372070312 2598.8291015625 494.974365234375 2596.7412109375 491.8839111328125 C 2594.672607421875 488.822265625 2592.297119140625 485.943115234375 2589.6806640625 483.3265380859375 C 2587.06396484375 480.7099609375 2584.184814453125 478.33447265625 2581.123291015625 476.26611328125 C 2578.03271484375 474.17822265625 2574.72900390625 472.385009765625 2571.303955078125 470.936279296875 C 2564.177978515625 467.9223022460938 2556.607177734375 466.39404296875 2548.8017578125 466.39404296875 C 2548.335693359375 466.39404296875 2547.870849609375 466.4099731445312 2547.37841796875 466.4268188476562 C 2547.241943359375 466.4314575195312 2547.10546875 466.4361572265625 2546.968994140625 466.4404907226562 L 2545.369384765625 466.4911499023438 L 2544.96923828125 464.9413452148438 C 2543.3828125 458.795654296875 2540.80126953125 452.98291015625 2537.296630859375 447.6647338867188 C 2533.847900390625 442.4317626953125 2529.597412109375 437.8138427734375 2524.663330078125 433.9390869140625 C 2519.68115234375 430.0267944335938 2514.13916015625 426.9814453125 2508.19091796875 424.8875732421875 C 2502.036865234375 422.7213745117188 2495.57666015625 421.6229858398438 2488.9892578125 421.6229858398438 M 2488.9892578125 419.6229858398438 C 2516.845703125 419.6229858398438 2540.251953125 438.6652221679688 2546.90576171875 464.4414672851562 C 2547.5361328125 464.4215087890625 2548.16552734375 464.39404296875 2548.8017578125 464.39404296875 C 2581.83447265625 464.39404296875 2608.61328125 491.1721801757812 2608.61328125 524.205810546875 C 2608.61328125 554.2315063476562 2586.48583984375 579.0843505859375 2557.64990234375 583.361083984375 C 2546.7529296875 598.0790405273438 2529.26806640625 607.6245727539062 2509.54931640625 607.6245727539062 C 2501.970703125 607.6245727539062 2494.72802734375 606.2001953125 2488.05517578125 603.6292724609375 C 2481.38134765625 606.2001953125 2474.13916015625 607.6245727539062 2466.56005859375 607.6245727539062 C 2443.7822265625 607.6245727539062 2423.98095703125 594.8889770507812 2413.8818359375 576.1521606445312 C 2411.54150390625 576.43017578125 2409.16357421875 576.5894775390625 2406.74951171875 576.5894775390625 C 2373.71533203125 576.5894775390625 2346.93798828125 549.8114624023438 2346.93798828125 516.7788696289062 C 2346.93798828125 483.7452392578125 2373.71533203125 456.9671020507812 2406.74951171875 456.9671020507812 C 2415.64013671875 456.9671020507812 2424.06982421875 458.9222412109375 2431.65380859375 462.4014892578125 C 2438.99169921875 437.6695556640625 2461.87744140625 419.6229858398438 2488.9892578125 419.6229858398438 Z" stroke="none" fill="#000"/>
    </g>
  </g>
</svg>
