<svg xmlns="http://www.w3.org/2000/svg" width="152.723" height="97.61" viewBox="0 0 152.723 97.61">
  <g id="그룹_12346" data-name="그룹 12346" transform="translate(-271.191 -316.633)">
    <g id="그룹_12345" data-name="그룹 12345">
      <g id="그룹_12329" data-name="그룹 12329">
        <path id="패스_4075" data-name="패스 4075" d="M357.464,318.453a102.012,102.012,0,0,0-41.333,7.815c-8.3,5.712-13.053,12.249-14.13,19.433-.943,6.278,1.064,12.892,5.65,18.625,7.614,9.517,23.752,15.37,37.517,13.608,7.566-.966,18.029,4.539,27.247,9.4,7.684,4.051,14.946,7.872,18.513,6.89,8.442-2.328,26.514-14.129,31.028-22.658.947-5.1-2.42-12.879-9.265-21.387C400.611,335.165,378.176,318.833,357.464,318.453Z" fill="#edefeb"/>
      </g>
      <g id="그룹_12330" data-name="그룹 12330">
        <path id="패스_4076" data-name="패스 4076" d="M313.083,395.1c1.253-.952,2.083-4.129,2.163-8.294.122-6.353-1.57-14.417-4.614-16.916-.025-.021-.037-.05-.059-.072a31.3,31.3,0,0,1-4.33-4.365c-4.9-6.131-7.043-13.24-6.025-20.02.863-5.753,3.884-11.087,9-15.923-16.671,8.628-28.666,21.154-33.667,33.4-8.153,19.961,5.394,33.653,13.612,41.873C293,406.673,308.06,398.909,313.083,395.1Z" fill="#dee2d9"/>
      </g>
      <g id="그룹_12331" data-name="그룹 12331">
        <path id="패스_4077" data-name="패스 4077" d="M380.653,403.147a26.6,26.6,0,0,1,7.2-7.144c-4.238-.731-9.927-3.727-16.277-7.075-8.98-4.734-19.154-10.1-26.177-9.205a48.068,48.068,0,0,1-30.712-6.909,36.8,36.8,0,0,1,2.365,14.027c-.055,2.848-.5,7.893-2.877,9.7-3.055,2.317-14.786,9.191-21.9,10.183,6.428,2.537,18.674,1.568,29.7.684,5.471-.438,10.764-.861,15.2-.861a31.484,31.484,0,0,1,7.764.746,175.7,175.7,0,0,0,36.112,5.088C380.525,409.759,379.715,404.82,380.653,403.147Z" fill="#e5e8e0"/>
      </g>
      <g id="그룹_12332" data-name="그룹 12332">
        <path id="패스_4078" data-name="패스 4078" d="M392.6,395.59l-.011.006c-4.786,1.569-9.412,6.734-10.362,8.431-.492.877-.048,4.886.668,8.382,6.4.055,12.394-.467,17.007-1.914,12.809-4.019,17.839-19.273,21.124-34.412C414.4,384.1,400.494,392.932,392.6,395.59Z" fill="#e5e8e0"/>
      </g>
      <g id="그룹_12333" data-name="그룹 12333">
        <path id="패스_4079" data-name="패스 4079" d="M357.5,316.65q-1-.018-1.986-.017a103.315,103.315,0,0,0-39.763,7.85.892.892,0,0,0-.413.139c-.04.027-.078.056-.118.083-20.628,8.735-35.54,23.32-41.34,37.52-8.649,21.173,5.616,35.438,14.138,43.96,5.319,5.322,19.95,4.149,34.1,3.016,9.107-.729,17.705-1.416,22.353-.17a171.8,171.8,0,0,0,39.158,5.212c6.279,0,12.17-.571,16.815-2.027,14.993-4.705,19.872-23.208,23.266-40.18,1.125-5.62-2.379-14-9.611-22.988C401.762,333.719,378.789,317.041,357.5,316.65Zm-81.951,46.256c5-12.242,17-24.768,33.667-33.4-5.111,4.836-8.132,10.17-9,15.923-1.018,6.78,1.122,13.889,6.025,20.02a31.3,31.3,0,0,0,4.33,4.365c.022.022.034.051.059.072,3.044,2.5,4.736,10.563,4.614,16.916-.08,4.165-.91,7.342-2.163,8.294-5.023,3.809-20.08,11.573-23.925,9.679C280.94,396.559,267.393,382.867,275.546,362.906Zm61.626,43.637c-4.436,0-9.729.423-15.2.861-11.029.884-23.275,1.853-29.7-.684,7.117-.992,18.848-7.866,21.9-10.183,2.376-1.8,2.822-6.848,2.877-9.7a36.8,36.8,0,0,0-2.365-14.027,48.068,48.068,0,0,0,30.712,6.909c7.023-.9,17.2,4.471,26.177,9.205,6.35,3.348,12.039,6.344,16.277,7.075a26.6,26.6,0,0,0-7.2,7.144c-.938,1.673-.128,6.612.395,9.23a175.7,175.7,0,0,1-36.112-5.088A31.484,31.484,0,0,0,337.172,406.543Zm62.729,3.952c-4.613,1.447-10.606,1.969-17.007,1.914-.716-3.5-1.16-7.505-.668-8.382.95-1.7,5.576-6.862,10.362-8.431l.011-.006c7.895-2.658,21.8-11.488,28.426-19.507C417.74,391.222,412.71,406.476,399.9,410.495Zm22.055-38.93c-4.514,8.529-22.586,20.33-31.028,22.658-3.567.982-10.829-2.839-18.513-6.89-9.218-4.86-19.681-10.365-27.247-9.4-13.765,1.762-29.9-4.091-37.517-13.608-4.586-5.733-6.593-12.347-5.65-18.625,1.077-7.184,5.835-13.721,14.13-19.433a102.012,102.012,0,0,1,41.333-7.815c20.712.38,43.147,16.712,55.227,31.725C419.536,358.686,422.9,366.468,421.956,371.565Z"/>
      </g>
      <g id="그룹_12334" data-name="그룹 12334">
        <path id="패스_4080" data-name="패스 4080" d="M392.152,343.377c2.2.819,4.068,2.318,6.15,3.4a17.67,17.67,0,0,0,12.555,1.215c-12.423-14.369-33.685-29.173-53.393-29.535a102.7,102.7,0,0,0-35.058,5.437,8.787,8.787,0,0,0,5.711,6.919,14.091,14.091,0,0,0,9.88-.423c2.353-.9,4.828-2.258,7.241-1.531,2.58.778,3.875,3.565,5.081,5.976A47.075,47.075,0,0,0,360.2,348.08a8.086,8.086,0,0,0,3.072,2.039,7.423,7.423,0,0,0,3.693-.075,22.923,22.923,0,0,0,10.273-5.246,3.587,3.587,0,0,1,1.934-1.137c1.823-.155,3.161,2.608,4.889,2,.652-.228,1.041-.875,1.517-1.376C387.193,342.588,389.955,342.558,392.152,343.377Z" fill="#accc8f"/>
      </g>
      <g id="그룹_12335" data-name="그룹 12335">
        <path id="패스_4081" data-name="패스 4081" d="M290.106,363.385c1.114,1.113,2.519,1.924,3.528,3.134.978,1.172,1.548,2.68,2.7,3.688a5.954,5.954,0,0,0,6.582.4,11.557,11.557,0,0,0,4.162-4.182c-.284-.321-.565-.645-.83-.977-4.9-6.131-7.043-13.24-6.025-20.02a23.254,23.254,0,0,1,1.152-4.487c-5.192,1.845-10.257,5.861-12.1,8.862C286.7,353.973,286.646,359.927,290.106,363.385Z" fill="#abd680"/>
      </g>
      <g id="그룹_12336" data-name="그룹 12336">
        <path id="패스_4082" data-name="패스 4082" d="M310.124,362.162a14.59,14.59,0,0,0,1.534-1.027,4.859,4.859,0,0,0,1.124-1.94,26.448,26.448,0,0,0,1.315-13.311,6.373,6.373,0,0,0-.932-2.726c-2.244-3.167-5.846-3.7-9.611-2.846A21.681,21.681,0,0,0,302,345.7c-.943,6.278,1.064,12.892,5.65,18.625.124.154.267.3.395.45A7.768,7.768,0,0,1,310.124,362.162Z" fill="#abd680"/>
      </g>
      <g id="그룹_12337" data-name="그룹 12337">
        <path id="패스_4083" data-name="패스 4083" d="M367.969,343.39a3.091,3.091,0,0,0-.067-.5,2.172,2.172,0,0,0-.949-1.249,2.418,2.418,0,0,0-1.21-.315c-.085-.006-.17-.013-.255-.022a1.392,1.392,0,0,0-.288.011l.032,0a6.25,6.25,0,0,1-.876.052,2.18,2.18,0,0,0-1.247.349c-.091.058-.184.112-.279.164a1.558,1.558,0,0,0-.708.921,1.628,1.628,0,0,0,.155,1.188c.064.115.132.228.207.336a4.332,4.332,0,0,0,.331.432,1.6,1.6,0,0,0,.686.437,3.98,3.98,0,0,0,.482.175c.17.048.343.088.517.12.091.017.182.031.273.044l.573.077a1.382,1.382,0,0,0,.344-.038c.133-.018.264-.034.4-.057.082-.014.164-.031.245-.049l.082-.018.5-.211a2.181,2.181,0,0,0,.618-.565,1.036,1.036,0,0,0,.264-.455,1.554,1.554,0,0,0,.178-.793C367.972,343.411,367.97,343.4,367.969,343.39Z" fill="#abd680"/>
      </g>
      <g id="그룹_12338" data-name="그룹 12338">
        <path id="패스_4084" data-name="패스 4084" d="M376.417,339.153a1.367,1.367,0,0,0-.247-.474c-.047-.06-.085-.112-.132-.166l-.08-.09a.612.612,0,0,0-.167-.135,1.2,1.2,0,0,0-.161-.122.574.574,0,0,0-.189-.083.816.816,0,0,0-.206-.083l-.134-.035-.548-.147-.393-.053a1.116,1.116,0,0,0-.57.128.718.718,0,0,0-.233.136,1.176,1.176,0,0,0-.429.266,1.2,1.2,0,0,0-.309.528,1.173,1.173,0,0,0,.278,1.126,1.134,1.134,0,0,0,.1.192.748.748,0,0,0,.265.265,1.117,1.117,0,0,0,.5.265l.549.146a1.744,1.744,0,0,0,.989.038l.114-.038.05-.016a1.018,1.018,0,0,0,.459-.242,1.521,1.521,0,0,0,.149-.116A1.3,1.3,0,0,0,376.417,339.153Z" fill="#abd680"/>
      </g>
      <g id="그룹_12339" data-name="그룹 12339">
        <path id="패스_4085" data-name="패스 4085" d="M337.869,325.5a7.726,7.726,0,0,0-.819-.594,3.1,3.1,0,0,0-1.119-.33c-.4-.07-.808-.092-1.214-.122a4.132,4.132,0,0,0-1.17.132,1.511,1.511,0,0,0-1.108,1.285,1.479,1.479,0,0,0,.105.8,1.4,1.4,0,0,0,.633.739l.354.151a3.427,3.427,0,0,0,.509.2,5.675,5.675,0,0,0,.6.079c.277.033.557.084.836.1a3.462,3.462,0,0,0,1.188-.08,6.634,6.634,0,0,0,.954-.415A1.243,1.243,0,0,0,337.869,325.5Z" fill="#abd680"/>
      </g>
      <g id="그룹_12340" data-name="그룹 12340">
        <path id="패스_4086" data-name="패스 4086" d="M358.607,372.029a3.269,3.269,0,0,0-.433-.6,1.414,1.414,0,0,0-.287-.23,1.618,1.618,0,0,0-.354-.148,2.242,2.242,0,0,0-.5-.054,3.315,3.315,0,0,0-.345.01,2.045,2.045,0,0,0-.922.226,2.875,2.875,0,0,0-.468.382,4.25,4.25,0,0,0-.536.654.886.886,0,0,0,0,.9.9.9,0,0,0,.77.441c.083,0,.166.011.248.018s.161.028.239.05a1.533,1.533,0,0,0,.249.045c.073.013.146.022.22.028l.362-.049h.005a3.7,3.7,0,0,0,.676-.069,1.59,1.59,0,0,0,.673-.4c.036-.024.07-.051.106-.073A.841.841,0,0,0,358.607,372.029Z" fill="#accc8f"/>
      </g>
      <g id="그룹_12341" data-name="그룹 12341">
        <path id="패스_4087" data-name="패스 4087" d="M383.727,385.644c-.026-.07-.052-.141-.079-.211s-.062-.161-.1-.242a1.044,1.044,0,0,0-.27-.41l-.055-.048-.4-.355-.247-.191a.9.9,0,0,0-.454-.145.618.618,0,0,0-.325,0,.9.9,0,0,0-.454.145,1.072,1.072,0,0,0-.37.342l-.014.021-.006.01-.046.06c-.045.1-.086.2-.125.3a1.221,1.221,0,0,0,.314,1.188l.4.355a2.7,2.7,0,0,0,.321.255,1.094,1.094,0,0,0,.4.147c.078.018.157.037.236.054a1.044,1.044,0,0,0,.549,0,1.034,1.034,0,0,0,.722-.721A1.047,1.047,0,0,0,383.727,385.644Z" fill="#accc8f"/>
      </g>
      <g id="그룹_12342" data-name="그룹 12342">
        <path id="패스_4088" data-name="패스 4088" d="M363.186,375.974l-.11-.145a3.24,3.24,0,0,0-.269-.344,1.567,1.567,0,0,0-.361-.266l-.366-.2-.1-.051a1.177,1.177,0,0,0-.2-.089.791.791,0,0,0-.206-.082c-.069-.018-.139-.03-.209-.045l-.416-.09-.35-.047a.992.992,0,0,0-.506.113.66.66,0,0,0-.29.169,1,1,0,0,0-.339.369l-.132.314c-.016.117-.032.233-.047.35a1.459,1.459,0,0,0,.385.929l.314.266.157.133a2.181,2.181,0,0,0,.351.262c.032.017.066.03.1.044l.382.172a4.339,4.339,0,0,0,.4.172,1.467,1.467,0,0,0,.471.058l.194,0a1.339,1.339,0,0,0,1.143-.656,1.323,1.323,0,0,0,0-1.336Z" fill="#accc8f"/>
      </g>
      <g id="그룹_12343" data-name="그룹 12343">
        <path id="패스_4089" data-name="패스 4089" d="M293.872,403.677a10.327,10.327,0,0,1-7.388-3.606,28.553,28.553,0,0,1-4.294-6.884.9.9,0,1,1,1.615-.8,27.2,27.2,0,0,0,4,6.463,8.438,8.438,0,0,0,6.21,3.023.928.928,0,0,1,.923.88.9.9,0,0,1-.879.923Z"/>
      </g>
      <g id="그룹_12344" data-name="그룹 12344">
        <path id="패스_4090" data-name="패스 4090" d="M294.368,399.974a10.758,10.758,0,0,1-2.233-.234.9.9,0,0,1-.7-1.068.889.889,0,0,1,1.068-.7,9.048,9.048,0,0,0,2.641.16.9.9,0,1,1,.157,1.8Q294.838,399.973,294.368,399.974Z"/>
      </g>
    </g>
  </g>
</svg>
