<svg xmlns="http://www.w3.org/2000/svg" width="152.723" height="150.159" viewBox="0 0 152.723 150.159">
  <g id="그룹_12328" data-name="그룹 12328" transform="translate(-457.094 -264.084)">
    <g id="그룹_12309" data-name="그룹 12309">
      <g id="그룹_12293" data-name="그룹 12293">
        <path id="패스_4041" data-name="패스 4041" d="M543.367,318.453a102.012,102.012,0,0,0-41.333,7.815c-8.295,5.712-13.053,12.249-14.13,19.433-.943,6.278,1.065,12.892,5.651,18.625,7.613,9.517,23.751,15.37,37.516,13.608,7.567-.966,18.029,4.539,27.247,9.4,7.684,4.051,14.946,7.872,18.514,6.89,8.441-2.328,26.514-14.129,31.027-22.658.948-5.1-2.419-12.879-9.265-21.387C586.514,335.165,564.079,318.833,543.367,318.453Z" fill="#edefeb"/>
      </g>
      <g id="그룹_12294" data-name="그룹 12294">
        <path id="패스_4042" data-name="패스 4042" d="M498.986,395.1c1.254-.952,2.083-4.129,2.163-8.294.122-6.353-1.57-14.417-4.614-16.916-.025-.021-.036-.05-.059-.072a31.354,31.354,0,0,1-4.33-4.365c-4.9-6.131-7.043-13.24-6.025-20.02.864-5.753,3.885-11.087,8.995-15.923-16.671,8.628-28.666,21.154-33.667,33.4-8.152,19.961,5.394,33.653,13.613,41.873C478.906,406.673,493.964,398.909,498.986,395.1Z" fill="#dee2d9"/>
      </g>
      <g id="그룹_12295" data-name="그룹 12295">
        <path id="패스_4043" data-name="패스 4043" d="M566.556,403.147a26.612,26.612,0,0,1,7.2-7.144c-4.238-.731-9.926-3.727-16.277-7.075-8.979-4.734-19.154-10.1-26.177-9.205a48.067,48.067,0,0,1-30.711-6.909,36.817,36.817,0,0,1,2.364,14.027c-.055,2.848-.5,7.893-2.877,9.7-3.054,2.317-14.786,9.191-21.9,10.183,6.429,2.537,18.675,1.568,29.7.684,5.472-.438,10.764-.861,15.2-.861a31.483,31.483,0,0,1,7.764.746,175.709,175.709,0,0,0,36.112,5.088C566.429,409.759,565.619,404.82,566.556,403.147Z" fill="#e5e8e0"/>
      </g>
      <g id="그룹_12296" data-name="그룹 12296">
        <path id="패스_4044" data-name="패스 4044" d="M578.5,395.59l-.011.006c-4.785,1.569-9.411,6.734-10.362,8.431-.491.877-.048,4.886.668,8.382,6.4.055,12.4-.467,17.007-1.914,12.809-4.019,17.839-19.273,21.124-34.412C600.3,384.1,586.4,392.932,578.5,395.59Z" fill="#e5e8e0"/>
      </g>
      <g id="그룹_12297" data-name="그룹 12297">
        <path id="패스_4045" data-name="패스 4045" d="M543.4,316.65q-1-.018-1.986-.017a103.323,103.323,0,0,0-39.763,7.85.884.884,0,0,0-.412.139c-.041.027-.079.056-.119.083-20.627,8.735-35.54,23.32-41.34,37.52-8.648,21.173,5.616,35.438,14.138,43.96,5.32,5.322,19.95,4.149,34.1,3.016,9.106-.729,17.7-1.416,22.353-.17a171.785,171.785,0,0,0,39.157,5.212c6.279,0,12.17-.571,16.815-2.027,14.993-4.705,19.872-23.208,23.267-40.18,1.124-5.62-2.38-14-9.612-22.988C587.665,333.719,564.692,317.041,543.4,316.65Zm-81.951,46.256c5-12.242,17-24.768,33.667-33.4-5.11,4.836-8.131,10.17-8.995,15.923-1.018,6.78,1.122,13.889,6.025,20.02a31.354,31.354,0,0,0,4.33,4.365c.023.022.034.051.059.072,3.044,2.5,4.736,10.563,4.614,16.916-.08,4.165-.909,7.342-2.163,8.294-5.022,3.809-20.08,11.573-23.924,9.679C466.843,396.559,453.3,382.867,461.449,362.906Zm61.626,43.637c-4.436,0-9.728.423-15.2.861-11.028.884-23.274,1.853-29.7-.684,7.117-.992,18.849-7.866,21.9-10.183,2.376-1.8,2.822-6.848,2.877-9.7a36.817,36.817,0,0,0-2.364-14.027,48.067,48.067,0,0,0,30.711,6.909c7.023-.9,17.2,4.471,26.177,9.205,6.351,3.348,12.039,6.344,16.277,7.075a26.612,26.612,0,0,0-7.2,7.144c-.937,1.673-.127,6.612.395,9.23a175.709,175.709,0,0,1-36.112-5.088A31.483,31.483,0,0,0,523.075,406.543Zm62.729,3.952c-4.612,1.447-10.606,1.969-17.007,1.914-.716-3.5-1.159-7.505-.668-8.382.951-1.7,5.577-6.862,10.362-8.431l.011-.006c7.895-2.658,21.8-11.488,28.426-19.507C603.643,391.222,598.613,406.476,585.8,410.495Zm22.055-38.93c-4.513,8.529-22.586,20.33-31.027,22.658-3.568.982-10.83-2.839-18.514-6.89-9.218-4.86-19.68-10.365-27.247-9.4-13.765,1.762-29.9-4.091-37.516-13.608-4.586-5.733-6.594-12.347-5.651-18.625,1.077-7.184,5.835-13.721,14.13-19.433a102.012,102.012,0,0,1,41.333-7.815c20.712.38,43.147,16.712,55.227,31.725C605.44,358.686,608.807,366.468,607.859,371.565Z"/>
      </g>
      <g id="그룹_12298" data-name="그룹 12298">
        <path id="패스_4046" data-name="패스 4046" d="M578.056,343.377c2.2.819,4.067,2.318,6.15,3.4a17.667,17.667,0,0,0,12.554,1.215c-12.422-14.369-33.684-29.173-53.393-29.535a102.7,102.7,0,0,0-35.058,5.437,8.786,8.786,0,0,0,5.712,6.919,14.089,14.089,0,0,0,9.879-.423c2.353-.9,4.829-2.258,7.241-1.531,2.58.778,3.875,3.565,5.081,5.976A47.094,47.094,0,0,0,546.1,348.08a8.086,8.086,0,0,0,3.072,2.039,7.423,7.423,0,0,0,3.693-.075,22.922,22.922,0,0,0,10.273-5.246,3.591,3.591,0,0,1,1.934-1.137c1.824-.155,3.161,2.608,4.889,2,.652-.228,1.041-.875,1.517-1.376C573.1,342.588,575.858,342.558,578.056,343.377Z" fill="#accc8f"/>
      </g>
      <g id="그룹_12299" data-name="그룹 12299">
        <path id="패스_4047" data-name="패스 4047" d="M476.009,363.385c1.114,1.113,2.519,1.924,3.528,3.134.978,1.172,1.548,2.68,2.7,3.688a5.954,5.954,0,0,0,6.582.4,11.549,11.549,0,0,0,4.162-4.182c-.284-.321-.564-.645-.83-.977-4.9-6.131-7.043-13.24-6.025-20.02a23.325,23.325,0,0,1,1.152-4.487c-5.192,1.845-10.256,5.861-12.105,8.862C472.6,353.973,472.549,359.927,476.009,363.385Z" fill="#abd680"/>
      </g>
      <g id="그룹_12300" data-name="그룹 12300">
        <path id="패스_4048" data-name="패스 4048" d="M496.027,362.162a14.59,14.59,0,0,0,1.534-1.027,4.859,4.859,0,0,0,1.124-1.94A26.448,26.448,0,0,0,500,345.884a6.36,6.36,0,0,0-.932-2.726c-2.244-3.167-5.846-3.7-9.611-2.846A21.68,21.68,0,0,0,487.9,345.7c-.943,6.278,1.065,12.892,5.651,18.625.123.154.267.3.394.45A7.767,7.767,0,0,1,496.027,362.162Z" fill="#abd680"/>
      </g>
      <g id="그룹_12301" data-name="그룹 12301">
        <path id="패스_4049" data-name="패스 4049" d="M553.873,343.39a3.086,3.086,0,0,0-.068-.5,2.172,2.172,0,0,0-.949-1.249,2.414,2.414,0,0,0-1.209-.315c-.086-.006-.171-.013-.256-.022a1.394,1.394,0,0,0-.288.011l.033,0a6.265,6.265,0,0,1-.877.052,2.174,2.174,0,0,0-1.246.349c-.091.058-.185.112-.28.164a1.558,1.558,0,0,0-.708.921,1.633,1.633,0,0,0,.155,1.188c.064.115.132.228.207.336a4.332,4.332,0,0,0,.331.432,1.6,1.6,0,0,0,.686.437,3.982,3.982,0,0,0,.482.175q.257.072.517.12c.091.017.182.031.273.044l.573.077a1.382,1.382,0,0,0,.344-.038c.133-.018.264-.034.4-.057.082-.014.164-.031.245-.049l.082-.018.5-.211a2.181,2.181,0,0,0,.618-.565,1.038,1.038,0,0,0,.265-.455,1.543,1.543,0,0,0,.177-.793C553.876,343.411,553.873,343.4,553.873,343.39Z" fill="#abd680"/>
      </g>
      <g id="그룹_12302" data-name="그룹 12302">
        <path id="패스_4050" data-name="패스 4050" d="M562.32,339.153a1.35,1.35,0,0,0-.247-.474c-.047-.06-.085-.112-.132-.166l-.08-.09a.608.608,0,0,0-.166-.135,1.266,1.266,0,0,0-.161-.122.588.588,0,0,0-.19-.083.815.815,0,0,0-.206-.083l-.133-.035-.549-.147-.393-.053a1.116,1.116,0,0,0-.57.128.728.728,0,0,0-.233.136,1.176,1.176,0,0,0-.429.266,1.193,1.193,0,0,0-.308.528,1.208,1.208,0,0,0,0,.637,1.188,1.188,0,0,0,.278.489,1.127,1.127,0,0,0,.1.192.75.75,0,0,0,.266.265,1.107,1.107,0,0,0,.5.265l.548.146a1.748,1.748,0,0,0,.99.038l.113-.038.05-.016a1.027,1.027,0,0,0,.46-.242,1.635,1.635,0,0,0,.148-.116A1.3,1.3,0,0,0,562.32,339.153Z" fill="#abd680"/>
      </g>
      <g id="그룹_12303" data-name="그룹 12303">
        <path id="패스_4051" data-name="패스 4051" d="M523.772,325.5a7.815,7.815,0,0,0-.818-.594,3.1,3.1,0,0,0-1.119-.33c-.4-.07-.809-.092-1.214-.122a4.134,4.134,0,0,0-1.171.132,1.511,1.511,0,0,0-1.108,1.285,1.479,1.479,0,0,0,.105.8,1.407,1.407,0,0,0,.633.739l.354.151a3.428,3.428,0,0,0,.509.2,5.709,5.709,0,0,0,.6.079c.277.033.557.084.836.1a3.462,3.462,0,0,0,1.188-.08,6.585,6.585,0,0,0,.954-.415A1.243,1.243,0,0,0,523.772,325.5Z" fill="#abd680"/>
      </g>
      <g id="그룹_12304" data-name="그룹 12304">
        <path id="패스_4052" data-name="패스 4052" d="M544.51,372.029a3.266,3.266,0,0,0-.432-.6,1.419,1.419,0,0,0-.288-.23,1.617,1.617,0,0,0-.354-.148,2.242,2.242,0,0,0-.5-.054,3.287,3.287,0,0,0-.344.01,2.039,2.039,0,0,0-.922.226,2.792,2.792,0,0,0-.468.382,4.26,4.26,0,0,0-.537.654.887.887,0,0,0,0,.9.9.9,0,0,0,.771.441c.083,0,.165.011.247.018s.161.028.24.05a1.5,1.5,0,0,0,.248.045c.073.013.146.022.22.028l.362-.049h.006a3.686,3.686,0,0,0,.675-.069,1.584,1.584,0,0,0,.673-.4c.036-.024.07-.051.107-.073A.841.841,0,0,0,544.51,372.029Z" fill="#accc8f"/>
      </g>
      <g id="그룹_12305" data-name="그룹 12305">
        <path id="패스_4053" data-name="패스 4053" d="M569.63,385.644l-.078-.211c-.031-.082-.063-.161-.1-.242a1.066,1.066,0,0,0-.27-.41l-.056-.048q-.2-.178-.4-.355l-.247-.191a.9.9,0,0,0-.454-.145.614.614,0,0,0-.324,0,.9.9,0,0,0-.454.145,1.075,1.075,0,0,0-.371.342l-.014.021-.006.01-.046.06c-.044.1-.086.2-.124.3a1.233,1.233,0,0,0,0,.649,1.211,1.211,0,0,0,.314.539q.2.178.4.355a2.785,2.785,0,0,0,.321.255,1.1,1.1,0,0,0,.4.147c.079.018.157.037.236.054a1.044,1.044,0,0,0,.549,0,1.034,1.034,0,0,0,.722-.721A1.047,1.047,0,0,0,569.63,385.644Z" fill="#accc8f"/>
      </g>
      <g id="그룹_12306" data-name="그룹 12306">
        <path id="패스_4054" data-name="패스 4054" d="M549.089,375.974l-.11-.145a3,3,0,0,0-.269-.344,1.567,1.567,0,0,0-.361-.266l-.366-.2-.095-.051a1.154,1.154,0,0,0-.2-.089.778.778,0,0,0-.206-.082c-.069-.018-.139-.03-.208-.045l-.417-.09-.349-.047a.994.994,0,0,0-.507.113.66.66,0,0,0-.29.169.992.992,0,0,0-.338.369c-.045.1-.089.209-.133.314-.016.117-.031.233-.047.35a1.459,1.459,0,0,0,.385.929l.314.266.157.133a2.183,2.183,0,0,0,.351.262c.032.017.066.03.1.044l.382.172a4.356,4.356,0,0,0,.4.172,1.458,1.458,0,0,0,.47.058l.194,0a1.338,1.338,0,0,0,1.143-.656,1.323,1.323,0,0,0,0-1.336Z" fill="#accc8f"/>
      </g>
      <g id="그룹_12307" data-name="그룹 12307">
        <path id="패스_4055" data-name="패스 4055" d="M479.775,403.677a10.327,10.327,0,0,1-7.388-3.606,28.553,28.553,0,0,1-4.294-6.884.9.9,0,1,1,1.615-.8,27.2,27.2,0,0,0,4,6.463,8.439,8.439,0,0,0,6.21,3.023.927.927,0,0,1,.923.88.9.9,0,0,1-.879.923C479.9,403.676,479.839,403.677,479.775,403.677Z"/>
      </g>
      <g id="그룹_12308" data-name="그룹 12308">
        <path id="패스_4056" data-name="패스 4056" d="M480.272,399.974a10.768,10.768,0,0,1-2.234-.234.9.9,0,0,1-.7-1.068.89.89,0,0,1,1.068-.7,9.05,9.05,0,0,0,2.641.16.9.9,0,0,1,.158,1.8Q480.741,399.973,480.272,399.974Z"/>
      </g>
    </g>
    <g id="그룹_12327" data-name="그룹 12327">
      <g id="그룹_12310" data-name="그룹 12310">
        <path id="패스_4057" data-name="패스 4057" d="M574.513,358.034c.817-.455,1.6-5.376,2.029-8.021a28.591,28.591,0,0,1,1.108-5.268c.936-2.1,2.078-15.659.11-18.066a39.244,39.244,0,0,1-2.436-3.626c-2.059-3.285-4.865-7.755-8-9.671l-.18,0c-10.186,0-28.525-9.237-30.775-10.928-.729-.546-3.644-.6-6.464-.652-4.607-.085-10.273-.21-13.9-2.152-8.122,5.15-12.89,17.91-14.168,21.747-2.049,6.143-5.617,30.835-6.182,34.8,7.289,3.539,39.482,9.237,46.946,9.478q.288.011.6.011c7.367,0,24.141-3.826,30.9-7.323A.772.772,0,0,1,574.513,358.034Z" fill="#e5e8e0"/>
      </g>
      <g id="그룹_12311" data-name="그룹 12311">
        <path id="패스_4058" data-name="패스 4058" d="M596.965,294.368c-1.266,6.057-7.911,7.483-11.086,8.162l-.3.066c-1.123.242-2.5,1.627-4.085,3.232-2.743,2.768-6.391,6.438-11.815,7.342,2.754,2.332,5.058,6,6.971,9.054a39.093,39.093,0,0,0,2.321,3.467c2.587,3.161,1.1,17.456.11,19.689a30.473,30.473,0,0,0-.994,4.88,58.71,58.71,0,0,1-1.248,6.361,50.758,50.758,0,0,1,8.643-3.776c5.02-1.864,10.71-3.977,11.786-6.8,2.091-5.487,6.331-34.114,3.551-39.907a56.631,56.631,0,0,1-2.66-7.806C597.783,297.052,597.39,295.712,596.965,294.368Z" fill="#e5e8e0"/>
      </g>
      <g id="그룹_12312" data-name="그룹 12312">
        <path id="패스_4059" data-name="패스 4059" d="M500.353,320.9c1.291-3.872,6.04-16.547,14.25-22.19-3.557-3.07-6.84-10.912-8.259-17.312a28.331,28.331,0,0,1-.768-7.09l-1.09,1.212c-6.559,7.278-20.2,22.422-20.987,29.852-1,9.533,5.286,43.341,10.732,49.733C495.08,349.193,498.355,326.9,500.353,320.9Z" fill="#dee2d9"/>
      </g>
      <g id="그룹_12313" data-name="그룹 12313">
        <path id="패스_4060" data-name="패스 4060" d="M507.87,281.063c1.493,6.738,5.074,14.946,8.481,17.021,3.231,1.966,8.97,2.072,13.58,2.158,3.986.073,6.294.154,7.374.965,1.967,1.477,20.544,10.893,30.217,10.609,5.991-.155,9.8-4,12.86-7.088,1.837-1.855,3.288-3.32,4.866-3.66l.3-.066c4.017-.861,11.483-2.463,9.815-11.168-1.495-3.72-3.389-6.937-6.025-8.254-8.1-4.048-16.907-7.883-27.74-6.468-9.732,1.266-14.625-2.561-18.941-5.943-1.018-.8-1.978-1.549-2.994-2.241-1.326-.9-3.749-1.277-6.692-1.277-9.123,0-23.244,3.59-25.2,6.114C506.858,273.169,506.891,276.64,507.87,281.063Z" fill="#edefeb"/>
      </g>
      <g id="그룹_12314" data-name="그룹 12314">
        <path id="패스_4061" data-name="패스 4061" d="M589.65,293.663c-.218-3.16-1.765-6.58-4.773-7.572-2.281-.752-4.808.094-6.818,1.406s-3.694,3.074-5.669,4.441a17.763,17.763,0,0,1-9.493,3.124c-7.346.226-19.116-5.519-25.684-.11a10.52,10.52,0,0,0-3.281,5.43,6.683,6.683,0,0,1,3.373.825c1.967,1.477,20.544,10.893,30.217,10.609,5.991-.155,9.8-4,12.86-7.088,1.837-1.855,3.288-3.32,4.866-3.66l.3-.066a31.045,31.045,0,0,0,3.788-1A42.327,42.327,0,0,0,589.65,293.663Z" fill="#accc8f"/>
      </g>
      <g id="그룹_12315" data-name="그룹 12315">
        <path id="패스_4062" data-name="패스 4062" d="M567.322,313.382l-.18,0c-10.186,0-28.525-9.237-30.775-10.928a6.645,6.645,0,0,0-2.77-.531c-.917,6.14,2.066,13.016,9.234,11.643,2.639-.505,5.383-2.466,7.741-1.177a7.035,7.035,0,0,1,1.883,1.793c3.285,3.922,8.024,7.363,13.091,6.657,2.411-.335,4.709-1.582,7.068-1.927A20.111,20.111,0,0,0,567.322,313.382Z" fill="#abd680"/>
      </g>
      <g id="그룹_12316" data-name="그룹 12316">
        <path id="패스_4063" data-name="패스 4063" d="M590.484,314.5c.173-3.767-1.142-7.454-1.252-11.223-.016-.537,0-1.073.024-1.61a34.2,34.2,0,0,1-3.377.864l-.3.066c-1.123.242-2.5,1.627-4.085,3.232-2.743,2.768-6.391,6.438-11.815,7.342a28.187,28.187,0,0,1,4.808,5.7c.075.008.149,0,.224.012,3.347.482,5.982,3.68,9.363,3.622C587.841,322.438,590.312,318.265,590.484,314.5Z" fill="#abd680"/>
      </g>
      <g id="그룹_12317" data-name="그룹 12317">
        <path id="패스_4064" data-name="패스 4064" d="M586.882,347.288a6.556,6.556,0,0,1-3.989-2.022,7.575,7.575,0,0,1-1.059-3.924,45.165,45.165,0,0,0-1.423-7.649c0,4.926-.751,10.378-1.332,11.687a30.473,30.473,0,0,0-.994,4.88,58.71,58.71,0,0,1-1.248,6.361,50.758,50.758,0,0,1,8.643-3.776c3.515-1.3,7.352-2.733,9.71-4.441A49.583,49.583,0,0,1,586.882,347.288Z" fill="#dee2d9"/>
      </g>
      <g id="그룹_12318" data-name="그룹 12318">
        <path id="패스_4065" data-name="패스 4065" d="M568.812,304.213a1.554,1.554,0,0,0-.65-.759,3.6,3.6,0,0,0-1.471-.345,2.089,2.089,0,0,0-.479-.029,5.607,5.607,0,0,1-.777.047c-.128,0-.255-.008-.383-.018a2.959,2.959,0,0,0-.889.113l-.482.2-.409.316-.316.408a1.511,1.511,0,0,0-.24.751,2.022,2.022,0,0,0,.138,1.047,1.891,1.891,0,0,0,.827.966c.129.063.26.118.394.174a2.288,2.288,0,0,0,.919.2c.117.005.235.005.353,0a9.526,9.526,0,0,0,1.283-.145,2.635,2.635,0,0,0,1.1-.487c.054-.039.108-.08.161-.121l.37-.285a1.264,1.264,0,0,0,.323-.4,1.956,1.956,0,0,0,.3-.609c.019-.141.037-.281.056-.422A1.188,1.188,0,0,0,568.812,304.213Z" fill="#abd680"/>
      </g>
      <g id="그룹_12319" data-name="그룹 12319">
        <path id="패스_4066" data-name="패스 4066" d="M574.155,299.606a1.417,1.417,0,0,0-.367-.61,1.49,1.49,0,0,0-1.065-.453,2.825,2.825,0,0,0-.642.113,1.656,1.656,0,0,0-.888.683,1.1,1.1,0,0,0-.176.552,1.118,1.118,0,0,0,.026.593l.15.354a1.5,1.5,0,0,0,.533.533l.355.15a1.508,1.508,0,0,0,.789,0l.131-.053a4.418,4.418,0,0,0,.462-.194,1.462,1.462,0,0,0,.525-.526,1.705,1.705,0,0,0,.154-.359l0-.033.006-.039A1.394,1.394,0,0,0,574.155,299.606Z" fill="#abd680"/>
      </g>
      <g id="그룹_12320" data-name="그룹 12320">
        <path id="패스_4067" data-name="패스 4067" d="M543.77,296.727a.871.871,0,0,0-.8-.613,2.667,2.667,0,0,0-.473.012l-.492.058a2.835,2.835,0,0,0-.681.119l-.224.087a1.016,1.016,0,0,0-.419.245.843.843,0,0,0-.219.395.556.556,0,0,0-.08.359.581.581,0,0,0,.21.364.949.949,0,0,0,.744.376c.078,0,.157,0,.236,0a2.791,2.791,0,0,0,.7-.109l.465-.113a4.015,4.015,0,0,0,.652-.24l.169-.131a.619.619,0,0,0,.172-.268A.8.8,0,0,0,543.77,296.727Z" fill="#abd680"/>
      </g>
      <g id="그룹_12321" data-name="그룹 12321">
        <path id="패스_4068" data-name="패스 4068" d="M584.233,313.932a1.244,1.244,0,0,0-.34-.528,1.644,1.644,0,0,0-.724-.422,5.065,5.065,0,0,0-.716-.075l-.155-.007a1.568,1.568,0,0,0-.31.03,1.551,1.551,0,0,0-.313.052c-.21.071-.417.153-.626.23a1.885,1.885,0,0,0-.835.487c-.1.127-.2.255-.3.383a1.883,1.883,0,0,0-.258.955,1.945,1.945,0,0,0,1.892,1.892,1.882,1.882,0,0,0,.955-.258c.2-.089.411-.172.612-.265a2.022,2.022,0,0,0,.575-.467,4.982,4.982,0,0,0,.456-.546,1.64,1.64,0,0,0,.224-.829A1.248,1.248,0,0,0,584.233,313.932Z" fill="#accc8f"/>
      </g>
      <g id="그룹_12322" data-name="그룹 12322">
        <path id="패스_4069" data-name="패스 4069" d="M587.095,308.325a.507.507,0,0,0-.149-.36l-.019-.016-.034-.081-.141-.183-.183-.141a1.022,1.022,0,0,0-.506-.138l-.168-.012-.04,0-.019,0-.249.034a.619.619,0,0,0-.073.023l-.162.055-.2.086a.643.643,0,0,0-.24.22.42.42,0,0,0-.11.189.65.65,0,0,0-.074.329l.031.227.086.2a.644.644,0,0,0,.22.24.659.659,0,0,0,.291.153l.153.052c.024.008.048.017.073.024a.854.854,0,0,0,.133.019.33.33,0,0,0,.135.016l.049,0,.158-.012.039,0a.679.679,0,0,0,.353-.079.264.264,0,0,0,.117-.051l.1-.076a.83.83,0,0,0,.259-.327l.027-.023A.512.512,0,0,0,587.095,308.325Z" fill="#accc8f"/>
      </g>
      <g id="그룹_12323" data-name="그룹 12323">
        <path id="패스_4070" data-name="패스 4070" d="M542.1,308.579a1.123,1.123,0,0,0-.4-.4,1.523,1.523,0,0,0-.36-.136,3.156,3.156,0,0,0-.409-.054c-.094,0-.188,0-.282,0h-.133a1.349,1.349,0,0,0-.678.174,2.672,2.672,0,0,0-.391.315,1.054,1.054,0,0,0-.273.47.8.8,0,0,0-.02.424.8.8,0,0,0,.127.4,1.067,1.067,0,0,0,.382.382c.062.039.123.079.187.112a1.215,1.215,0,0,0,.616.167c.12-.013.239-.029.357-.049l.13-.022a1.87,1.87,0,0,0,.747-.229,1.157,1.157,0,0,0,.56-.975A1.12,1.12,0,0,0,542.1,308.579Z" fill="#accc8f"/>
      </g>
      <g id="그룹_12324" data-name="그룹 12324">
        <path id="패스_4071" data-name="패스 4071" d="M492.036,338.092a.783.783,0,0,1-.69-.412c-1.71-3.188-2.171-6.79-2.617-10.274a35.871,35.871,0,0,0-1.655-8.034.781.781,0,1,1,1.463-.549,36.945,36.945,0,0,1,1.742,8.384c.447,3.5.871,6.8,2.444,9.734a.782.782,0,0,1-.687,1.151Z"/>
      </g>
      <g id="그룹_12325" data-name="그룹 12325">
        <path id="패스_4072" data-name="패스 4072" d="M491.694,318.841a.783.783,0,0,1-.663-.364,7.711,7.711,0,0,1-1.126-5.041.781.781,0,0,1,1.551.191,6.22,6.22,0,0,0,.9,4.016.781.781,0,0,1-.66,1.2Z"/>
      </g>
      <g id="그룹_12326" data-name="그룹 12326">
        <path id="패스_4073" data-name="패스 4073" d="M563.37,295.957a15.6,15.6,0,0,1-1.821-.106.782.782,0,1,1,.185-1.553,14.517,14.517,0,0,0,9.827-2.429,30.514,30.514,0,0,0,2.622-2.113,17.733,17.733,0,0,1,5.171-3.509.782.782,0,0,1,.556,1.461,16.307,16.307,0,0,0-4.7,3.228,31.832,31.832,0,0,1-2.759,2.22A16.143,16.143,0,0,1,563.37,295.957Z"/>
      </g>
      <path id="패스_4074" data-name="패스 4074" d="M542.547,367.338c-7.732-.251-41.758-6.335-48.174-9.929-6.693-3.891-13.569-42.33-12.529-52.207.839-7.966,14.727-23.379,21.4-30.786,1.481-1.644,2.756-3.058,3.185-3.63,2.589-3.452,17.045-6.7,26.36-6.7,3.7,0,6.4.509,7.813,1.47,1.072.731,2.14,1.568,3.081,2.306,3.673,2.876,7.457,5.839,14.229,5.839a27.234,27.234,0,0,0,3.474-.237,36.287,36.287,0,0,1,4.636-.3c10.2,0,18.878,4.337,24.061,6.928,5.23,2.616,7.589,10.667,9.669,17.77a55.884,55.884,0,0,0,2.56,7.555c3.175,6.613-1.431,35.8-3.493,41.217-1.346,3.531-7.149,5.685-12.763,7.769-3.521,1.308-7.149,2.656-9.174,4.2-5.211,3.971-25.117,8.747-33.683,8.747C542.975,367.347,542.758,367.344,542.547,367.338Zm-46.783-11.2c7.321,3.5,39.4,9.2,46.839,9.438.192.007.393.01.6.01,7.658,0,24.383-3.964,30.853-7.312a.755.755,0,0,1,.427-.336c.753-.421,1.567-5.486,1.957-7.919a28.68,28.68,0,0,1,1.118-5.315c.932-2.092,2.079-15.57.125-17.961a39.123,39.123,0,0,1-2.444-3.638c-2.045-3.262-4.846-7.731-7.969-9.638l-.128.016c-10.2,0-28.633-9.293-30.836-10.947-.7-.527-3.732-.583-6.405-.633-4.549-.084-10.205-.187-13.891-2.135-8.086,5.166-12.819,17.881-14.079,21.662C499.874,327.6,496.225,352.9,495.764,356.138ZM569.9,313.232c2.709,2.359,4.99,6,6.831,8.939a38.931,38.931,0,0,0,2.313,3.456c2.6,3.184,1.122,17.551.125,19.794a30.247,30.247,0,0,0-.985,4.839A62.011,62.011,0,0,1,577,356.4a53.174,53.174,0,0,1,8.441-3.651c5-1.855,10.668-3.959,11.729-6.743,2.086-5.478,6.328-34.049,3.554-39.829a56.451,56.451,0,0,1-2.663-7.81c-.344-1.175-.7-2.394-1.084-3.619-1.463,5.819-7.935,7.2-11.08,7.878l-.3.065c-1.094.237-2.457,1.612-4.035,3.2C578.9,308.589,575.257,312.263,569.9,313.232ZM504.56,275.591c-6.551,7.269-20.183,22.4-20.962,29.8-.973,9.238,5.118,42.634,10.567,49.484.974-6.783,4.132-28.111,6.093-34,1.255-3.764,5.975-16.445,14.182-22.167-3.566-3.17-6.814-11.064-8.193-17.283a29.074,29.074,0,0,1-.783-6.836Zm28.415-9.841c-9.466,0-23.261,3.677-25.118,6.076-.9,1.375-.861,4.822.111,9.215,1.488,6.717,5.049,14.9,8.435,16.958,3.209,1.952,8.932,2.058,13.53,2.143,4.006.073,6.326.155,7.432.985,1.893,1.421,20.028,10.6,29.721,10.6.146,0,.291,0,.433-.006,5.952-.154,9.744-3.984,12.791-7.06,1.854-1.87,3.312-3.341,4.916-3.687l.3-.065c3.979-.853,11.388-2.441,9.737-11.052-1.759-4.373-3.714-7.055-5.97-8.183-6.839-3.42-14.257-6.758-23.114-6.758a35.287,35.287,0,0,0-4.569.3,28.662,28.662,0,0,1-3.677.248c-7.409,0-11.622-3.3-15.339-6.21-1.038-.813-1.986-1.556-2.989-2.237C538.384,266.175,536.152,265.75,532.975,265.75Z"/>
    </g>
  </g>
</svg>
