<svg xmlns="http://www.w3.org/2000/svg" width="176.094" height="241.114" viewBox="0 0 176.094 241.114">
  <g id="그룹_12291" data-name="그룹 12291" transform="translate(-644.253 -205.129)">
    <g id="그룹_12276" data-name="그룹 12276" transform="translate(644.253 273.106)">
      <g id="그룹_12257" data-name="그룹 12257" transform="translate(0 60.59)">
        <g id="그룹_12241" data-name="그룹 12241" transform="translate(35.263 2.079)">
          <path id="패스_3994" data-name="패스 3994" d="M739.048,318.456a117.623,117.623,0,0,0-47.658,9.011c-9.566,6.586-15.05,14.123-16.292,22.407-1.087,7.239,1.227,14.865,6.515,21.475,8.779,10.973,27.386,17.722,43.258,15.69,8.724-1.114,20.788,5.234,31.417,10.837,8.86,4.671,17.233,9.077,21.346,7.944,9.734-2.684,30.571-16.291,35.776-26.125,1.092-5.877-2.79-14.85-10.683-24.66C788.8,337.725,762.93,318.894,739.048,318.456Z" transform="translate(-674.835 -318.436)" fill="#edefeb"/>
        </g>
        <g id="그룹_12242" data-name="그룹 12242" transform="translate(2.118 14.848)">
          <path id="패스_3995" data-name="패스 3995" d="M692.275,405.137c1.445-1.1,2.4-4.761,2.494-9.563.141-7.325-1.811-16.623-5.32-19.5-.029-.024-.043-.058-.068-.083a36.026,36.026,0,0,1-4.993-5.033c-5.653-7.069-8.121-15.266-6.947-23.084.995-6.633,4.478-12.784,10.371-18.36-19.222,9.948-33.053,24.391-38.819,38.506-9.4,23.016,6.218,38.8,15.7,48.281C669.122,418.481,686.483,409.529,692.275,405.137Z" transform="translate(-646.09 -329.51)" fill="#dee2d9"/>
        </g>
        <g id="그룹_12243" data-name="그룹 12243" transform="translate(24.304 64.778)">
          <path id="패스_3996" data-name="패스 3996" d="M767.24,407.789a30.667,30.667,0,0,1,8.3-8.237c-4.886-.843-11.446-4.3-18.768-8.158-10.354-5.458-22.085-11.647-30.183-10.614a55.424,55.424,0,0,1-35.412-7.966,42.451,42.451,0,0,1,2.727,16.174c-.063,3.284-.578,9.1-3.317,11.18-3.523,2.672-17.049,10.6-25.255,11.741,7.412,2.925,21.532,1.808,34.248.789,6.308-.505,12.411-.993,17.526-.993a36.286,36.286,0,0,1,8.951.86,202.609,202.609,0,0,0,41.639,5.867C767.093,415.413,766.159,409.718,767.24,407.789Z" transform="translate(-665.331 -372.814)" fill="#e5e8e0"/>
        </g>
        <g id="그룹_12244" data-name="그룹 12244" transform="translate(127.787 68.547)">
          <path id="패스_3997" data-name="패스 3997" d="M767.279,398.575l-.011.007c-5.518,1.809-10.852,7.764-11.948,9.721-.567,1.011-.055,5.634.77,9.665,7.379.063,14.291-.539,19.61-2.207,14.769-4.634,20.569-22.222,24.357-39.678C792.416,385.329,776.383,395.51,767.279,398.575Z" transform="translate(-755.08 -376.083)" fill="#e5e8e0"/>
        </g>
        <g id="그룹_12245" data-name="그룹 12245">
          <path id="패스_3998" data-name="패스 3998" d="M743.766,316.653q-1.15-.021-2.29-.02a119.125,119.125,0,0,0-45.848,9.051,1.027,1.027,0,0,0-.476.16c-.046.031-.09.065-.136.1-23.785,10.072-40.979,26.889-47.666,43.262-9.973,24.413,6.475,40.861,16.3,50.687,6.133,6.136,23,4.784,39.318,3.478,10.5-.841,20.414-1.633,25.774-.2,9.354,2.509,28.445,6.01,45.15,6.01,7.24,0,14.032-.658,19.388-2.337,17.287-5.425,22.913-26.759,26.826-46.329,1.3-6.48-2.743-16.141-11.082-26.506C794.8,336.334,768.317,317.1,743.766,316.653Zm-94.492,53.334c5.766-14.115,19.6-28.558,38.819-38.506-5.893,5.576-9.376,11.726-10.371,18.36-1.174,7.818,1.294,16.014,6.947,23.084a36.026,36.026,0,0,0,4.993,5.033c.025.025.039.059.068.083,3.509,2.881,5.461,12.179,5.32,19.5-.092,4.8-1.049,8.466-2.494,9.563-5.792,4.392-23.153,13.344-27.586,11.16C655.493,408.79,639.874,393,649.275,369.987ZM720.331,420.3c-5.115,0-11.218.488-17.526.993-12.717,1.019-26.837,2.137-34.248-.789,8.206-1.144,21.732-9.07,25.255-11.741,2.74-2.079,3.254-7.9,3.317-11.18a42.45,42.45,0,0,0-2.727-16.174,55.424,55.424,0,0,0,35.412,7.966c8.1-1.033,19.829,5.155,30.183,10.614,7.322,3.86,13.881,7.315,18.768,8.158a30.665,30.665,0,0,0-8.3,8.237c-1.082,1.929-.148,7.624.455,10.642a202.609,202.609,0,0,1-41.639-5.867A36.286,36.286,0,0,0,720.331,420.3Zm72.328,4.557c-5.319,1.668-12.23,2.27-19.609,2.207-.826-4.031-1.338-8.653-.77-9.665,1.1-1.957,6.429-7.912,11.948-9.721l.011-.007c9.1-3.065,25.137-13.246,32.777-22.492C813.228,402.636,807.428,420.224,792.659,424.858Zm25.43-44.887c-5.2,9.834-26.042,23.441-35.776,26.125-4.113,1.132-12.486-3.273-21.346-7.944-10.629-5.6-22.693-11.951-31.417-10.837-15.873,2.032-34.479-4.717-43.258-15.69-5.288-6.61-7.6-14.236-6.515-21.475,1.242-8.283,6.727-15.821,16.292-22.407a117.623,117.623,0,0,1,47.658-9.011c23.881.438,49.75,19.269,63.678,36.58C815.3,365.121,819.181,374.094,818.089,379.971Z" transform="translate(-644.253 -316.633)"/>
        </g>
        <g id="그룹_12246" data-name="그룹 12246" transform="translate(59.053 2.079)">
          <path id="패스_3999" data-name="패스 3999" d="M775.887,347.194c2.533.944,4.69,2.673,7.091,3.916a20.375,20.375,0,0,0,14.476,1.4c-14.324-16.568-38.84-33.637-61.564-34.055a118.413,118.413,0,0,0-40.423,6.269,10.132,10.132,0,0,0,6.585,7.978,16.248,16.248,0,0,0,11.392-.488c2.713-1.039,5.567-2.6,8.349-1.765,2.975.9,4.468,4.111,5.859,6.89a54.3,54.3,0,0,0,11.392,15.276,9.337,9.337,0,0,0,3.543,2.351,8.559,8.559,0,0,0,4.258-.086,26.436,26.436,0,0,0,11.845-6.049,4.132,4.132,0,0,1,2.23-1.311c2.1-.179,3.645,3.007,5.637,2.309.752-.263,1.2-1.009,1.749-1.587C770.169,346.284,773.354,346.249,775.887,347.194Z" transform="translate(-695.468 -318.436)" fill="#accc8f"/>
        </g>
        <g id="그룹_12247" data-name="그룹 12247" transform="translate(18.707 28.034)">
          <path id="패스_4000" data-name="패스 4000" d="M663.58,366.819c1.284,1.283,2.9,2.218,4.068,3.614,1.128,1.351,1.785,3.09,3.107,4.252,2.025,1.781,5.207,1.732,7.589.467a13.334,13.334,0,0,0,4.8-4.822c-.327-.37-.651-.744-.957-1.126-5.653-7.069-8.121-15.266-6.947-23.084a26.806,26.806,0,0,1,1.328-5.174c-5.987,2.127-11.827,6.758-13.959,10.218C659.65,355.966,659.589,362.832,663.58,366.819Z" transform="translate(-660.477 -340.946)" fill="#abd680"/>
        </g>
        <g id="그룹_12248" data-name="그룹 12248" transform="translate(35.263 26.883)">
          <path id="패스_4001" data-name="패스 4001" d="M684.464,365.561a16.809,16.809,0,0,0,1.769-1.184,5.618,5.618,0,0,0,1.3-2.237,30.5,30.5,0,0,0,1.516-15.348,7.349,7.349,0,0,0-1.075-3.143c-2.587-3.652-6.741-4.265-11.082-3.281a25,25,0,0,0-1.791,6.214c-1.087,7.239,1.227,14.865,6.515,21.475.142.178.308.345.455.519A8.958,8.958,0,0,1,684.464,365.561Z" transform="translate(-674.835 -339.949)" fill="#abd680"/>
        </g>
        <g id="그룹_12249" data-name="그룹 12249" transform="translate(104.791 28.444)">
          <path id="패스_4002" data-name="패스 4002" d="M741.933,343.71a3.555,3.555,0,0,0-.077-.574,2.509,2.509,0,0,0-1.094-1.44,2.791,2.791,0,0,0-1.4-.363c-.1-.007-.2-.015-.294-.025a1.62,1.62,0,0,0-.333.013l.038,0a7.209,7.209,0,0,1-1.01.06,2.513,2.513,0,0,0-1.438.4c-.1.067-.212.129-.322.189a1.8,1.8,0,0,0-.818,1.062,1.884,1.884,0,0,0,.18,1.37c.074.133.152.263.239.387a5,5,0,0,0,.382.5,1.845,1.845,0,0,0,.791.5,4.526,4.526,0,0,0,.556.2c.2.055.4.1.6.138.1.02.21.036.315.051l.661.089a1.586,1.586,0,0,0,.4-.044c.155-.021.306-.039.457-.066.1-.016.19-.036.284-.057l.094-.021.577-.243a2.494,2.494,0,0,0,.711-.651,1.186,1.186,0,0,0,.306-.525,1.791,1.791,0,0,0,.205-.914C741.937,343.734,741.934,343.722,741.933,343.71Z" transform="translate(-735.136 -341.302)" fill="#abd680"/>
        </g>
        <g id="그룹_12250" data-name="그룹 12250" transform="translate(116.9 24.365)">
          <path id="패스_4003" data-name="패스 4003" d="M750.066,339.366a1.555,1.555,0,0,0-.284-.547c-.054-.069-.1-.129-.153-.191l-.091-.1a.7.7,0,0,0-.193-.156,1.389,1.389,0,0,0-.186-.141.663.663,0,0,0-.218-.1.941.941,0,0,0-.237-.1l-.154-.04-.632-.17-.454-.061a1.285,1.285,0,0,0-.656.148.829.829,0,0,0-.269.157,1.37,1.37,0,0,0-.5.307,1.363,1.363,0,0,0-.035,1.907,1.31,1.31,0,0,0,.116.221.862.862,0,0,0,.306.306,1.288,1.288,0,0,0,.58.306l.633.168a2.011,2.011,0,0,0,1.14.044l.13-.044.059-.018a1.174,1.174,0,0,0,.529-.279,1.759,1.759,0,0,0,.172-.134A1.492,1.492,0,0,0,750.066,339.366Z" transform="translate(-745.638 -337.764)" fill="#abd680"/>
        </g>
        <g id="그룹_12251" data-name="그룹 12251" transform="translate(70.603 9.012)">
          <path id="패스_4004" data-name="패스 4004" d="M711.764,325.662a8.912,8.912,0,0,0-.944-.685,3.569,3.569,0,0,0-1.29-.381c-.462-.081-.932-.106-1.4-.141a4.773,4.773,0,0,0-1.35.152,1.743,1.743,0,0,0-1.276,1.482,1.706,1.706,0,0,0,.121.925,1.618,1.618,0,0,0,.73.852l.408.174a3.905,3.905,0,0,0,.587.227,6.546,6.546,0,0,0,.693.091c.319.038.642.1.963.111a4,4,0,0,0,1.371-.092,7.709,7.709,0,0,0,1.1-.478A1.434,1.434,0,0,0,711.764,325.662Z" transform="translate(-705.486 -324.449)" fill="#abd680"/>
        </g>
        <g id="그룹_12252" data-name="그룹 12252" transform="translate(96.22 62.676)">
          <path id="패스_4005" data-name="패스 4005" d="M732.276,372.188a3.772,3.772,0,0,0-.5-.7,1.605,1.605,0,0,0-.332-.265,1.817,1.817,0,0,0-.408-.171,2.567,2.567,0,0,0-.573-.062,3.822,3.822,0,0,0-.4.012,2.358,2.358,0,0,0-1.063.261,3.315,3.315,0,0,0-.54.44,4.9,4.9,0,0,0-.618.754,1.02,1.02,0,0,0,0,1.039,1.035,1.035,0,0,0,.888.508c.1,0,.19.013.286.021s.186.032.276.058a1.742,1.742,0,0,0,.287.052c.084.015.168.025.254.032l.416-.056h.007a4.239,4.239,0,0,0,.778-.08,1.83,1.83,0,0,0,.777-.462c.04-.028.081-.059.122-.084A.97.97,0,0,0,732.276,372.188Z" transform="translate(-727.703 -370.991)" fill="#accc8f"/>
        </g>
        <g id="그룹_12253" data-name="그룹 12253" transform="translate(126.311 77.699)">
          <path id="패스_4006" data-name="패스 4006" d="M757.245,385.893l-.09-.243c-.035-.095-.073-.186-.112-.279a1.2,1.2,0,0,0-.311-.473l-.063-.055-.466-.409-.285-.22a1.037,1.037,0,0,0-.524-.167.712.712,0,0,0-.375,0,1.036,1.036,0,0,0-.523.167,1.236,1.236,0,0,0-.427.394l-.016.024-.008.012-.052.069c-.052.113-.1.226-.144.341a1.407,1.407,0,0,0,.362,1.37l.467.409a3.024,3.024,0,0,0,.37.294,1.262,1.262,0,0,0,.46.169c.09.021.181.043.272.062a1.2,1.2,0,0,0,.633,0,1.191,1.191,0,0,0,.831-1.465Z" transform="translate(-753.799 -384.02)" fill="#accc8f"/>
        </g>
        <g id="그룹_12254" data-name="그룹 12254" transform="translate(101.576 66.856)">
          <path id="패스_4007" data-name="패스 4007" d="M736.845,376.182l-.127-.167a3.744,3.744,0,0,0-.31-.4,1.807,1.807,0,0,0-.416-.307l-.423-.228-.109-.059a1.328,1.328,0,0,0-.235-.1.9.9,0,0,0-.236-.095c-.08-.021-.161-.035-.241-.052l-.48-.1-.4-.054a1.141,1.141,0,0,0-.583.13.761.761,0,0,0-.334.195,1.157,1.157,0,0,0-.391.425l-.152.362c-.018.135-.037.269-.054.4a1.683,1.683,0,0,0,.444,1.071c.12.1.241.205.362.307.06.051.12.1.181.153a2.513,2.513,0,0,0,.4.3c.037.02.076.035.114.051l.44.2a4.992,4.992,0,0,0,.466.2,1.688,1.688,0,0,0,.543.067l.224,0a1.526,1.526,0,0,0,1.318-2.3Z" transform="translate(-732.347 -374.616)" fill="#accc8f"/>
        </g>
        <g id="그룹_12255" data-name="그룹 12255" transform="translate(12.574 86.767)">
          <path id="패스_4008" data-name="패스 4008" d="M668.736,405.482a11.908,11.908,0,0,1-8.519-4.158,32.886,32.886,0,0,1-4.951-7.937,1.04,1.04,0,1,1,1.862-.925,31.36,31.36,0,0,0,4.616,7.452A9.729,9.729,0,0,0,668.9,403.4a1.071,1.071,0,0,1,1.065,1.015,1.04,1.04,0,0,1-1.013,1.064C668.883,405.48,668.809,405.482,668.736,405.482Z" transform="translate(-655.157 -391.884)"/>
        </g>
        <g id="그룹_12256" data-name="그룹 12256" transform="translate(23.325 93.765)">
          <path id="패스_4009" data-name="패스 4009" d="M667.881,400.283a12.423,12.423,0,0,1-2.576-.27,1.038,1.038,0,0,1-.8-1.231,1.026,1.026,0,0,1,1.231-.8,10.432,10.432,0,0,0,3.045.184,1.039,1.039,0,1,1,.181,2.071Q668.423,400.283,667.881,400.283Z" transform="translate(-664.482 -397.954)"/>
        </g>
      </g>
      <g id="그룹_12275" data-name="그룹 12275" transform="translate(28.417)">
        <g id="그룹_12258" data-name="그룹 12258" transform="translate(16.045 41.011)">
          <path id="패스_4010" data-name="패스 4010" d="M773.739,366.968c.941-.525,1.851-6.2,2.34-9.248a32.855,32.855,0,0,1,1.278-6.074c1.079-2.426,2.395-18.055.127-20.831a45.224,45.224,0,0,1-2.81-4.181c-2.373-3.788-5.608-8.942-9.226-11.151l-.206,0c-11.745,0-32.891-10.651-35.485-12.6-.839-.63-4.2-.692-7.453-.752-5.312-.1-11.844-.242-16.024-2.481-9.365,5.938-14.864,20.651-16.337,25.075-2.361,7.083-6.475,35.554-7.127,40.123,8.4,4.081,45.524,10.651,54.129,10.928q.334.012.7.013c8.494,0,27.834-4.411,35.627-8.444A.882.882,0,0,1,773.739,366.968Z" transform="translate(-682.814 -299.652)" fill="#e5e8e0"/>
        </g>
        <g id="그룹_12259" data-name="그룹 12259" transform="translate(101.394 34.918)">
          <path id="패스_4011" data-name="패스 4011" d="M788.3,294.368c-1.46,6.984-9.122,8.628-12.782,9.411l-.348.076c-1.295.279-2.879,1.876-4.711,3.727-3.162,3.192-7.368,7.423-13.623,8.466,3.177,2.689,5.833,6.918,8.039,10.439a45.1,45.1,0,0,0,2.675,4c2.983,3.645,1.272,20.127.127,22.7a35.4,35.4,0,0,0-1.146,5.627,67.45,67.45,0,0,1-1.438,7.334,58.467,58.467,0,0,1,9.964-4.354c5.789-2.149,12.349-4.586,13.591-7.843,2.41-6.327,7.3-39.334,4.093-46.014a65.461,65.461,0,0,1-3.066-9C789.243,297.463,788.789,295.918,788.3,294.368Z" transform="translate(-756.835 -294.368)" fill="#e5e8e0"/>
        </g>
        <g id="그룹_12260" data-name="그룹 12260" transform="translate(1.905 11.793)">
          <path id="패스_4012" data-name="패스 4012" d="M690.108,328.034c1.489-4.465,6.964-19.079,16.429-25.586-4.1-3.54-7.886-12.582-9.522-19.961a32.668,32.668,0,0,1-.885-8.175q-.581.647-1.258,1.4c-7.562,8.392-23.3,25.853-24.2,34.42-1.158,10.992,6.1,49.973,12.375,57.343C684.028,360.652,687.8,334.949,690.108,328.034Z" transform="translate(-670.551 -274.312)" fill="#dee2d9"/>
        </g>
        <g id="그룹_12261" data-name="그룹 12261" transform="translate(29.254 1.807)">
          <path id="패스_4013" data-name="패스 4013" d="M695.145,283.421c1.721,7.769,5.851,17.233,9.778,19.626,3.727,2.267,10.343,2.389,15.659,2.488,4.6.084,7.257.178,8.5,1.113,2.269,1.7,23.689,12.56,34.842,12.232,6.908-.179,11.3-4.612,14.827-8.173,2.119-2.139,3.792-3.828,5.611-4.22l.351-.076c4.633-.993,13.241-2.84,11.318-12.877-1.724-4.289-3.909-8-6.947-9.517-9.335-4.667-19.5-9.089-31.985-7.458-11.221,1.46-16.863-2.953-21.841-6.852-1.173-.918-2.28-1.786-3.452-2.584-1.528-1.042-4.322-1.472-7.715-1.472-10.519,0-26.8,4.139-29.053,7.05C693.977,274.319,694.016,278.322,695.145,283.421Z" transform="translate(-694.27 -265.651)" fill="#edefeb"/>
        </g>
        <g id="그룹_12262" data-name="그룹 12262" transform="translate(60.18 25.049)">
          <path id="패스_4014" data-name="패스 4014" d="M785.335,294.865c-.251-3.644-2.035-7.587-5.5-8.731-2.63-.867-5.544.108-7.863,1.621s-4.259,3.544-6.536,5.121a20.473,20.473,0,0,1-10.944,3.6c-8.47.261-22.041-6.364-29.614-.127a12.13,12.13,0,0,0-3.783,6.261,7.7,7.7,0,0,1,3.888.951c2.269,1.7,23.689,12.56,34.842,12.232,6.908-.179,11.3-4.612,14.827-8.173,2.119-2.139,3.792-3.828,5.611-4.22l.351-.076a35.744,35.744,0,0,0,4.368-1.154A48.653,48.653,0,0,0,785.335,294.865Z" transform="translate(-721.091 -285.809)" fill="#accc8f"/>
        </g>
        <g id="그룹_12263" data-name="그룹 12263" transform="translate(59.608 43.632)">
          <path id="패스_4015" data-name="패스 4015" d="M759.665,315.135l-.206,0c-11.745,0-32.891-10.651-35.486-12.6a7.656,7.656,0,0,0-3.193-.612c-1.057,7.08,2.382,15.008,10.647,13.425,3.042-.582,6.207-2.843,8.924-1.357a8.094,8.094,0,0,1,2.171,2.067c3.788,4.522,9.252,8.49,15.094,7.676,2.78-.386,5.431-1.824,8.15-2.222A23.155,23.155,0,0,0,759.665,315.135Z" transform="translate(-720.595 -301.925)" fill="#abd680"/>
        </g>
        <g id="그룹_12264" data-name="그룹 12264" transform="translate(101.394 43.333)">
          <path id="패스_4016" data-name="패스 4016" d="M780.827,316.463c.2-4.343-1.318-8.595-1.444-12.94-.018-.619,0-1.237.027-1.856a39.347,39.347,0,0,1-3.893,1l-.348.076c-1.295.279-2.879,1.876-4.711,3.727-3.162,3.192-7.368,7.423-13.623,8.466a32.466,32.466,0,0,1,5.545,6.57c.086.009.171,0,.257.014,3.859.556,6.9,4.243,10.8,4.176C777.78,325.617,780.628,320.805,780.827,316.463Z" transform="translate(-756.835 -301.666)" fill="#abd680"/>
        </g>
        <g id="그룹_12265" data-name="그룹 12265" transform="translate(109.65 80.261)">
          <path id="패스_4017" data-name="패스 4017" d="M775.578,349.368c-1.715-.382-3.542-.928-4.6-2.331-.954-1.265-1.07-2.948-1.222-4.524a52.2,52.2,0,0,0-1.64-8.82c0,5.68-.866,11.966-1.537,13.475a35.4,35.4,0,0,0-1.146,5.627A67.434,67.434,0,0,1,764,360.13a58.466,58.466,0,0,1,9.964-4.354c4.053-1.5,8.477-3.151,11.2-5.121A57.14,57.14,0,0,1,775.578,349.368Z" transform="translate(-763.996 -333.693)" fill="#dee2d9"/>
        </g>
        <g id="그룹_12266" data-name="그룹 12266" transform="translate(93.327 44.959)">
          <path id="패스_4018" data-name="패스 4018" d="M756.908,304.387a1.783,1.783,0,0,0-.748-.875,4.152,4.152,0,0,0-1.7-.4,2.4,2.4,0,0,0-.552-.034,6.452,6.452,0,0,1-.895.054c-.148,0-.3-.009-.442-.021a3.408,3.408,0,0,0-1.025.13l-.557.235-.47.364q-.183.235-.364.47a1.731,1.731,0,0,0-.277.866,1.176,1.176,0,0,0,0,.619,1.155,1.155,0,0,0,.159.588,2.184,2.184,0,0,0,.952,1.114c.15.073.3.136.455.2a2.637,2.637,0,0,0,1.058.234c.136.006.272.006.408,0a10.977,10.977,0,0,0,1.479-.167,3.033,3.033,0,0,0,1.272-.562c.063-.045.126-.092.187-.14l.427-.329a1.438,1.438,0,0,0,.371-.461,2.227,2.227,0,0,0,.351-.7l.066-.487A1.37,1.37,0,0,0,756.908,304.387Z" transform="translate(-749.839 -303.077)" fill="#abd680"/>
        </g>
        <g id="그룹_12267" data-name="그룹 12267" transform="translate(102.907 39.732)">
          <path id="패스_4019" data-name="패스 4019" d="M761.8,299.769a1.646,1.646,0,0,0-.424-.7,1.714,1.714,0,0,0-1.227-.522,3.279,3.279,0,0,0-.741.13,1.912,1.912,0,0,0-1.023.788,1.27,1.27,0,0,0-.2.636,1.3,1.3,0,0,0,.031.684l.173.408a1.722,1.722,0,0,0,.613.615l.409.173a1.743,1.743,0,0,0,.911,0l.151-.061a5.2,5.2,0,0,0,.533-.224,1.686,1.686,0,0,0,.605-.606,2.024,2.024,0,0,0,.178-.414l.006-.038.006-.045A1.619,1.619,0,0,0,761.8,299.769Z" transform="translate(-758.148 -298.543)" fill="#abd680"/>
        </g>
        <g id="그룹_12268" data-name="그룹 12268" transform="translate(67.606 36.926)">
          <path id="패스_4020" data-name="패스 4020" d="M731.448,296.822a1,1,0,0,0-.927-.707,3.074,3.074,0,0,0-.545.014l-.567.067a3.268,3.268,0,0,0-.785.137l-.258.1a1.164,1.164,0,0,0-.483.283.951.951,0,0,0-.253.455.641.641,0,0,0-.092.414.665.665,0,0,0,.242.42,1.092,1.092,0,0,0,.857.434c.091,0,.182,0,.273,0a3.218,3.218,0,0,0,.809-.126l.536-.13a4.671,4.671,0,0,0,.752-.277l.195-.151a.725.725,0,0,0,.2-.309A.922.922,0,0,0,731.448,296.822Z" transform="translate(-727.531 -296.109)" fill="#abd680"/>
        </g>
        <g id="그룹_12269" data-name="그룹 12269" transform="translate(112.903 56.285)">
          <path id="패스_4021" data-name="패스 4021" d="M772.091,314.09a1.421,1.421,0,0,0-.391-.609,1.9,1.9,0,0,0-.835-.487,5.855,5.855,0,0,0-.826-.086l-.179-.008a1.828,1.828,0,0,0-.359.035,1.776,1.776,0,0,0-.36.06c-.242.082-.482.176-.722.265a2.174,2.174,0,0,0-.963.562c-.114.146-.227.294-.341.442a2.172,2.172,0,0,0-.3,1.1,2.423,2.423,0,0,0,.64,1.543,2.43,2.43,0,0,0,1.543.639,2.173,2.173,0,0,0,1.1-.3c.234-.1.473-.2.706-.306a2.311,2.311,0,0,0,.662-.538,5.747,5.747,0,0,0,.527-.63,1.892,1.892,0,0,0,.258-.956A1.428,1.428,0,0,0,772.091,314.09Z" transform="translate(-766.817 -312.899)" fill="#accc8f"/>
        </g>
        <g id="그룹_12270" data-name="그룹 12270" transform="translate(118.744 49.932)">
          <path id="패스_4022" data-name="패스 4022" d="M774.616,308.468a.579.579,0,0,0-.172-.415l-.021-.018-.039-.093-.164-.211-.211-.163a1.175,1.175,0,0,0-.583-.159l-.193-.014-.046,0-.022,0-.287.039a.712.712,0,0,0-.084.027l-.187.063-.236.1a.747.747,0,0,0-.276.254.484.484,0,0,0-.127.218.739.739,0,0,0-.085.379l.036.262.1.235a.743.743,0,0,0,.254.277.754.754,0,0,0,.336.176l.176.06c.028.009.055.02.083.028a1,1,0,0,0,.154.022.372.372,0,0,0,.155.018l.058,0,.182-.014.045,0a.785.785,0,0,0,.407-.091.3.3,0,0,0,.134-.059l.114-.088a.518.518,0,0,0,.187-.187.536.536,0,0,0,.111-.19l.031-.027A.581.581,0,0,0,774.616,308.468Z" transform="translate(-771.883 -307.389)" fill="#accc8f"/>
        </g>
        <g id="그룹_12271" data-name="그룹 12271" transform="translate(66.175 50.616)">
          <path id="패스_4023" data-name="패스 4023" d="M729.716,308.67a1.294,1.294,0,0,0-.467-.467,1.763,1.763,0,0,0-.416-.157,3.593,3.593,0,0,0-.47-.062c-.108,0-.217,0-.325,0h-.153a1.563,1.563,0,0,0-.783.2,3.134,3.134,0,0,0-.45.363,1.229,1.229,0,0,0-.316.542.94.94,0,0,0-.022.489.929.929,0,0,0,.145.457,1.234,1.234,0,0,0,.442.44c.072.045.142.091.216.129a1.4,1.4,0,0,0,.71.193c.137-.015.274-.033.412-.057l.15-.025a2.161,2.161,0,0,0,.861-.264,1.333,1.333,0,0,0,.645-1.124A1.29,1.29,0,0,0,729.716,308.67Z" transform="translate(-726.291 -307.983)" fill="#accc8f"/>
        </g>
        <g id="그룹_12272" data-name="그룹 12272" transform="translate(6.093 62.531)">
          <path id="패스_4024" data-name="패스 4024" d="M679.961,341.118a.906.906,0,0,1-.8-.475c-1.972-3.676-2.5-7.829-3.016-11.846a41.356,41.356,0,0,0-1.908-9.263.9.9,0,0,1,1.687-.633,42.6,42.6,0,0,1,2.007,9.667c.517,4.033,1,7.842,2.819,11.224a.9.9,0,0,1-.369,1.22A.892.892,0,0,1,679.961,341.118Z" transform="translate(-674.183 -318.316)"/>
        </g>
        <g id="그룹_12273" data-name="그룹 12273" transform="translate(9.349 56.113)">
          <path id="패스_4025" data-name="패스 4025" d="M679.134,319.773a.9.9,0,0,1-.763-.42,8.884,8.884,0,0,1-1.3-5.812.9.9,0,1,1,1.787.22,7.18,7.18,0,0,0,1.037,4.631.9.9,0,0,1-.762,1.381Z" transform="translate(-677.006 -312.749)"/>
        </g>
        <g id="그룹_12274" data-name="그룹 12274" transform="translate(91.228 25.496)">
          <path id="패스_4026" data-name="패스 4026" d="M750.913,297.451a17.98,17.98,0,0,1-2.1-.122.9.9,0,1,1,.213-1.791,16.739,16.739,0,0,0,11.331-2.8,35.534,35.534,0,0,0,3.023-2.436,20.446,20.446,0,0,1,5.962-4.046.9.9,0,1,1,.64,1.685,18.8,18.8,0,0,0-5.421,3.722,36.7,36.7,0,0,1-3.181,2.56A18.619,18.619,0,0,1,750.913,297.451Z" transform="translate(-748.018 -286.196)"/>
        </g>
        <path id="패스_4027" data-name="패스 4027" d="M739.01,383.139c-8.914-.289-48.148-7.3-55.546-11.448-7.716-4.486-15.644-48.808-14.445-60.2.967-9.185,16.981-26.957,24.676-35.5,1.709-1.9,3.178-3.526,3.674-4.185,2.985-3.98,19.653-7.728,30.393-7.728,4.267,0,7.382.587,9.01,1.695,1.236.843,2.467,1.808,3.552,2.659,4.235,3.316,8.6,6.733,16.405,6.733a31.405,31.405,0,0,0,4.007-.273,41.832,41.832,0,0,1,5.345-.344c11.766,0,21.767,5,27.742,7.988,6.031,3.016,8.75,12.3,11.149,20.489a64.425,64.425,0,0,0,2.953,8.711c3.661,7.625-1.651,41.282-4.028,47.524-1.552,4.071-8.244,6.555-14.716,8.958-4.061,1.508-8.243,3.062-10.578,4.839-6.01,4.579-28.961,10.085-38.837,10.085Q739.374,383.149,739.01,383.139Zm-53.941-12.914c8.44,4.031,45.434,10.606,54.007,10.882.22.008.452.012.691.012,8.831,0,28.114-4.571,35.575-8.431a.867.867,0,0,1,.492-.387c.868-.485,1.806-6.326,2.256-9.131a33.064,33.064,0,0,1,1.289-6.128c1.075-2.412,2.4-17.953.144-20.71a44.865,44.865,0,0,1-2.818-4.195c-2.358-3.761-5.588-8.914-9.188-11.113l-.148.018c-11.759,0-33.015-10.715-35.555-12.622-.812-.608-4.3-.672-7.385-.73-5.245-.1-11.767-.216-16.017-2.462-9.325,5.957-14.781,20.617-16.234,24.977C689.807,337.322,685.6,366.5,685.069,370.225Zm85.483-49.472c3.124,2.72,5.754,6.918,7.876,10.307a44.9,44.9,0,0,0,2.666,3.985c3,3.671,1.294,20.237.144,22.823a35.062,35.062,0,0,0-1.135,5.58,71.121,71.121,0,0,1-1.365,7.082,61.32,61.32,0,0,1,9.734-4.21c5.766-2.139,12.3-4.565,13.523-7.775,2.406-6.316,7.3-39.259,4.1-45.924a65.083,65.083,0,0,1-3.07-9.005c-.4-1.355-.809-2.76-1.25-4.173-1.687,6.709-9.15,8.308-12.776,9.084l-.348.075c-1.263.273-2.833,1.859-4.652,3.694C780.923,315.4,776.726,319.636,770.552,320.753Zm-75.341-43.4c-7.553,8.381-23.273,25.824-24.17,34.356-1.123,10.652,5.9,49.158,12.183,57.056,1.124-7.821,4.764-32.413,7.027-39.2C691.7,325.223,697.14,310.6,706.6,304c-4.113-3.655-7.858-12.757-9.448-19.928a33.517,33.517,0,0,1-.9-7.882ZM727.974,266c-10.914,0-26.822,4.24-28.962,7.006-1.04,1.585-.994,5.56.128,10.625,1.715,7.745,5.822,17.177,9.726,19.553,3.7,2.251,10.3,2.373,15.6,2.471,4.619.084,7.294.179,8.569,1.136,2.183,1.638,23.093,12.217,34.268,12.217.169,0,.335,0,.5-.007,6.863-.178,11.235-4.594,14.748-8.14,2.137-2.156,3.818-3.852,5.668-4.251l.352-.075c4.588-.984,13.13-2.815,11.227-12.743-2.028-5.042-4.282-8.135-6.885-9.435-7.885-3.943-16.439-7.792-26.65-7.792a40.678,40.678,0,0,0-5.268.345,33.043,33.043,0,0,1-4.24.286c-8.543,0-13.4-3.8-17.686-7.16-1.2-.937-2.29-1.794-3.446-2.579C734.211,266.495,731.638,266,727.974,266Z" transform="translate(-668.898 -264.084)"/>
      </g>
    </g>
    <g id="그룹_12290" data-name="그룹 12290" transform="translate(672.281 205.129)">
      <g id="그룹_12289" data-name="그룹 12289">
        <g id="그룹_12277" data-name="그룹 12277" transform="translate(1.684 24.156)">
          <path id="패스_4028" data-name="패스 4028" d="M755.8,276.562c1.177-3.865,2.016-17.528,1.165-18.988-.5-.86-6.411-6.459-11.159-10.957-8.572-8.123-10.342-9.89-10.515-10.5a.554.554,0,0,1-.007-.077l-.089.02c-22.144,4.948-29.357,6-31.856,6a3.136,3.136,0,0,1-1.118-.138c-1.452-.58-5.009-4.573-7.7-8.038a41.247,41.247,0,0,1-5.043-7.8c-3.034,4.338-12.289,17.638-15,22.409-2.814,4.959-3.9,19.907-4.3,25.534-.058.8-.1,1.446-.143,1.877-.248,2.862,8.71,18.447,12.063,23.907,2.747,1.819,47.859,6.583,53.919,6.766.265.006.609,0,1.047-.036C739.173,304.772,754.817,279.778,755.8,276.562Z" transform="translate(-670.022 -226.079)" fill="#e5e8e0"/>
        </g>
        <g id="그룹_12278" data-name="그룹 12278" transform="translate(70.805 54.528)">
          <path id="패스_4029" data-name="패스 4029" d="M774.748,261.107c-.029,0-.055,0-.082,0-2.29-.152-19.011-3.714-25.2-6.543.507,4.589-.579,15.538-1.449,18.4-.594,1.951-5.265,9.818-9.629,16.75-4.588,7.286-7.047,10.836-8.419,12.574,4.158-.552,12.492-2.11,28.924-5.886l1.1-.253c3.45-.784,28.006-12.842,29.523-14.5,1.338-1.655,1.726-23.24-.673-29.223C785.818,254.711,777.152,261.107,774.748,261.107Z" transform="translate(-729.969 -252.42)" fill="#dee2d9"/>
        </g>
        <g id="그룹_12279" data-name="그룹 12279" transform="translate(68.343 15.356)">
          <path id="패스_4030" data-name="패스 4030" d="M727.834,236.834c.585.852,5.863,5.855,10.124,9.892,6.385,6.05,10.419,9.9,11.3,11.106,4.278,2.719,23.448,6.856,25.837,7.016,1.242.072,7.684-4.2,13.38-8.528-3.059-4.782-11.046-13.855-13.11-14.818-2.36-1.1-13.572-5.458-17.471-6.862-2.854-1.027-6.987-6.765-10.634-11.827-1.268-1.76-2.4-3.322-3.253-4.368C741.583,222.242,732.222,234.991,727.834,236.834Z" transform="translate(-727.834 -218.447)" fill="#edefeb"/>
        </g>
        <g id="그룹_12280" data-name="그룹 12280" transform="translate(22.185 1.684)">
          <path id="패스_4031" data-name="패스 4031" d="M692.946,235.968c3.3,4.25,6.253,7.242,7.091,7.578.653.225,5.086.112,32.116-5.927l.955-.213c3.547-.788,14.243-15.263,16.006-18.234-3.594-3.124-20.565-12.289-23.434-12.577-2.9-.251-27.244,8.151-30.325,10.5-2.751,2.1-6.945,9.367-7.554,10.438C687.8,228.3,689.127,231.055,692.946,235.968Z" transform="translate(-687.802 -206.589)" fill="#edefeb"/>
        </g>
        <g id="그룹_12281" data-name="그룹 12281" transform="translate(91.47 24.765)">
          <path id="패스_4032" data-name="패스 4032" d="M772.29,240.254c-2.36-1.1-13.572-5.458-17.471-6.862-1.911-.688-4.4-3.491-6.925-6.786-.138,4.235,4.8,8.035,3.794,12.289-.7,2.955-4.141,5.755-2.515,8.318.827,1.3,2.592,1.614,3.749,2.634,2.5,2.2,1.149,6.113-.141,9.295,2.442.738,5.215,1.469,7.89,2.12a10.094,10.094,0,0,1,1.829-.875c4.068-1.567,8.386-2.433,12.418-4.089a20.749,20.749,0,0,0,7.655-5.138C778.919,246.481,773.871,240.992,772.29,240.254Z" transform="translate(-747.892 -226.607)" fill="#accc8f"/>
        </g>
        <g id="그룹_12282" data-name="그룹 12282" transform="translate(59.008 8.684)">
          <path id="패스_4033" data-name="패스 4033" d="M721.676,213.018a.679.679,0,0,0-.361-.278,3.17,3.17,0,0,0-.364-.044l-.22-.023c-.037,0-.074-.009-.111-.012a.654.654,0,0,0-.263.044l-.2.069-.136.058a.435.435,0,0,0-.16.146.536.536,0,0,0-.121.345.663.663,0,0,0,.077.288.6.6,0,0,0,.34.262c.067.022.135.046.2.069.017.006.033.013.051.017a.465.465,0,0,0,.1.016.227.227,0,0,0,.107.009c.037,0,.074-.007.111-.01l.22-.023a3.178,3.178,0,0,0,.364-.045l.144-.06a.472.472,0,0,0,.169-.157.573.573,0,0,0,.13-.367A.712.712,0,0,0,721.676,213.018Z" transform="translate(-719.737 -212.661)" fill="#abd680"/>
        </g>
        <g id="그룹_12283" data-name="그룹 12283" transform="translate(99.197 42.711)">
          <path id="패스_4034" data-name="패스 4034" d="M758.237,243.033a.837.837,0,0,0-.2-.384.559.559,0,0,0-.2-.2.858.858,0,0,0-.385-.2.844.844,0,0,0-.224-.04,1.192,1.192,0,0,0-.273-.031,1.78,1.78,0,0,0-.189.028,3.025,3.025,0,0,0-.5.067l-.026.006a1.9,1.9,0,0,1-.314,0,1.488,1.488,0,0,0-.94.39l-.208.269a.992.992,0,0,0-.158.495.678.678,0,0,0,0,.353.991.991,0,0,0,.158.493l.208.27a1.343,1.343,0,0,0,.587.341,3.688,3.688,0,0,0,.7.07,3.764,3.764,0,0,0,.68-.088,1.279,1.279,0,0,0,.233-.088,1.255,1.255,0,0,0,.224-.106c.05-.031.1-.065.143-.1a1.444,1.444,0,0,0,.525-.545,1.66,1.66,0,0,0,.2-.7Z" transform="translate(-754.593 -242.172)" fill="#abd680"/>
        </g>
        <g id="그룹_12284" data-name="그룹 12284" transform="translate(108.09 48.897)">
          <path id="패스_4035" data-name="패스 4035" d="M767.253,248.086a1.857,1.857,0,0,0-1.444-.543,3.5,3.5,0,0,0-.768.107,5.982,5.982,0,0,0-1.039.393c-.188.1-.372.208-.559.311-.092.052-.187.1-.279.156a1.664,1.664,0,0,0-.808,1.129,1.173,1.173,0,0,0-.006.655,1.389,1.389,0,0,0,.166.318h0l0,0a1.257,1.257,0,0,0,.121.169,1.5,1.5,0,0,0,1.288.64c.107,0,.214,0,.323,0,.224,0,.448.009.672.008a6.282,6.282,0,0,0,1.09-.164,3.565,3.565,0,0,0,.706-.276,1.858,1.858,0,0,0,.994-1.181A1.766,1.766,0,0,0,767.253,248.086Z" transform="translate(-762.306 -247.537)" fill="#abd680"/>
        </g>
        <g id="그룹_12285" data-name="그룹 12285" transform="translate(117.361 45.791)">
          <path id="패스_4036" data-name="패스 4036" d="M772.379,245.613a.577.577,0,0,0-.157-.244l-.107-.107-.059-.058-.024-.025-.017-.015a.63.63,0,0,0-.276-.176.728.728,0,0,0-.137-.052l-.035-.008-.076-.018-.158-.038-.208-.028a.585.585,0,0,0-.3.068.392.392,0,0,0-.172.1.588.588,0,0,0-.2.219l-.078.186c-.009.069-.018.138-.029.206a.868.868,0,0,0,.228.551c.1.09.209.18.318.265a.644.644,0,0,0,.289.152l.024.006.036,0,.077.013.161.027.2.028a.579.579,0,0,0,.293-.066.383.383,0,0,0,.168-.1.581.581,0,0,0,.2-.213l.076-.182.028-.2A.581.581,0,0,0,772.379,245.613Z" transform="translate(-770.347 -244.843)" fill="#abd680"/>
        </g>
        <g id="그룹_12286" data-name="그룹 12286" transform="translate(49.789 93.236)">
          <path id="패스_4037" data-name="패스 4037" d="M722.909,292.54c-.435,0-.861-.012-1.273-.025a75.115,75.115,0,0,1-9.281-.917.729.729,0,1,1,.233-1.439,73.131,73.131,0,0,0,9.1.9,12.638,12.638,0,0,0,5.046-.548,13.955,13.955,0,0,0,3.422-2.186,16.6,16.6,0,0,1,3.486-2.273.729.729,0,0,1,.583,1.336,15.178,15.178,0,0,0-3.172,2.086,15.306,15.306,0,0,1-3.792,2.4A12.005,12.005,0,0,1,722.909,292.54Z" transform="translate(-711.743 -285.991)"/>
        </g>
        <g id="그룹_12287" data-name="그룹 12287" transform="translate(72.038 88.373)">
          <path id="패스_4038" data-name="패스 4038" d="M731.769,284.812a.728.728,0,0,1-.326-1.38,5.793,5.793,0,0,0,1.794-1.4.729.729,0,0,1,1.109.948,7.28,7.28,0,0,1-2.253,1.761A.721.721,0,0,1,731.769,284.812Z" transform="translate(-731.039 -281.773)"/>
        </g>
        <g id="그룹_12288" data-name="그룹 12288" transform="translate(109.44 51.199)">
          <path id="패스_4039" data-name="패스 4039" d="M764.213,256.613a.736.736,0,0,1-.723-.595.721.721,0,0,1,.575-.847l.017,0c1.365-.255,2.778-.517,4.121-.892a23.239,23.239,0,0,0,8.622-4.569.729.729,0,1,1,.94,1.114,24.678,24.678,0,0,1-9.168,4.858c-1.408.4-2.853.664-4.25.924A.765.765,0,0,1,764.213,256.613Z" transform="translate(-763.477 -249.533)"/>
        </g>
        <path id="패스_4040" data-name="패스 4040" d="M736.186,311.466c-2.316-.07-53.457-4.557-55.268-7.5-.127-.206-12.716-20.806-12.349-25.008.032-.38.074-.928.123-1.611l.016-.24c.453-6.269,1.515-20.948,4.521-26.247,3.238-5.7,15.478-23.107,16-23.846.824-1.459,5.02-8.73,8.05-11.038,3.459-2.636,27.142-10.847,31.284-10.847.088,0,.163,0,.233.01,3.343.334,21.919,10.373,24.844,13.425a62.489,62.489,0,0,1,4.051,5.3c3.166,4.393,7.484,10.382,9.842,11.23,3.932,1.417,15.235,5.81,17.613,6.92,2.616,1.221,11.423,11.415,14.194,16.031,1.966,3.279,2.262,13.807,2.306,16.958.02,1.349.141,13.251-1.485,15.023-1.98,2.161-27.013,14.234-30.391,15l-1.1.251c-16.116,3.7-26.545,5.765-31,6.129a.659.659,0,0,1-.151.015c-.428.028-.8.047-1.1.047Zm-46.54-81.709c-3.672,5.258-12.183,17.533-14.748,22.052-2.79,4.915-3.867,19.812-4.274,25.42l-.01.146c-.053.746-.1,1.343-.134,1.751-.242,2.795,8.734,18.4,12.03,23.764,2.672,1.745,47.8,6.478,53.73,6.658h.14c.236,0,.529-.01.884-.037,2.092-1.8,17.565-26.62,18.536-29.811,1.168-3.837,2.022-17.369,1.188-18.8-.489-.835-6.618-6.641-11.092-10.881-8.3-7.867-10.2-9.747-10.556-10.5-17.994,4.017-28.391,5.972-31.78,5.972a3.41,3.41,0,0,1-1.2-.155c-1.49-.6-5.087-4.621-7.8-8.108A44.288,44.288,0,0,1,689.646,229.757Zm69.485,32.414c.419,4.876-.649,15.31-1.5,18.09-.6,1.964-5.279,9.855-9.653,16.805-3.686,5.852-6.406,9.934-8.088,12.145,5.32-.752,14.852-2.7,28.344-5.807l1.1-.251c3.437-.782,27.9-12.782,29.4-14.427,1.306-1.62,1.557-22.618-.611-28.7-3.508,2.647-11.6,8.547-13.991,8.547C781.936,268.43,765.8,265.066,759.131,262.17Zm-21.864-23.21c1.1,1.276,5.939,5.865,9.854,9.576,6.512,6.17,10.494,9.968,11.388,11.2,4.188,2.643,23.337,6.765,25.666,6.922,1.264,0,7.613-4.235,13.053-8.351-3.151-4.848-10.936-13.64-12.9-14.555-2.345-1.1-13.548-5.45-17.452-6.855-2.918-1.052-7.075-6.819-10.742-11.906-1.13-1.57-2.2-3.054-3.044-4.112C750.761,224.451,741.838,236.706,737.268,238.96Zm-8.787-31.917c-3.518,0-27.092,8.211-30.041,10.457-2.748,2.1-7.016,9.53-7.494,10.371.029.42.973,2.836,5.128,8.178,3.277,4.219,6.183,7.181,6.993,7.505a1.893,1.893,0,0,0,.521.044c1.751,0,8.165-.777,31.459-5.981L736,237.4c3.34-.741,13.858-14.887,15.757-17.961-3.934-3.275-20.455-12.125-23.157-12.4Z" transform="translate(-668.561 -205.129)"/>
      </g>
    </g>
  </g>
</svg>
