<svg xmlns="http://www.w3.org/2000/svg" width="1238.136" height="371.556" viewBox="0 0 1238.136 371.556">
  <g id="그룹_5113" data-name="그룹 5113" transform="translate(-335.504 -112.687)">
    <g id="그룹_5057" data-name="그룹 5057" transform="translate(-14009.358 -17161.893)">
      <g id="패스_2258" data-name="패스 2258" transform="translate(13066.063 17104.377)" fill="#e9fffe" stroke-miterlimit="10">
        <path d="M 2452.579833984375 540.7589721679688 C 2447.9072265625 540.7589721679688 2443.330078125 539.9082641601562 2438.975341796875 538.23046875 L 2438.61572265625 538.0919189453125 L 2438.25634765625 538.2304077148438 C 2433.900634765625 539.9082641601562 2429.323486328125 540.7589721679688 2424.651611328125 540.7589721679688 C 2417.689208984375 540.7589721679688 2410.88427734375 538.8529052734375 2404.971923828125 535.246826171875 C 2399.224853515625 531.741455078125 2394.500244140625 526.7590942382812 2391.30908203125 520.8383178710938 L 2390.986328125 520.2395629882812 L 2390.310791015625 520.3197631835938 C 2388.76220703125 520.5037231445312 2387.242919921875 520.5969848632812 2385.795166015625 520.5969848632812 C 2380.683837890625 520.5969848632812 2375.72607421875 519.59619140625 2371.0595703125 517.6224365234375 C 2366.551513671875 515.7158203125 2362.5029296875 512.9861450195312 2359.02587890625 509.5091857910156 C 2355.549072265625 506.0322265625 2352.8193359375 501.983642578125 2350.91259765625 497.475830078125 C 2348.93896484375 492.8093872070312 2347.938232421875 487.851806640625 2347.938232421875 482.7407836914062 C 2347.938232421875 477.6295776367188 2348.93896484375 472.6718139648438 2350.91259765625 468.0052490234375 C 2352.8193359375 463.4973754882812 2355.549072265625 459.4486694335938 2359.02587890625 455.9716796875 C 2362.5029296875 452.4946594238281 2366.551513671875 449.7649230957031 2371.0595703125 447.8582763671875 C 2375.72607421875 445.884521484375 2380.683837890625 444.8837280273438 2385.795166015625 444.8837280273438 C 2391.279541015625 444.8837280273438 2396.58251953125 446.0409240722656 2401.556884765625 448.3231201171875 L 2402.604736328125 448.8038635253906 L 2402.9326171875 447.6986389160156 C 2404.079833984375 443.8320007324219 2405.834716796875 440.1870727539062 2408.14892578125 436.8650512695312 C 2410.43115234375 433.5884704589844 2413.202392578125 430.7034912109375 2416.38525390625 428.2902526855469 C 2419.602783203125 425.8506469726562 2423.162841796875 423.9536743164062 2426.966064453125 422.6520690917969 C 2430.900146484375 421.3056945800781 2435.02392578125 420.6230163574219 2439.222412109375 420.6230163574219 C 2443.535888671875 420.6230163574219 2447.766357421875 421.3423156738281 2451.79638671875 422.7608947753906 C 2455.691650390625 424.1320495605469 2459.32080078125 426.1262512207031 2462.583251953125 428.6881408691406 C 2465.814208984375 431.2253112792969 2468.597412109375 434.2491760253906 2470.855712890625 437.6757507324219 C 2473.150634765625 441.1583557128906 2474.84130859375 444.9648132324219 2475.880126953125 448.9894714355469 L 2476.080078125 449.764404296875 L 2476.880126953125 449.739013671875 C 2476.9677734375 449.7362060546875 2477.05517578125 449.7332153320312 2477.142822265625 449.7302551269531 C 2477.466064453125 449.7191772460938 2477.771240234375 449.7087097167969 2478.079833984375 449.7087097167969 C 2483.19091796875 449.7087097167969 2488.1484375 450.7095031738281 2492.81494140625 452.6832580566406 C 2497.32275390625 454.5899047851562 2501.37158203125 457.3196411132812 2504.8486328125 460.7966613769531 C 2508.32568359375 464.273681640625 2511.055419921875 468.3223571777344 2512.962158203125 472.8302307128906 C 2514.93603515625 477.4967956542969 2515.936767578125 482.4545288085938 2515.936767578125 487.565673828125 C 2515.936767578125 492.2129211425781 2515.104736328125 496.7505798339844 2513.463623046875 501.0525207519531 C 2511.878173828125 505.2085571289062 2509.586669921875 509.0255432128906 2506.65283203125 512.3974609375 C 2500.724853515625 519.2109985351562 2492.566650390625 523.6890869140625 2483.68115234375 525.0068969726562 L 2483.27099609375 525.0676879882812 L 2483.024169921875 525.4010009765625 C 2479.57373046875 530.0615234375 2475.03369140625 533.9252319335938 2469.894775390625 536.5743408203125 C 2467.27294921875 537.9259643554688 2464.4931640625 538.9673461914062 2461.6328125 539.6694946289062 C 2458.687744140625 540.3923950195312 2455.641845703125 540.7589721679688 2452.579833984375 540.7589721679688 Z" stroke="none"/>
        <path d="M 2439.222412109375 421.623046875 C 2435.13427734375 421.623046875 2431.11962890625 422.28759765625 2427.289794921875 423.5982055664062 C 2423.587646484375 424.8652954101562 2420.121826171875 426.7119750976562 2416.9892578125 429.0870971679688 C 2413.89013671875 431.4369506835938 2411.19189453125 434.2461547851562 2408.969482421875 437.4365844726562 C 2406.716552734375 440.6707763671875 2405.008056640625 444.2191162109375 2403.891357421875 447.9830932617188 L 2403.2353515625 450.1934204101562 L 2401.139892578125 449.2319946289062 C 2396.297119140625 447.01025390625 2391.134521484375 445.8837280273438 2385.795166015625 445.8837280273438 C 2380.818359375 445.8837280273438 2375.99169921875 446.85791015625 2371.448974609375 448.779296875 C 2367.060302734375 450.635498046875 2363.118408203125 453.2932434082031 2359.733154296875 456.6787719726562 C 2356.34765625 460.0642395019531 2353.68994140625 464.006103515625 2351.833740234375 468.3948059082031 C 2349.912353515625 472.9374389648438 2348.938232421875 477.7641296386719 2348.938232421875 482.7407836914062 C 2348.938232421875 487.7172546386719 2349.912353515625 492.5437622070312 2351.833740234375 497.0863037109375 C 2353.68994140625 501.4748840332031 2356.34765625 505.4166259765625 2359.733154296875 508.8020629882812 C 2363.118408203125 512.1875 2367.060302734375 514.8452758789062 2371.448974609375 516.701416015625 C 2375.99169921875 518.622802734375 2380.818359375 519.5969848632812 2385.795166015625 519.5969848632812 C 2387.20361328125 519.5969848632812 2388.683349609375 519.506103515625 2390.19287109375 519.3267822265625 L 2391.543701171875 519.166259765625 L 2392.189208984375 520.3638916015625 C 2395.296630859375 526.1287841796875 2399.896728515625 530.97998046875 2405.49267578125 534.3931274414062 C 2411.248046875 537.9034423828125 2417.873046875 539.7589111328125 2424.651611328125 539.7589111328125 C 2429.2001953125 539.7589111328125 2433.656494140625 538.9307250976562 2437.896728515625 537.2972412109375 L 2438.61572265625 537.020263671875 L 2439.334716796875 537.2973022460938 C 2443.574462890625 538.9307250976562 2448.030517578125 539.7589111328125 2452.579833984375 539.7589111328125 C 2455.5615234375 539.7589111328125 2458.52734375 539.402099609375 2461.394287109375 538.6983032226562 C 2464.178466796875 538.014892578125 2466.88427734375 537.001220703125 2469.436767578125 535.6854248046875 C 2474.440185546875 533.1061401367188 2478.860595703125 529.3441162109375 2482.220458984375 524.8059692382812 L 2482.714111328125 524.1393432617188 L 2483.534423828125 524.0177001953125 C 2492.184326171875 522.73486328125 2500.126708984375 518.375 2505.8984375 511.7410888671875 C 2508.7548828125 508.4580688476562 2510.98583984375 504.7419738769531 2512.529296875 500.6960754394531 C 2514.126708984375 496.5083923339844 2514.936767578125 492.0906677246094 2514.936767578125 487.565673828125 C 2514.936767578125 482.5890808105469 2513.962646484375 477.7624206542969 2512.041015625 473.2197875976562 C 2510.184814453125 468.8311157226562 2507.527099609375 464.8893127441406 2504.1416015625 461.5037841796875 C 2500.755859375 458.1182861328125 2496.814208984375 455.4605102539062 2492.425537109375 453.6042785644531 C 2487.8828125 451.6829528808594 2483.056396484375 450.708740234375 2478.079833984375 450.708740234375 C 2477.7880859375 450.708740234375 2477.490966796875 450.7189025878906 2477.17626953125 450.7296752929688 C 2477.088134765625 450.7326965332031 2477 450.7356872558594 2476.911865234375 450.7384948730469 L 2475.31201171875 450.7892761230469 L 2474.911865234375 449.2393798828125 C 2473.900634765625 445.32177734375 2472.2548828125 441.6163330078125 2470.0205078125 438.22607421875 C 2467.82177734375 434.8895874023438 2465.111572265625 431.9451904296875 2461.965576171875 429.4746704101562 C 2458.789306640625 426.9804077148438 2455.256103515625 425.0389404296875 2451.46435546875 423.7041625976562 C 2447.541259765625 422.3232421875 2443.42236328125 421.623046875 2439.222412109375 421.623046875 M 2439.222412109375 419.623046875 C 2457.319580078125 419.623046875 2472.525634765625 431.993896484375 2476.848388671875 448.739501953125 C 2477.258056640625 448.7265014648438 2477.666748046875 448.708740234375 2478.079833984375 448.708740234375 C 2499.53955078125 448.708740234375 2516.936767578125 466.1052856445312 2516.936767578125 487.565673828125 C 2516.936767578125 507.0719604492188 2502.561279296875 523.2177734375 2483.827880859375 525.9960327148438 C 2476.748779296875 535.5578002929688 2465.39013671875 541.7589111328125 2452.579833984375 541.7589111328125 C 2447.65625 541.7589111328125 2442.950439453125 540.8336791992188 2438.61572265625 539.16357421875 C 2434.2802734375 540.8336791992188 2429.574951171875 541.7589111328125 2424.651611328125 541.7589111328125 C 2409.853515625 541.7589111328125 2396.98974609375 533.4852905273438 2390.4287109375 521.3128051757812 C 2388.908203125 521.493408203125 2387.363037109375 521.5969848632812 2385.795166015625 521.5969848632812 C 2364.334228515625 521.5969848632812 2346.938232421875 504.2005004882812 2346.938232421875 482.7407836914062 C 2346.938232421875 461.2802734375 2364.334228515625 443.8837280273438 2385.795166015625 443.8837280273438 C 2391.571044921875 443.8837280273438 2397.047119140625 445.1538696289062 2401.973876953125 447.4141845703125 C 2406.740966796875 431.3469848632812 2421.609619140625 419.623046875 2439.222412109375 419.623046875 Z" stroke="none" fill="#000"/>
      </g>
    </g>
    <g id="그룹_5062" data-name="그룹 5062" transform="translate(-15077.496 -17411.313)">
      <g id="패스_2258-2" data-name="패스 2258" transform="translate(13066.063 17104.377)" fill="#e9fffe" stroke-miterlimit="10">
        <path d="M 2428.338623046875 512.7332763671875 C 2424.766845703125 512.7332763671875 2421.267822265625 512.0828857421875 2417.938720703125 510.8002624511719 L 2417.5791015625 510.6617736816406 L 2417.2197265625 510.8002319335938 C 2413.8896484375 512.0828857421875 2410.390380859375 512.7332763671875 2406.819091796875 512.7332763671875 C 2396.15966796875 512.7332763671875 2386.392578125 506.8978881835938 2381.329345703125 497.5043029785156 L 2381.006591796875 496.905517578125 L 2380.3310546875 496.9857482910156 C 2379.14697265625 497.1263732910156 2377.985595703125 497.1976928710938 2376.878662109375 497.1976928710938 C 2372.97119140625 497.1976928710938 2369.18115234375 496.4326477050781 2365.61376953125 494.9238586425781 C 2362.167724609375 493.46630859375 2359.072509765625 491.3794860839844 2356.414306640625 488.7213439941406 C 2353.75634765625 486.063232421875 2351.66943359375 482.9681396484375 2350.2119140625 479.5220947265625 C 2348.703125 475.9548645019531 2347.93798828125 472.1649169921875 2347.93798828125 468.257568359375 C 2347.93798828125 464.3500671386719 2348.703125 460.5600280761719 2350.2119140625 456.9927062988281 C 2351.66943359375 453.5465698242188 2353.75634765625 450.451416015625 2356.414306640625 447.7932434082031 C 2359.072509765625 445.1350708007812 2362.167724609375 443.0482177734375 2365.61376953125 441.5906372070312 C 2369.18115234375 440.0818176269531 2372.97119140625 439.3167724609375 2376.878662109375 439.3167724609375 C 2381.0712890625 439.3167724609375 2385.12548828125 440.201416015625 2388.928466796875 441.9460754394531 L 2389.976318359375 442.4267578125 L 2390.30419921875 441.3215942382812 C 2391.18115234375 438.36572265625 2392.522705078125 435.579345703125 2394.291748046875 433.0397644042969 C 2396.036376953125 430.5347595214844 2398.155029296875 428.3291931152344 2400.588134765625 426.4842529296875 C 2403.048095703125 424.6192321777344 2405.769287109375 423.1690979003906 2408.6767578125 422.174072265625 C 2411.684326171875 421.1448669433594 2414.836669921875 420.6229858398438 2418.046630859375 420.6229858398438 C 2421.34423828125 420.6229858398438 2424.578369140625 421.1728515625 2427.658935546875 422.2572631835938 C 2430.63671875 423.3054504394531 2433.4111328125 424.8299865722656 2435.905029296875 426.7884826660156 C 2438.375244140625 428.7281799316406 2440.5029296875 431.0399475097656 2442.229248046875 433.6595764160156 C 2443.98388671875 436.3218688964844 2445.276123046875 439.2317199707031 2446.0703125 442.3082885742188 L 2446.270263671875 443.0831909179688 L 2447.0703125 443.0578308105469 C 2447.138671875 443.0556640625 2447.206787109375 443.0533447265625 2447.275146484375 443.0509948730469 C 2447.521728515625 443.0425720214844 2447.75439453125 443.0346069335938 2447.987548828125 443.0346069335938 C 2451.89501953125 443.0346069335938 2455.684814453125 443.7996520996094 2459.252197265625 445.3084716796875 C 2462.6982421875 446.7660522460938 2465.79345703125 448.8529052734375 2468.45166015625 451.5110473632812 C 2471.10986328125 454.1692504882812 2473.19677734375 457.2643737792969 2474.654296875 460.7105102539062 C 2476.1630859375 464.27783203125 2476.92822265625 468.06787109375 2476.92822265625 471.975341796875 C 2476.92822265625 475.5281982421875 2476.292236328125 478.9970703125 2475.03759765625 482.2856750488281 C 2473.82568359375 485.4627990722656 2472.073974609375 488.3807678222656 2469.8310546875 490.9585571289062 C 2465.299072265625 496.1674194335938 2459.0625 499.5908508300781 2452.27001953125 500.5982360839844 L 2451.85986328125 500.6590576171875 L 2451.613037109375 500.9923706054688 C 2448.97509765625 504.5553283691406 2445.50439453125 507.5090942382812 2441.57568359375 509.5343627929688 C 2439.5712890625 510.5675964355469 2437.4462890625 511.3636474609375 2435.259765625 511.900390625 C 2433.00830078125 512.4530639648438 2430.6796875 512.7332763671875 2428.338623046875 512.7332763671875 Z" stroke="none"/>
        <path d="M 2418.046630859375 421.6229858398438 C 2414.947021484375 421.6229858398438 2411.903564453125 422.126708984375 2409.00048828125 423.1202087402344 C 2406.194091796875 424.0806579589844 2403.567138671875 425.4805908203125 2401.1923828125 427.2810974121094 C 2398.8427734375 429.0626525878906 2396.797119140625 431.1924438476562 2395.1123046875 433.611328125 C 2393.404541015625 436.0630187988281 2392.109375 438.7528381347656 2391.262939453125 441.6060180664062 L 2390.607177734375 443.8163757324219 L 2388.511474609375 442.8550109863281 C 2384.84033203125 441.1707458496094 2380.92626953125 440.3167724609375 2376.878662109375 440.3167724609375 C 2373.105712890625 440.3167724609375 2369.44677734375 441.0552368164062 2366.00341796875 442.5116577148438 C 2362.676513671875 443.9187927246094 2359.688232421875 445.9336853027344 2357.12158203125 448.5003662109375 C 2354.554931640625 451.0670166015625 2352.5400390625 454.0553283691406 2351.1328125 457.3822631835938 C 2349.676513671875 460.8256530761719 2348.93798828125 464.484619140625 2348.93798828125 468.257568359375 C 2348.93798828125 472.0303649902344 2349.676513671875 475.6892395019531 2351.1328125 479.1325378417969 C 2352.5400390625 482.4593811035156 2354.554931640625 485.4476318359375 2357.12158203125 488.0142211914062 C 2359.688232421875 490.5808410644531 2362.676513671875 492.595703125 2366.00341796875 494.0028381347656 C 2369.44677734375 495.459228515625 2373.105712890625 496.1976928710938 2376.878662109375 496.1976928710938 C 2377.9462890625 496.1976928710938 2379.068115234375 496.1287231445312 2380.213134765625 495.9927062988281 L 2381.56396484375 495.8322143554688 L 2382.20947265625 497.02978515625 C 2387.09814453125 506.0992431640625 2396.528076171875 511.7332763671875 2406.819091796875 511.7332763671875 C 2410.26708984375 511.7332763671875 2413.645263671875 511.1054077148438 2416.860107421875 509.8670654296875 L 2417.5791015625 509.5901184082031 L 2418.298095703125 509.8671264648438 C 2421.51220703125 511.1054077148438 2424.890380859375 511.7332763671875 2428.338623046875 511.7332763671875 C 2430.599365234375 511.7332763671875 2432.84765625 511.4627685546875 2435.021240234375 510.92919921875 C 2437.131591796875 510.4111633300781 2439.1826171875 509.642822265625 2441.117431640625 508.6454772949219 C 2444.91064453125 506.6900329589844 2448.26220703125 503.837890625 2450.809326171875 500.3973693847656 L 2451.302978515625 499.730712890625 L 2452.123291015625 499.6090393066406 C 2458.68017578125 498.6365966796875 2464.701171875 495.3313293457031 2469.07666015625 490.3021850585938 C 2471.2421875 487.8132934570312 2472.933349609375 484.9962463378906 2474.103271484375 481.9292602539062 C 2475.314208984375 478.7549133300781 2475.92822265625 475.4059143066406 2475.92822265625 471.975341796875 C 2475.92822265625 468.2024230957031 2475.189697265625 464.54345703125 2473.7333984375 461.1000366210938 C 2472.326171875 457.7731323242188 2470.311279296875 454.7848510742188 2467.74462890625 452.2181701660156 C 2465.177978515625 449.6515197753906 2462.189453125 447.6366271972656 2458.862548828125 446.2294921875 C 2455.419189453125 444.7730712890625 2451.760498046875 444.0346069335938 2447.987548828125 444.0346069335938 C 2447.771240234375 444.0346069335938 2447.546630859375 444.0422973632812 2447.308837890625 444.0504150390625 C 2447.239990234375 444.0527954101562 2447.1708984375 444.0551452636719 2447.101806640625 444.0573425292969 L 2445.502197265625 444.1080017089844 L 2445.10205078125 442.5582275390625 C 2444.33544921875 439.5886840820312 2443.088134765625 436.7798461914062 2441.394287109375 434.2098693847656 C 2439.727294921875 431.6803283691406 2437.672607421875 429.4480285644531 2435.287353515625 427.574951171875 C 2432.879638671875 425.6841125488281 2430.201171875 424.2123413085938 2427.326904296875 423.2005310058594 C 2424.353271484375 422.1537475585938 2421.23095703125 421.6229858398438 2418.046630859375 421.6229858398438 M 2418.046630859375 419.6229858398438 C 2431.990966796875 419.6229858398438 2443.707763671875 429.1552124023438 2447.03857421875 442.058349609375 C 2447.354248046875 442.04833984375 2447.669189453125 442.0346069335938 2447.987548828125 442.0346069335938 C 2464.523193359375 442.0346069335938 2477.92822265625 455.4392700195312 2477.92822265625 471.975341796875 C 2477.92822265625 487.0056762695312 2466.8515625 499.4465942382812 2452.416748046875 501.58740234375 C 2446.962158203125 508.9550170898438 2438.20947265625 513.7332763671875 2428.338623046875 513.7332763671875 C 2424.544921875 513.7332763671875 2420.919189453125 513.020263671875 2417.5791015625 511.7333984375 C 2414.23828125 513.020263671875 2410.613037109375 513.7332763671875 2406.819091796875 513.7332763671875 C 2395.416748046875 513.7332763671875 2385.504638671875 507.3580932617188 2380.448974609375 497.978759765625 C 2379.277587890625 498.117919921875 2378.087158203125 498.1976928710938 2376.878662109375 498.1976928710938 C 2360.342529296875 498.1976928710938 2346.93798828125 484.7930908203125 2346.93798828125 468.257568359375 C 2346.93798828125 451.7214965820312 2360.342529296875 438.3167724609375 2376.878662109375 438.3167724609375 C 2381.329345703125 438.3167724609375 2385.549072265625 439.2955322265625 2389.345458984375 441.0371704101562 C 2393.0185546875 428.65673828125 2404.474853515625 419.6229858398438 2418.046630859375 419.6229858398438 Z" stroke="none" fill="#000"/>
      </g>
    </g>
    <g id="그룹_5058" data-name="그룹 5058" transform="translate(-14505 -17137.576)">
      <g id="패스_2258-3" data-name="패스 2258" transform="translate(13066.063 17104.377)" fill="#e9fffe" stroke-miterlimit="10">
        <path d="M 2404.10302734375 484.713623046875 C 2401.63134765625 484.713623046875 2399.210205078125 484.2635803222656 2396.906494140625 483.3760070800781 L 2396.546875 483.2375183105469 L 2396.1875 483.3759765625 C 2393.883056640625 484.2635803222656 2391.461669921875 484.713623046875 2388.990478515625 484.713623046875 C 2381.6142578125 484.713623046875 2374.855712890625 480.6755676269531 2371.35205078125 474.1752624511719 L 2371.029296875 473.5764770507812 L 2370.353759765625 473.6566772460938 C 2369.53369140625 473.7540893554688 2368.72998046875 473.803466796875 2367.96435546875 473.803466796875 C 2365.26025390625 473.803466796875 2362.6376953125 473.2741088867188 2360.16943359375 472.2301330566406 C 2357.78466796875 471.2215576171875 2355.64306640625 469.7774658203125 2353.803466796875 467.93798828125 C 2351.964111328125 466.0985412597656 2350.52001953125 463.9567565917969 2349.51123046875 461.5722045898438 C 2348.46728515625 459.1039428710938 2347.93798828125 456.4814147949219 2347.93798828125 453.7774658203125 C 2347.93798828125 451.0734252929688 2348.46728515625 448.4508056640625 2349.51123046875 445.9824829101562 C 2350.52001953125 443.5978698730469 2351.964111328125 441.4560546875 2353.803466796875 439.6165771484375 C 2355.64306640625 437.7770690917969 2357.78466796875 436.3329772949219 2360.16943359375 435.3243713378906 C 2362.6376953125 434.2803955078125 2365.26025390625 433.7510375976562 2367.96435546875 433.7510375976562 C 2370.865478515625 433.7510375976562 2373.6708984375 434.3631591796875 2376.30224609375 435.5703735351562 L 2377.35009765625 436.0510864257812 L 2377.677978515625 434.9458923339844 C 2378.28466796875 432.9006652832031 2379.213134765625 430.9726257324219 2380.437255859375 429.21533203125 C 2381.644775390625 427.4817810058594 2383.11083984375 425.9554443359375 2384.794677734375 424.6786804199219 C 2388.2939453125 422.0254211425781 2392.471435546875 420.6229858398438 2396.875244140625 420.6229858398438 C 2399.1572265625 420.6229858398438 2401.395263671875 421.0034484863281 2403.52685546875 421.7538146972656 C 2405.587158203125 422.4790649414062 2407.507080078125 423.5339965820312 2409.23291015625 424.8892211914062 C 2410.942138671875 426.2315673828125 2412.414794921875 427.8313903808594 2413.609375 429.6442565917969 C 2414.823486328125 431.4864196777344 2415.717529296875 433.4998168945312 2416.26708984375 435.6285400390625 L 2416.467041015625 436.4034423828125 L 2417.26708984375 436.3781127929688 L 2417.4111328125 436.373291015625 C 2417.581787109375 436.3674621582031 2417.742919921875 436.3619384765625 2417.90185546875 436.3619384765625 C 2420.605712890625 436.3619384765625 2423.228271484375 436.8912963867188 2425.696533203125 437.9352722167969 C 2428.081298828125 438.9438781738281 2430.22314453125 440.3879699707031 2432.0625 442.2274780273438 C 2433.902099609375 444.0669860839844 2435.34619140625 446.2088012695312 2436.354736328125 448.5934143066406 C 2437.39892578125 451.0617370605469 2437.92822265625 453.6843566894531 2437.92822265625 456.3883666992188 C 2437.92822265625 461.2192687988281 2436.18408203125 465.8843383789062 2433.017333984375 469.5242309570312 C 2429.881103515625 473.1287536621094 2425.565673828125 475.4977111816406 2420.865478515625 476.1947937011719 L 2420.455322265625 476.255615234375 L 2420.20849609375 476.5889282226562 C 2418.383056640625 479.0546264648438 2415.981201171875 481.0986938476562 2413.262451171875 482.5002136230469 C 2410.413330078125 483.9689331054688 2407.33154296875 484.713623046875 2404.10302734375 484.713623046875 Z" stroke="none"/>
        <path d="M 2396.875244140625 421.6229858398438 C 2392.69140625 421.6229858398438 2388.722900390625 422.9551696777344 2385.39892578125 425.4755249023438 C 2383.798583984375 426.6889038085938 2382.4052734375 428.1394653320312 2381.257568359375 429.7868957519531 C 2380.0947265625 431.4563293457031 2379.212890625 433.2877807617188 2378.63671875 435.2303466796875 L 2377.980712890625 437.4407043457031 L 2375.88525390625 436.4792785644531 C 2373.3857421875 435.33251953125 2370.720703125 434.7510375976562 2367.96435546875 434.7510375976562 C 2362.882080078125 434.7510375976562 2358.104248046875 436.7301025390625 2354.510498046875 440.3236694335938 C 2350.9169921875 443.917236328125 2348.93798828125 448.6952209472656 2348.93798828125 453.7774658203125 C 2348.93798828125 458.8595275878906 2350.9169921875 463.6373901367188 2354.510498046875 467.2308959960938 C 2358.104248046875 470.8244323730469 2362.882080078125 472.803466796875 2367.96435546875 472.803466796875 C 2368.690673828125 472.803466796875 2369.454833984375 472.7564392089844 2370.23583984375 472.6636962890625 L 2371.586669921875 472.5032348632812 L 2372.232177734375 473.7007751464844 C 2375.561279296875 479.8769226074219 2381.982666015625 483.713623046875 2388.990478515625 483.713623046875 C 2391.33837890625 483.713623046875 2393.638916015625 483.2860412597656 2395.827880859375 482.4428100585938 L 2396.546875 482.1658630371094 L 2397.265869140625 482.4428405761719 C 2399.45458984375 483.2860717773438 2401.7548828125 483.713623046875 2404.10302734375 483.713623046875 C 2407.170654296875 483.713623046875 2410.09814453125 483.0063171386719 2412.80419921875 481.6113586425781 C 2415.387451171875 480.2796630859375 2417.669921875 478.337158203125 2419.40478515625 475.993896484375 L 2419.8984375 475.3272705078125 L 2420.71875 475.2055969238281 C 2425.183349609375 474.54345703125 2429.282958984375 472.2926635742188 2432.262939453125 468.8678283691406 C 2435.271240234375 465.4099731445312 2436.92822265625 460.9779968261719 2436.92822265625 456.3883666992188 C 2436.92822265625 451.3061828613281 2434.94921875 446.5281982421875 2431.35546875 442.9346008300781 C 2427.76171875 439.3410034179688 2422.98388671875 437.3619384765625 2417.90185546875 437.3619384765625 C 2417.76025390625 437.3619384765625 2417.607666015625 437.3671569824219 2417.446044921875 437.3726806640625 L 2417.298583984375 437.3775939941406 L 2415.698974609375 437.42822265625 L 2415.298828125 435.8784790039062 C 2414.77685546875 433.8567810058594 2413.927490234375 431.9443969726562 2412.7744140625 430.1945190429688 C 2411.63916015625 428.4717712402344 2410.23974609375 426.951416015625 2408.615234375 425.6757202148438 C 2406.9755859375 424.3881225585938 2405.15185546875 423.385986328125 2403.19482421875 422.6970825195312 C 2401.170166015625 421.9843444824219 2399.0439453125 421.6229858398438 2396.875244140625 421.6229858398438 M 2396.875244140625 419.6229858398438 C 2406.66796875 419.6229858398438 2414.896240234375 426.317138671875 2417.2353515625 435.3786010742188 C 2417.45703125 435.37158203125 2417.67822265625 435.3619384765625 2417.90185546875 435.3619384765625 C 2429.51416015625 435.3619384765625 2438.92822265625 444.7756042480469 2438.92822265625 456.3883666992188 C 2438.92822265625 466.9436645507812 2431.1494140625 475.6805114746094 2421.01220703125 477.1839599609375 C 2417.181640625 482.3579711914062 2411.034912109375 485.713623046875 2404.10302734375 485.713623046875 C 2401.438720703125 485.713623046875 2398.892578125 485.212890625 2396.546875 484.3091430664062 C 2394.20068359375 485.212890625 2391.65478515625 485.713623046875 2388.990478515625 485.713623046875 C 2380.98291015625 485.713623046875 2374.02197265625 481.2365112304688 2370.4716796875 474.6497192382812 C 2369.64892578125 474.7474365234375 2368.81298828125 474.803466796875 2367.96435546875 474.803466796875 C 2356.3515625 474.803466796875 2346.93798828125 465.3898315429688 2346.93798828125 453.7774658203125 C 2346.93798828125 442.1647033691406 2356.3515625 432.7510375976562 2367.96435546875 432.7510375976562 C 2371.08984375 432.7510375976562 2374.05322265625 433.4383544921875 2376.71923828125 434.6614685058594 C 2379.298828125 425.9671020507812 2387.34423828125 419.6229858398438 2396.875244140625 419.6229858398438 Z" stroke="none" fill="#000"/>
      </g>
    </g>
  </g>
</svg>
