<svg xmlns="http://www.w3.org/2000/svg" width="114.877" height="130.259" viewBox="0 0 114.877 130.259">
  <g id="그룹_5090" data-name="그룹 5090" transform="translate(-569.189 -1278.236)">
    <g id="그룹_5091" data-name="그룹 5091">
      <g id="그룹_5088" data-name="그룹 5088">
        <g id="그룹_5087" data-name="그룹 5087" transform="translate(800.777 -1115.661)">
          <g id="그룹_5084" data-name="그룹 5084">
            <rect id="사각형_555" data-name="사각형 555" width="30.372" height="14.658" rx="3.788" transform="translate(-151.774 2428.439) rotate(-26.328)" fill="#fff" stroke="#000" stroke-linecap="round" stroke-linejoin="round" stroke-width="2"/>
            <path id="패스_2297" data-name="패스 2297" d="M-136.128,2425.852l-4.9,6.05-4.051-1.612Z" fill="none" stroke="#007dff" stroke-linecap="round" stroke-linejoin="round" stroke-width="1"/>
            <path id="패스_2298" data-name="패스 2298" d="M-136.128,2425.852l-4.9,6.05,2.418,3.628Z" fill="none" stroke="#007dff" stroke-linecap="round" stroke-linejoin="round" stroke-width="1"/>
            <path id="패스_2299" data-name="패스 2299" d="M-142.324,2431.387l.951,3.616,1.087-1.987" fill="none" stroke="#007dff" stroke-linecap="round" stroke-linejoin="round" stroke-width="1"/>
            <path id="패스_2300" data-name="패스 2300" d="M-131.174,2418.245a1.441,1.441,0,0,1-.652,1.931l.888,1.8a1.441,1.441,0,0,1,1.931.652,1.443,1.443,0,0,1-.652,1.932l.888,1.8a1.441,1.441,0,0,1,1.931.653,1.442,1.442,0,0,1-.652,1.931l.888,1.795a1.441,1.441,0,0,1,1.931.653" fill="#fff" stroke="#000" stroke-linecap="round" stroke-linejoin="round" stroke-width="2"/>
          </g>
          <g id="그룹_5086" data-name="그룹 5086">
            <rect id="사각형_556" data-name="사각형 556" width="30.372" height="14.658" rx="3.788" transform="translate(-149.09 2437.763) rotate(-0.118)" fill="#fff" stroke="#000" stroke-linecap="round" stroke-linejoin="round" stroke-width="2"/>
            <g id="그룹_5085" data-name="그룹 5085">
              <path id="패스_2301" data-name="패스 2301" d="M-133.91,2442.352l-7.069,3.264-2.923-3.235Z" fill="none" stroke="#007dff" stroke-linecap="round" stroke-linejoin="round" stroke-width="1"/>
              <path id="패스_2302" data-name="패스 2302" d="M-133.91,2442.352l-7.069,3.264.566,4.323Z" fill="none" stroke="#007dff" stroke-linecap="round" stroke-linejoin="round" stroke-width="1"/>
              <path id="패스_2303" data-name="패스 2303" d="M-141.914,2444.581l-.744,3.664,1.852-1.3" fill="none" stroke="#007dff" stroke-linecap="round" stroke-linejoin="round" stroke-width="1"/>
            </g>
            <path id="패스_2304" data-name="패스 2304" d="M-126.106,2437.715a1.442,1.442,0,0,1-1.438,1.445l0,2a1.44,1.44,0,0,1,1.444,1.438,1.442,1.442,0,0,1-1.438,1.445l0,2a1.442,1.442,0,0,1,1.445,1.438,1.442,1.442,0,0,1-1.439,1.445l0,2a1.442,1.442,0,0,1,1.445,1.439" fill="#fff" stroke="#000" stroke-linecap="round" stroke-linejoin="round" stroke-width="2"/>
          </g>
        </g>
        <g id="그룹_5076" data-name="그룹 5076" transform="translate(-466.809 -933.885) rotate(18)">
          <path id="패스_2294" data-name="패스 2294" d="M1760.225,1905.263v43.229c0,7.481-5.52,13.549-12.325,13.549h-33.061c-6.8,0-12.325-6.068-12.325-13.549v-43.229c0-7.489,5.521-13.549,12.325-13.549H1747.9C1754.705,1891.714,1760.225,1897.773,1760.225,1905.263Z" transform="translate(0 -78.879)" fill="#ffe878" stroke="#000" stroke-linejoin="round" stroke-width="2"/>
          <circle id="타원_2387" data-name="타원 2387" cx="4.706" cy="4.706" r="4.706" transform="translate(1711.461 1883.162)" fill="#e9fffe" stroke="#000" stroke-linejoin="round" stroke-width="2"/>
          <circle id="타원_2388" data-name="타원 2388" cx="4.706" cy="4.706" r="4.706" transform="translate(1741.866 1883.162)" fill="#e9fffe" stroke="#000" stroke-linejoin="round" stroke-width="2"/>
          <line id="선_292" data-name="선 292" y2="34.29" transform="translate(1716.167 1831.233)" fill="none" stroke="#000" stroke-linecap="round" stroke-linejoin="round" stroke-width="2"/>
          <line id="선_293" data-name="선 293" y2="34.29" transform="translate(1731.37 1831.233)" fill="none" stroke="#000" stroke-linecap="round" stroke-linejoin="round" stroke-width="2"/>
          <line id="선_294" data-name="선 294" y2="34.29" transform="translate(1746.572 1831.233)" fill="none" stroke="#000" stroke-linecap="round" stroke-linejoin="round" stroke-width="2"/>
          <rect id="사각형_548" data-name="사각형 548" width="21.279" height="10.472" transform="translate(1720.73 1768.188)" fill="#ffe878" stroke="#000" stroke-linejoin="round" stroke-width="2"/>
          <line id="선_295" data-name="선 295" y2="34.175" transform="translate(1720.73 1778.66)" fill="none" stroke="#000" stroke-linejoin="round" stroke-width="2"/>
          <line id="선_296" data-name="선 296" y2="34.175" transform="translate(1742.009 1778.66)" fill="none" stroke="#000" stroke-linejoin="round" stroke-width="2"/>
        </g>
      </g>
    </g>
  </g>
</svg>
