<svg xmlns="http://www.w3.org/2000/svg" xmlns:xlink="http://www.w3.org/1999/xlink" width="66.12" height="53.916" viewBox="0 0 66.12 53.916">
  <defs>
    <linearGradient id="linear-gradient" x1="0.245" y1="0.114" x2="0.852" y2="0.858" gradientUnits="objectBoundingBox">
      <stop offset="0" stop-color="#00d2ff"/>
      <stop offset="1" stop-color="#007dff"/>
    </linearGradient>
  </defs>
  <g id="그룹_5082" data-name="그룹 5082" transform="translate(-1727.756 -1925.561)">
    <path id="패스_2295" data-name="패스 2295" d="M1793,1945.56c-.359-.74-.807-1.359-1.17-2a2.9,2.9,0,0,0,.109-3.051l-1.02-2.045a2.316,2.316,0,0,0-.7-.818l0,0c-.633-2.1-1.181-4.211-1.637-6.359-.685-3.22-6.082-2.561-5.811.786.068.848.186,1.677.332,2.495-2.341,1.088-3.947,3.9-5.235,6.008a33.552,33.552,0,0,0-2.356,4.7c-.509,1.226-1.135,3.982-2.365,4.709-1.809,1.069-7.383-5.518-8.852-6.887l-10.024-9.342c-1.722-1.6-5.29-.608-5.05,2.092.54,6.078,1.386,12.216,1.545,18.318.027,1.058.339,3.46-.277,4.363-.785,1.153-3.363.9-4.562.918-3.184.038-6.375-.038-9.559-.061a3,3,0,0,0-1.194.225c-2.469.032-4.09,3.871-1.432,5.59,3.653,2.363,5.05,6.129,8.08,9.019a14.661,14.661,0,0,0,9.169,3.72c3.991.287,7.986-.787,11.842-1.671l13.185-3.02c3.391-.776,7.494-1.038,9.839-3.912,2.165-2.653,2.387-6.562,3.852-9.608,1.548-3.222,3.358-6.368,3.816-9.97A7.073,7.073,0,0,0,1793,1945.56Z" transform="translate(-0.938 -0.737)" fill="#fff"/>
    <path id="패스_2296" data-name="패스 2296" d="M1793.708,1944.146a33.776,33.776,0,0,0-7.4-17.982,1.626,1.626,0,0,0-2.659.186l-12.326,20.544-21.122-19.239a1.627,1.627,0,0,0-2.723,1.2l0,27.838H1729.38c-.017,0-.034,0-.051,0a1.521,1.521,0,0,0-.182.016c-.029,0-.059.008-.088.013a1.682,1.682,0,0,0-.2.056l-.047.014a1.571,1.571,0,0,0-.229.108c-.024.013-.046.029-.069.045a1.515,1.515,0,0,0-.145.1c-.025.02-.048.041-.072.062s-.043.034-.062.054-.037.043-.057.065-.042.046-.062.071a1.655,1.655,0,0,0-.107.151c-.013.022-.028.041-.04.063a1.633,1.633,0,0,0-.11.234c-.005.017-.01.035-.015.052a1.643,1.643,0,0,0-.055.206c0,.012-.007.022-.009.035s0,.033,0,.049a1.625,1.625,0,0,0-.015.186c0,.029,0,.057,0,.087a1.693,1.693,0,0,0,.021.209c0,.017,0,.034.006.051a1.593,1.593,0,0,0,.062.232l.01.028,0,.006a34.07,34.07,0,0,0,20.124,20.477c.014,0,.029.006.043.012a1.605,1.605,0,0,0,.185.05l.077.018a1.622,1.622,0,0,0,.264.023h0a1.6,1.6,0,0,0,.237-.019l.043-.006.038-.006,33.456-6.691a1.615,1.615,0,0,0,.206-.061c.025-.008.049-.012.073-.021a1.627,1.627,0,0,0,.269-.136c.006,0,.011-.01.018-.013a1.606,1.606,0,0,0,.217-.168l.01-.007a33.953,33.953,0,0,0,6.011-7.479,33.485,33.485,0,0,0,2.81-6,33.828,33.828,0,0,0,1.936-11.327C1793.875,1946.4,1793.819,1945.254,1793.708,1944.146Zm-34.523,22.985-8.444-2.986,0-28.235c1.063,3.758,2.387,7.43,3.809,11.079a101.6,101.6,0,0,0,7.485,15.4Zm3.355-5.592a103.678,103.678,0,0,0-4.97-15.747,114.877,114.877,0,0,0-5.572-12.1l17.621,16.049Zm-15.057-1.589v3.045l-8.615-3.045Zm-12.355,5.779a30.581,30.581,0,0,1-2.828-4.649l24.234,8.566-8.247,6.354A30.66,30.66,0,0,1,1735.128,1965.728Zm19.933,9.159,5.321-4.1,10.369.961-15.588,3.119Zm33.809-17.105a30.174,30.174,0,0,1-2.54,5.423,30.678,30.678,0,0,1-4.913,6.264l-18.8-1.743,1.631-2.719L1785.2,1930.1a30.51,30.51,0,0,1,5.271,14.369c.1,1,.151,2.035.151,3.07A30.561,30.561,0,0,1,1788.87,1957.782Z" fill="url(#linear-gradient)"/>
  </g>
</svg>
