<svg xmlns="http://www.w3.org/2000/svg" width="230" height="201" viewBox="0 0 230 201">
  <g id="그룹_5095" data-name="그룹 5095" transform="translate(-3577.525 -2497.169)">
    <g id="그룹_5094" data-name="그룹 5094" transform="translate(3619.942 2498.169)">
      <path id="패스_2308" data-name="패스 2308" d="M3648.122,2499.2v20.5l-20.2-.3Z" transform="translate(-3627.921 -2498.305)" fill="#fcd947"/>
      <path id="패스_2308_-_윤곽선" data-name="패스 2308 - 윤곽선" d="M3648.123,2498.2a1,1,0,0,1,1,1v20.5a1,1,0,0,1-1,1h-.015l-20.2-.3a1,1,0,0,1-.692-1.707l20.2-20.2A1,1,0,0,1,3648.123,2498.2Zm-1,20.483v-17.068l-16.822,16.823Z" transform="translate(-3627.921 -2498.305)"/>
      <path id="패스_2309" data-name="패스 2309" d="M3714.254,2498.169v81.937l-12.536,12.033-50.258-45.96,26.566-20.307Z" transform="translate(-3631.024 -2498.169)" fill="#fcd947"/>
      <path id="패스_2309_-_윤곽선" data-name="패스 2309 - 윤곽선" d="M3714.254,2497.169a1,1,0,0,1,1,1v81.937a1,1,0,0,1-.308.721l-12.536,12.033a1,1,0,0,1-1.367.017l-50.258-45.96a1,1,0,0,1,.068-1.532l26.566-20.307,36.227-27.7A1,1,0,0,1,3714.254,2497.169Zm-1,82.51v-79.487l-34.62,26.473-25.617,19.581,48.685,44.522Z" transform="translate(-3631.024 -2498.169)"/>
      <path id="패스_2310" data-name="패스 2310" d="M3717.946,2592.549l-9.636,65.91-28.849-28.935,25.95-24.943Z" transform="translate(-3634.715 -2510.612)" fill="#ffeb99"/>
      <path id="패스_2310_-_윤곽선" data-name="패스 2310 - 윤곽선" d="M3717.946,2591.549a1,1,0,0,1,.989,1.145l-9.636,65.91a1,1,0,0,1-1.7.561l-28.849-28.935a1,1,0,0,1,.015-1.427l25.95-24.943,12.537-12.033A1,1,0,0,1,3717.946,2591.549Zm-10.337,64.791,8.926-61.051L3706.1,2605.3l-25.215,24.236Z" transform="translate(-3634.715 -2510.612)"/>
      <path id="패스_2311" data-name="패스 2311" d="M3785.726,2523.989l-61.925,59.5,41.532-59.5Z" transform="translate(-3640.562 -2501.573)" fill="#fcd947"/>
      <path id="패스_2311_-_윤곽선" data-name="패스 2311 - 윤곽선" d="M3765.333,2522.989h20.393a1,1,0,0,1,.693,1.721l-61.925,59.5a1,1,0,0,1-1.513-1.293l41.532-59.5A1,1,0,0,1,3765.333,2522.989Zm17.909,2h-17.388l-35.411,50.734Z" transform="translate(-3640.562 -2501.573)"/>
      <path id="패스_2312" data-name="패스 2312" d="M3780.976,2498.169l-15.645,22.415-41.533,59.5-.008.01v-81.928Z" transform="translate(-3640.561 -2498.169)" fill="#ffeb99"/>
      <path id="패스_2312_-_윤곽선" data-name="패스 2312 - 윤곽선" d="M3723.791,2497.169h57.185a1,1,0,0,1,.82,1.572l-57.177,81.919c-.015.022-.031.043-.049.064l-.008.01a1,1,0,0,1-1.771-.636v-81.928A1,1,0,0,1,3723.791,2497.169Zm55.268,2h-54.268v77.75Z" transform="translate(-3640.561 -2498.169)"/>
      <path id="패스_2313" data-name="패스 2313" d="M3651.424,2546.315l-.234-26.618h0v-20.5l26.8,26.808Z" transform="translate(-3630.988 -2498.305)" fill="#ffeb99"/>
      <path id="패스_2313_-_윤곽선" data-name="패스 2313 - 윤곽선" d="M3651.424,2547.315a1,1,0,0,1-1-.991l-.234-26.618V2499.2a1,1,0,0,1,1.707-.707l26.8,26.808a1,1,0,0,1-.1,1.5l-26.566,20.307A1,1,0,0,1,3651.424,2547.315Zm.766-27.622.217,24.613,24.069-18.4-24.285-24.292Z" transform="translate(-3630.988 -2498.305)"/>
    </g>
    <ellipse id="타원_2398" data-name="타원 2398" cx="115" cy="12.154" rx="115" ry="12.154" transform="translate(3577.525 2673.86)" fill="#ffeb99"/>
    <path id="타원_2398_-_윤곽선" data-name="타원 2398 - 윤곽선" d="M115,2C85.6,2,57.643,3.173,36.286,5.3A221.921,221.921,0,0,0,11.559,8.885c-6.688,1.483-8.765,2.751-9.375,3.27.61.519,2.687,1.786,9.375,3.27a221.921,221.921,0,0,0,24.727,3.581c21.357,2.13,49.311,3.3,78.714,3.3s57.357-1.173,78.714-3.3a221.92,221.92,0,0,0,24.727-3.581c6.688-1.483,8.765-2.751,9.375-3.27-.61-.519-2.687-1.786-9.375-3.27A221.92,221.92,0,0,0,193.714,5.3C172.357,3.173,144.4,2,115,2m0-2c63.513,0,115,5.442,115,12.154S178.513,24.309,115,24.309,0,18.867,0,12.154,51.487,0,115,0Z" transform="translate(3577.525 2673.86)"/>
    <path id="선_297" data-name="선 297" d="M0,41.344a1,1,0,0,1-1-1V0A1,1,0,0,1,0-1,1,1,0,0,1,1,0V40.344A1,1,0,0,1,0,41.344Z" transform="translate(3693.526 2645.67)"/>
  </g>
</svg>
