<svg xmlns="http://www.w3.org/2000/svg" xmlns:xlink="http://www.w3.org/1999/xlink" width="302.446" height="302.447" viewBox="0 0 302.446 302.447">
  <defs>
    <linearGradient id="linear-gradient" x1="0.245" y1="0.114" x2="0.852" y2="0.858" gradientUnits="objectBoundingBox">
      <stop offset="0" stop-color="#00d2ff"/>
      <stop offset="1" stop-color="#007dff"/>
    </linearGradient>
  </defs>
  <g id="그룹_5122" data-name="그룹 5122" transform="translate(-3153.63 -2282.107)">
    <path id="패스_2315" data-name="패스 2315" d="M3447.975,2426.229H3322l89.078-89.078a7.1,7.1,0,0,0-10.044-10.044l-89.077,89.078V2290.21a7.1,7.1,0,1,0-14.205,0v125.975l-89.078-89.078a7.1,7.1,0,1,0-10.044,10.044l89.078,89.078H3161.732a7.1,7.1,0,0,0,0,14.2h125.975l-89.078,89.078a7.1,7.1,0,0,0,10.044,10.044l89.078-89.078v125.975a7.1,7.1,0,0,0,14.205,0V2450.477l89.077,89.078a7.1,7.1,0,0,0,10.044-10.044L3322,2440.433h125.976a7.1,7.1,0,0,0,0-14.2Z" fill="#fcd947"/>
    <path id="패스_2315_-_윤곽선" data-name="패스 2315 - 윤곽선" d="M3304.853,2282.107a8.112,8.112,0,0,1,8.1,8.1v123.561l87.37-87.371a8.1,8.1,0,0,1,11.458,11.458l-87.371,87.371h123.562a8.1,8.1,0,0,1,0,16.2H3324.413l87.371,87.371a8.1,8.1,0,0,1-11.458,11.458l-87.37-87.371v123.561a8.1,8.1,0,0,1-16.205,0V2452.891l-87.371,87.371a8.1,8.1,0,0,1-11.458-11.458l87.371-87.371H3161.732a8.1,8.1,0,0,1,0-16.2h123.561l-87.371-87.371a8.1,8.1,0,0,1,11.458-11.458l87.371,87.371V2290.21A8.112,8.112,0,0,1,3304.853,2282.107Zm7.1,135.078a1,1,0,0,1-1-1V2290.21a6.1,6.1,0,1,0-12.205,0v125.975a1,1,0,0,1-1.707.707l-89.078-89.078a6.1,6.1,0,0,0-8.63,8.63l89.078,89.078a1,1,0,0,1-.707,1.707H3161.732a6.1,6.1,0,0,0,0,12.2h125.975a1,1,0,0,1,.707,1.707l-89.078,89.078a6.1,6.1,0,0,0,8.63,8.63l89.078-89.078a1,1,0,0,1,1.707.707v125.975a6.1,6.1,0,0,0,12.205,0V2450.477a1,1,0,0,1,1.707-.707l89.077,89.078a6.1,6.1,0,0,0,8.63-8.63l-89.078-89.078a1,1,0,0,1,.707-1.707h125.976a6.1,6.1,0,0,0,0-12.2H3322a1,1,0,0,1-.707-1.707l89.078-89.078a6.1,6.1,0,0,0-8.63-8.63l-89.077,89.078A1,1,0,0,1,3311.956,2417.185Z"/>
    <path id="패스_2316" data-name="패스 2316" d="M3304.859,2323.475a109.86,109.86,0,1,0,109.854,109.853A109.854,109.854,0,0,0,3304.859,2323.475Zm0,196.213a86.359,86.359,0,1,1,86.347-86.36A86.362,86.362,0,0,1,3304.859,2519.688Z" fill="#ffeb99"/>
    <path id="패스_2316_-_윤곽선" data-name="패스 2316 - 윤곽선" d="M3304.859,2322.475a111.675,111.675,0,0,1,22.34,2.252,110.253,110.253,0,0,1,39.641,16.68A111.169,111.169,0,0,1,3407,2390.178a110.3,110.3,0,0,1,6.46,20.81,111.941,111.941,0,0,1,0,44.681,110.278,110.278,0,0,1-16.68,39.645,111.176,111.176,0,0,1-48.771,40.169,110.274,110.274,0,0,1-20.81,6.461,111.924,111.924,0,0,1-44.685,0,110.265,110.265,0,0,1-39.646-16.684,111.187,111.187,0,0,1-40.165-48.779,110.321,110.321,0,0,1-6.46-20.812,111.929,111.929,0,0,1,0-44.681,110.245,110.245,0,0,1,16.681-39.64,111.173,111.173,0,0,1,48.776-40.161,110.347,110.347,0,0,1,20.813-6.459A111.712,111.712,0,0,1,3304.859,2322.475Zm0,219.721a108.86,108.86,0,1,0-108.867-108.868A108.984,108.984,0,0,0,3304.859,2542.2Zm0-196.227a87.99,87.99,0,0,1,17.6,1.775,86.866,86.866,0,0,1,31.236,13.146,87.6,87.6,0,0,1,31.643,38.435,86.935,86.935,0,0,1,5.089,16.4,88.218,88.218,0,0,1,0,35.209,86.891,86.891,0,0,1-13.142,31.239,87.594,87.594,0,0,1-38.428,31.65,86.923,86.923,0,0,1-16.4,5.091,88.193,88.193,0,0,1-35.209,0,86.882,86.882,0,0,1-31.239-13.146,87.617,87.617,0,0,1-31.65-38.435,86.93,86.93,0,0,1-5.091-16.4,88.194,88.194,0,0,1,0-35.209,86.883,86.883,0,0,1,13.146-31.239,87.616,87.616,0,0,1,38.435-31.65,86.907,86.907,0,0,1,16.4-5.091A87.992,87.992,0,0,1,3304.859,2345.969Zm0,172.719a85.359,85.359,0,1,0-85.36-85.36A85.45,85.45,0,0,0,3304.859,2518.688Z"/>
    <circle id="타원_2399" data-name="타원 2399" cx="3.658" cy="3.658" r="3.658" transform="translate(3301.195 2332.243)" fill="#007dff"/>
    <circle id="타원_2400" data-name="타원 2400" cx="3.658" cy="3.658" r="3.658" transform="translate(3232.302 2360.78)" fill="#007dff"/>
    <circle id="타원_2401" data-name="타원 2401" cx="3.658" cy="3.658" r="3.658" transform="translate(3203.766 2429.673)" fill="#007dff"/>
    <circle id="타원_2402" data-name="타원 2402" cx="3.658" cy="3.658" r="3.658" transform="translate(3232.302 2498.566)" fill="#007dff"/>
    <circle id="타원_2403" data-name="타원 2403" cx="3.658" cy="3.658" r="3.658" transform="translate(3301.195 2527.102)" fill="#007dff"/>
    <circle id="타원_2404" data-name="타원 2404" cx="3.658" cy="3.658" r="3.658" transform="translate(3370.088 2498.566)" fill="#007dff"/>
    <circle id="타원_2405" data-name="타원 2405" cx="3.658" cy="3.658" r="3.658" transform="translate(3398.625 2429.673)" fill="#007dff"/>
    <circle id="타원_2406" data-name="타원 2406" cx="3.122" cy="3.122" r="3.122" transform="translate(3370.088 2360.78)" fill="#007dff"/>
    <circle id="타원_2407" data-name="타원 2407" cx="33.777" cy="33.777" r="33.777" transform="translate(3271.076 2399.553)" fill="#fff"/>
    <path id="타원_2407_-_윤곽선" data-name="타원 2407 - 윤곽선" d="M33.777-1A34.786,34.786,0,0,1,47.314,65.821,34.786,34.786,0,0,1,20.24,1.733,34.56,34.56,0,0,1,33.777-1Zm0,67.555A32.777,32.777,0,1,0,1,33.777,32.814,32.814,0,0,0,33.777,66.555Z" transform="translate(3271.076 2399.553)"/>
    <path id="패스_2317" data-name="패스 2317" d="M3323.072,2428.693a18.719,18.719,0,0,0-4.1-9.961.9.9,0,0,0-1.473.1l-6.827,11.379-11.7-10.656a.9.9,0,0,0-1.508.666l0,15.419h-10.029l-.028,0a.81.81,0,0,0-.1.009l-.049.007a1.034,1.034,0,0,0-.113.031l-.026.008a.875.875,0,0,0-.126.06c-.014.008-.026.016-.039.025s-.054.036-.08.056-.027.023-.04.035a.449.449,0,0,0-.034.03c-.012.011-.021.024-.032.036l-.034.039a.842.842,0,0,0-.059.084c-.007.012-.016.023-.022.035a.968.968,0,0,0-.061.129l-.009.029a1.027,1.027,0,0,0-.03.114l-.005.019a.249.249,0,0,0,0,.028.69.69,0,0,0-.008.1.4.4,0,0,0,0,.048.949.949,0,0,0,.011.116l0,.028a.825.825,0,0,0,.034.128l.006.016v0a18.875,18.875,0,0,0,11.146,11.343l.024.006a.723.723,0,0,0,.1.028l.043.01a.873.873,0,0,0,.146.013h0a.96.96,0,0,0,.132-.011l.023,0,.022,0,18.53-3.706a.846.846,0,0,0,.115-.034c.013,0,.027-.007.04-.012a.868.868,0,0,0,.149-.075l.01-.008a.807.807,0,0,0,.12-.093l.006,0a18.81,18.81,0,0,0,3.329-4.142,18.768,18.768,0,0,0,2.629-9.6C3323.165,2429.939,3323.133,2429.306,3323.072,2428.693Zm-19.122,12.732-4.678-1.655v-15.638c.589,2.081,1.322,4.115,2.109,6.136a56.289,56.289,0,0,0,4.146,8.528Zm1.858-3.1a57.518,57.518,0,0,0-2.752-8.722,63.6,63.6,0,0,0-3.087-6.7l9.76,8.89Zm-8.34-.88v1.686l-4.772-1.686Zm-6.843,3.2a16.988,16.988,0,0,1-1.567-2.575l13.423,4.744-4.568,3.52A16.975,16.975,0,0,1,3290.625,2440.648Zm11.041,5.073,2.947-2.271,5.743.532-8.634,1.728Zm18.727-9.475a16.774,16.774,0,0,1-1.407,3,16.948,16.948,0,0,1-2.722,3.47l-10.41-.965.9-1.507,11.6-19.335a16.9,16.9,0,0,1,2.919,7.959c.056.555.084,1.127.084,1.7A16.953,16.953,0,0,1,3320.393,2436.246Z" fill="url(#linear-gradient)"/>
  </g>
</svg>
