<svg xmlns="http://www.w3.org/2000/svg" width="361.657" height="110.192" viewBox="0 0 361.657 110.192">
  <g id="그룹_11289" data-name="그룹 11289" transform="translate(-745.343 -984.347)">
    <g id="그룹_5135" data-name="그룹 5135" transform="translate(-2690.389 -1103.727)">
      <g id="그룹_5123" data-name="그룹 5123">
        <path id="패스_2318" data-name="패스 2318" d="M3584.285,2188.555a1,1,0,0,1-1-1v-8.221a1,1,0,0,1,2,0v8.221A1,1,0,0,1,3584.285,2188.555Z" fill="#f7931e"/>
      </g>
      <g id="그룹_5124" data-name="그룹 5124">
        <path id="패스_2319" data-name="패스 2319" d="M3598.573,2188.555a1,1,0,0,1-1-1v-8.221a1,1,0,0,1,2,0v8.221A1,1,0,0,1,3598.573,2188.555Z" fill="#f7931e"/>
      </g>
      <g id="그룹_5125" data-name="그룹 5125">
        <path id="패스_2320" data-name="패스 2320" d="M3487.965,2148.639c-33.109,13.787-51.233,48.628-51.233,48.628a171.441,171.441,0,0,1,51.108-27.482C3486.77,2162.944,3487.342,2155.668,3487.965,2148.639Z"/>
        <path id="패스_2321" data-name="패스 2321" d="M3436.732,2198.266a1,1,0,0,1-.887-1.462c.183-.351,18.674-35.32,51.735-49.088a1,1,0,0,1,1.381,1.011c-.673,7.6-1.148,14.41-.133,20.9a1,1,0,0,1-.674,1.1,171.191,171.191,0,0,0-50.812,27.324A1,1,0,0,1,3436.732,2198.266Zm50.091-48.049c-24.707,10.933-40.857,33.81-46.729,43.274a172.065,172.065,0,0,1,46.635-24.39C3485.909,2163.132,3486.249,2156.967,3486.823,2150.217Z"/>
      </g>
      <g id="그룹_5126" data-name="그룹 5126">
        <path id="패스_2322" data-name="패스 2322" d="M3694.813,2148.639c33.109,13.787,51.233,48.628,51.233,48.628a171.413,171.413,0,0,0-51.108-27.482C3696.008,2162.944,3695.436,2155.668,3694.813,2148.639Z"/>
        <path id="패스_2323" data-name="패스 2323" d="M3746.046,2198.266a.994.994,0,0,1-.61-.208,171.179,171.179,0,0,0-50.812-27.324,1,1,0,0,1-.675-1.1c1.015-6.485.541-13.3-.131-20.9a1,1,0,0,1,1.38-1.011c33.061,13.768,51.552,48.737,51.735,49.088a1,1,0,0,1-.887,1.462Zm-50-29.165a171.993,171.993,0,0,1,46.631,24.388c-5.877-9.468-22.035-32.346-46.726-43.272C3696.529,2156.971,3696.868,2163.138,3696.049,2169.1Z"/>
      </g>
      <g id="그룹_5127" data-name="그룹 5127">
        <path id="패스_2324" data-name="패스 2324" d="M3694.814,2148.639a70.227,70.227,0,0,0-27.179-5.524c-30.479,0-52.016,8.443-64.26,15.09-2.235-5.208-6.741-8.775-11.946-8.775s-9.73,3.583-11.96,8.811c-12.232-6.653-33.791-15.126-64.325-15.126a70.222,70.222,0,0,0-27.179,5.524c-.623,7.029-1.194,14.305-.125,21.146a158.838,158.838,0,0,1,90.2-2.79c.581,8.3,6.349,14.814,13.39,14.814s12.819-6.53,13.391-14.836a158.85,158.85,0,0,1,90.118,2.812C3696.008,2162.944,3695.436,2155.668,3694.814,2148.639Z" fill="#fff"/>
        <path id="패스_2325" data-name="패스 2325" d="M3591.429,2182.809c-7.247,0-13.425-6.546-14.324-15.03a157.528,157.528,0,0,0-88.951,2.955,1,1,0,0,1-1.3-.795c-1.05-6.716-.569-13.66.117-21.388a1,1,0,0,1,.611-.835,71.428,71.428,0,0,1,27.564-5.6c29.654,0,50.965,7.9,63.862,14.742,2.6-5.226,7.275-8.427,12.423-8.427s9.807,3.188,12.407,8.393c12.888-6.83,34.178-14.708,63.8-14.708a71.423,71.423,0,0,1,27.563,5.6,1,1,0,0,1,.612.835c.684,7.733,1.166,14.68.116,21.388a1,1,0,0,1-.467.7.993.993,0,0,1-.835.1,157.547,157.547,0,0,0-88.868-2.976C3604.863,2176.254,3598.685,2182.809,3591.429,2182.809Zm-53.722-22.049a156.625,156.625,0,0,1,40.594,5.27,1,1,0,0,1,.735.894c.546,7.787,5.99,13.885,12.393,13.885s11.855-6.107,12.393-13.905a1,1,0,0,1,.738-.9,159.5,159.5,0,0,1,89.555,2.456c.77-5.962.36-12.225-.244-19.131a69.328,69.328,0,0,0-26.236-5.218c-29.931,0-51.206,8.139-63.782,14.969a1,1,0,0,1-1.4-.485c-2.163-5.039-6.387-8.169-11.027-8.169s-8.881,3.144-11.04,8.2a1,1,0,0,1-1.4.487c-12.587-6.846-33.88-15.005-63.847-15.005a69.333,69.333,0,0,0-26.237,5.218c-.6,6.9-1.014,13.163-.245,19.131A159.675,159.675,0,0,1,3537.707,2160.76Z"/>
      </g>
      <g id="그룹_5128" data-name="그룹 5128">
        <path id="패스_2326" data-name="패스 2326" d="M3596.469,2150.2a1.8,1.8,0,0,1,.19-.112c1.082-.621,6.549-3.662,10.009-3.662a3.555,3.555,0,0,1,1.944.48,2.285,2.285,0,0,1,.678.71c.069.11.48.659.145.687-.117.009-.232.014-.349.029-.314.039-.626.081-.939.124q-.623.087-1.243.178-.774.113-1.546.23-.862.132-1.724.273-.888.144-1.774.3c-.567.1-1.132.206-1.7.319-.5.1-1,.205-1.493.324-.39.093-.78.193-1.162.317a4.148,4.148,0,0,0-.563.218l-.151.088Z"/>
      </g>
      <g id="그룹_5129" data-name="그룹 5129">
        <path id="패스_2327" data-name="패스 2327" d="M3596.469,2150.447a1.954,1.954,0,0,1,.01-.222c.133-2.559.769-10.868,3.418-10.868a1.879,1.879,0,0,1,1.12.455.8.8,0,0,1,.148.11.086.086,0,0,1,.022.056.118.118,0,0,1-.017.054c-.033.069-.068.138-.1.208l-.094.2-.151.32-.2.427c-.081.172-.16.345-.24.518q-.137.3-.272.6-.15.328-.3.659-.157.353-.315.708-.163.371-.325.742t-.327.762q-.162.384-.321.769c-.1.252-.208.506-.309.759s-.193.491-.287.737-.175.466-.259.7c-.077.215-.152.43-.223.647-.063.193-.123.387-.178.582-.047.166-.091.333-.127.5a3.455,3.455,0,0,0-.067.4l-.009.186Z"/>
      </g>
      <g id="그룹_5130" data-name="그룹 5130">
        <ellipse id="타원_2408" data-name="타원 2408" cx="1.417" cy="2" rx="1.417" ry="2" transform="translate(3585.599 2160.462)"/>
      </g>
      <g id="그룹_5131" data-name="그룹 5131">
        <ellipse id="타원_2409" data-name="타원 2409" cx="1.417" cy="2" rx="1.417" ry="2" transform="translate(3594.426 2160.462)"/>
      </g>
      <g id="그룹_5134" data-name="그룹 5134">
        <g id="그룹_5132" data-name="그룹 5132">
          <path id="패스_2328" data-name="패스 2328" d="M3592.519,2164.825a3.235,3.235,0,0,0-2.179,0c-1.984.707-5.981,2.375-5.981,4.319h14.14C3598.5,2167.2,3594.5,2165.532,3592.519,2164.825Z" fill="#f7931e"/>
        </g>
        <g id="그룹_5133" data-name="그룹 5133">
          <path id="패스_2329" data-name="패스 2329" d="M3584.359,2169.144c0,1.945,4,3.613,5.981,4.32a3.235,3.235,0,0,0,2.179,0c1.983-.707,5.98-2.375,5.98-4.32Z" fill="#ea8018"/>
        </g>
      </g>
    </g>
    <g id="그룹_5136" data-name="그룹 5136" transform="translate(-2422.389 -1135.154)">
      <g id="그룹_5123-2" data-name="그룹 5123" transform="translate(3480.122 2151.083)">
        <path id="패스_2318-2" data-name="패스 2318" d="M3583.586,2181.409a.3.3,0,0,1-.3-.3v-2.473a.3.3,0,0,1,.6,0v2.473A.3.3,0,0,1,3583.586,2181.409Z" transform="translate(-3583.285 -2178.334)" fill="#f7931e"/>
      </g>
      <g id="그룹_5124-2" data-name="그룹 5124" transform="translate(3484.421 2151.083)">
        <path id="패스_2319-2" data-name="패스 2319" d="M3597.874,2181.409a.3.3,0,0,1-.3-.3v-2.473a.3.3,0,0,1,.6,0v2.473A.3.3,0,0,1,3597.874,2181.409Z" transform="translate(-3597.573 -2178.334)" fill="#f7931e"/>
      </g>
      <g id="그룹_5125-2" data-name="그룹 5125" transform="translate(3435.732 2141.849)">
        <path id="패스_2320-2" data-name="패스 2320" d="M3452.145,2148.639c-9.961,4.148-15.413,14.63-15.413,14.63a51.577,51.577,0,0,1,15.376-8.268A26.6,26.6,0,0,1,3452.145,2148.639Z" transform="translate(-3436.431 -2148.338)"/>
        <path id="패스_2321-2" data-name="패스 2321" d="M3436.033,2162.87a.3.3,0,0,1-.267-.44c.055-.105,5.618-10.626,15.564-14.768a.3.3,0,0,1,.415.3,26.122,26.122,0,0,0-.04,6.289.3.3,0,0,1-.2.332,51.5,51.5,0,0,0-15.286,8.22A.3.3,0,0,1,3436.033,2162.87Zm15.069-14.455c-7.433,3.289-12.292,10.172-14.058,13.019a51.764,51.764,0,0,1,14.03-7.338A25.791,25.791,0,0,1,3451.1,2148.415Z" transform="translate(-3435.732 -2147.639)"/>
      </g>
      <g id="그룹_5126-2" data-name="그룹 5126" transform="translate(3513.374 2141.849)">
        <path id="패스_2322-2" data-name="패스 2322" d="M3694.813,2148.639c9.961,4.148,15.413,14.63,15.413,14.63a51.567,51.567,0,0,0-15.375-8.268A26.589,26.589,0,0,0,3694.813,2148.639Z" transform="translate(-3694.512 -2148.338)"/>
        <path id="패스_2323-2" data-name="패스 2323" d="M3709.528,2162.87a.3.3,0,0,1-.184-.062,51.5,51.5,0,0,0-15.287-8.22.3.3,0,0,1-.2-.332,26.132,26.132,0,0,0-.039-6.289.3.3,0,0,1,.415-.3c9.946,4.142,15.509,14.662,15.564,14.768a.3.3,0,0,1-.267.44Zm-15.042-8.774a51.745,51.745,0,0,1,14.029,7.337c-1.768-2.848-6.629-9.731-14.057-13.018A25.777,25.777,0,0,1,3694.486,2154.1Z" transform="translate(-3693.814 -2147.64)"/>
      </g>
      <g id="그룹_5127-2" data-name="그룹 5127" transform="translate(3450.927 2140.187)">
        <path id="패스_2324-2" data-name="패스 2324" d="M3549.689,2144.777a21.13,21.13,0,0,0-8.177-1.662,40.31,40.31,0,0,0-19.332,4.54,3.767,3.767,0,0,0-7.192.011,40.293,40.293,0,0,0-19.352-4.551,21.128,21.128,0,0,0-8.177,1.662,26.6,26.6,0,0,0-.038,6.362,47.784,47.784,0,0,1,27.136-.839c.175,2.5,1.91,4.457,4.028,4.457s3.857-1.964,4.029-4.463a47.789,47.789,0,0,1,27.111.846A26.614,26.614,0,0,0,3549.689,2144.777Z" transform="translate(-3486.941 -2142.814)" fill="#fff"/>
        <path id="패스_2325-2" data-name="패스 2325" d="M3517.886,2154.358c-2.18,0-4.039-1.969-4.309-4.522a47.394,47.394,0,0,0-26.76.889.3.3,0,0,1-.251-.029.3.3,0,0,1-.141-.21,26.578,26.578,0,0,1,.035-6.435.3.3,0,0,1,.184-.251,21.489,21.489,0,0,1,8.292-1.685,40.7,40.7,0,0,1,19.212,4.435,4.022,4.022,0,0,1,7.47-.01,40.717,40.717,0,0,1,19.194-4.425,21.487,21.487,0,0,1,8.292,1.685.3.3,0,0,1,.184.251,26.6,26.6,0,0,1,.035,6.435.3.3,0,0,1-.141.21.3.3,0,0,1-.251.029,47.4,47.4,0,0,0-26.736-.9C3521.928,2152.385,3520.069,2154.358,3517.886,2154.358Zm-16.162-6.633a47.117,47.117,0,0,1,12.213,1.585.3.3,0,0,1,.221.269c.164,2.343,1.8,4.177,3.728,4.177s3.566-1.837,3.729-4.183a.3.3,0,0,1,.222-.27,47.983,47.983,0,0,1,26.942.739,26.994,26.994,0,0,0-.073-5.755,20.854,20.854,0,0,0-7.893-1.57,39.936,39.936,0,0,0-19.188,4.5.305.305,0,0,1-.242.02.3.3,0,0,1-.178-.166,3.468,3.468,0,0,0-6.639.01.3.3,0,0,1-.42.146,39.929,39.929,0,0,0-19.208-4.514,20.855,20.855,0,0,0-7.894,1.57,27.025,27.025,0,0,0-.073,5.755A48.04,48.04,0,0,1,3501.724,2147.724Z" transform="translate(-3486.241 -2142.115)"/>
      </g>
      <g id="그룹_5128-2" data-name="그룹 5128" transform="translate(3484.089 2141.482)">
        <path id="패스_2326-2" data-name="패스 2326" d="M3596.469,2147.558a.485.485,0,0,1,.057-.034,8.049,8.049,0,0,1,3.011-1.1,1.07,1.07,0,0,1,.585.145.685.685,0,0,1,.2.214c.021.033.145.2.043.207-.035,0-.07,0-.1.009l-.282.037-.374.054-.465.069-.519.082q-.267.043-.534.091c-.17.03-.341.062-.51.1-.15.03-.3.062-.449.1-.117.028-.235.058-.349.1a1.227,1.227,0,0,0-.169.065l-.045.027Z" transform="translate(-3596.469 -2146.422)"/>
      </g>
      <g id="그룹_5129-2" data-name="그룹 5129" transform="translate(3484.089 2139.357)">
        <path id="패스_2327-2" data-name="패스 2327" d="M3596.469,2142.693a.6.6,0,0,1,0-.067c.04-.77.231-3.27,1.028-3.27a.564.564,0,0,1,.337.137.228.228,0,0,1,.044.033.027.027,0,0,1,.007.017.033.033,0,0,1-.005.016l-.03.063-.028.06-.045.1-.06.128-.072.156-.082.179-.09.2-.095.213-.1.223-.1.229q-.049.115-.1.231c-.032.076-.063.152-.093.229s-.058.148-.086.222-.052.14-.078.211-.046.129-.067.195-.037.116-.053.175-.028.1-.038.151a1.015,1.015,0,0,0-.02.121l0,.056Z" transform="translate(-3596.469 -2139.357)"/>
      </g>
      <g id="그룹_5130-2" data-name="그룹 5130" transform="translate(3480.818 2145.706)">
        <ellipse id="타원_2408-2" data-name="타원 2408" cx="0.426" cy="0.602" rx="0.426" ry="0.602" transform="translate(0 0)"/>
      </g>
      <g id="그룹_5131-2" data-name="그룹 5131" transform="translate(3483.474 2145.706)">
        <ellipse id="타원_2409-2" data-name="타원 2409" cx="0.426" cy="0.602" rx="0.426" ry="0.602" transform="translate(0 0)"/>
      </g>
      <g id="그룹_5134-2" data-name="그룹 5134" transform="translate(3480.445 2146.962)">
        <g id="그룹_5132-2" data-name="그룹 5132" transform="translate(0 0)">
          <path id="패스_2328-2" data-name="패스 2328" d="M3586.814,2164.693a.972.972,0,0,0-.656,0c-.6.213-1.8.714-1.8,1.3h4.254C3588.613,2165.407,3587.41,2164.906,3586.814,2164.693Z" transform="translate(-3584.359 -2164.636)" fill="#f7931e"/>
        </g>
        <g id="그룹_5133-2" data-name="그룹 5133" transform="translate(0 1.356)">
          <path id="패스_2329-2" data-name="패스 2329" d="M3584.359,2169.144c0,.585,1.2,1.087,1.8,1.3a.975.975,0,0,0,.656,0c.6-.213,1.8-.715,1.8-1.3Z" transform="translate(-3584.359 -2169.144)" fill="#ea8018"/>
        </g>
      </g>
    </g>
    <g id="그룹_5137" data-name="그룹 5137" transform="translate(-2437.389 -1155.01)">
      <g id="그룹_5123-3" data-name="그룹 5123" transform="translate(3453.644 2144.088)">
        <path id="패스_2318-3" data-name="패스 2318" d="M3583.406,2179.575a.121.121,0,0,1-.121-.121v-1a.121.121,0,1,1,.243,0v1A.121.121,0,0,1,3583.406,2179.575Z" transform="translate(-3583.285 -2178.334)" fill="#f7931e"/>
      </g>
      <g id="그룹_5124-3" data-name="그룹 5124" transform="translate(3455.378 2144.088)">
        <path id="패스_2319-3" data-name="패스 2319" d="M3597.695,2179.575a.121.121,0,0,1-.121-.121v-1a.121.121,0,0,1,.243,0v1A.121.121,0,0,1,3597.695,2179.575Z" transform="translate(-3597.573 -2178.334)" fill="#f7931e"/>
      </g>
      <g id="그룹_5125-3" data-name="그룹 5125" transform="translate(3435.732 2140.362)">
        <path id="패스_2320-3" data-name="패스 2320" d="M3442.952,2148.639c-4.019,1.673-6.219,5.9-6.219,5.9a20.817,20.817,0,0,1,6.2-3.336A10.73,10.73,0,0,1,3442.952,2148.639Z" transform="translate(-3436.611 -2148.518)"/>
        <path id="패스_2321-3" data-name="패스 2321" d="M3435.853,2153.785a.122.122,0,0,1-.108-.178c.022-.042,2.267-4.287,6.281-5.959a.121.121,0,0,1,.168.123,10.53,10.53,0,0,0-.016,2.537.122.122,0,0,1-.082.134,20.772,20.772,0,0,0-6.168,3.317A.123.123,0,0,1,3435.853,2153.785Zm6.081-5.833a13.861,13.861,0,0,0-5.673,5.253,20.877,20.877,0,0,1,5.661-2.961A10.387,10.387,0,0,1,3441.934,2147.952Z" transform="translate(-3435.732 -2147.639)"/>
      </g>
      <g id="그룹_5126-3" data-name="그룹 5126" transform="translate(3467.061 2140.362)">
        <path id="패스_2322-3" data-name="패스 2322" d="M3694.813,2148.639c4.02,1.673,6.219,5.9,6.219,5.9a20.811,20.811,0,0,0-6.2-3.336A10.73,10.73,0,0,0,3694.813,2148.639Z" transform="translate(-3694.692 -2148.518)"/>
        <path id="패스_2323-3" data-name="패스 2323" d="M3700.155,2153.786a.12.12,0,0,1-.074-.025,20.77,20.77,0,0,0-6.168-3.317.122.122,0,0,1-.082-.134,10.544,10.544,0,0,0-.016-2.538.121.121,0,0,1,.167-.123c4.013,1.671,6.258,5.917,6.28,5.959a.122.122,0,0,1-.107.178Zm-6.07-3.541a20.886,20.886,0,0,1,5.661,2.961,13.87,13.87,0,0,0-5.672-5.253A10.385,10.385,0,0,1,3694.085,2150.245Z" transform="translate(-3693.814 -2147.64)"/>
      </g>
      <g id="그룹_5127-3" data-name="그룹 5127" transform="translate(3441.863 2139.692)">
        <path id="패스_2324-3" data-name="패스 2324" d="M3512.44,2143.786a8.528,8.528,0,0,0-3.3-.671,16.267,16.267,0,0,0-7.8,1.832,1.52,1.52,0,0,0-2.9,0,16.257,16.257,0,0,0-7.808-1.836,8.53,8.53,0,0,0-3.3.671,10.73,10.73,0,0,0-.015,2.567,19.281,19.281,0,0,1,10.949-.339,1.634,1.634,0,1,0,3.251,0,19.282,19.282,0,0,1,10.939.341A10.7,10.7,0,0,0,3512.44,2143.786Z" transform="translate(-3487.121 -2142.994)" fill="#fff"/>
        <path id="패스_2325-3" data-name="패스 2325" d="M3499.01,2147.055a1.9,1.9,0,0,1-1.739-1.824,19.122,19.122,0,0,0-10.8.358.119.119,0,0,1-.1-.011.122.122,0,0,1-.057-.085,10.726,10.726,0,0,1,.014-2.6.122.122,0,0,1,.074-.1,8.668,8.668,0,0,1,3.346-.68,16.426,16.426,0,0,1,7.752,1.79,1.623,1.623,0,0,1,3.014,0,16.427,16.427,0,0,1,7.744-1.786,8.67,8.67,0,0,1,3.346.68.121.121,0,0,1,.074.1,10.726,10.726,0,0,1,.014,2.6.122.122,0,0,1-.057.085.119.119,0,0,1-.1.011,19.127,19.127,0,0,0-10.788-.361A1.9,1.9,0,0,1,3499.01,2147.055Zm-6.521-2.677a19,19,0,0,1,4.928.64.121.121,0,0,1,.089.108,1.514,1.514,0,1,0,3.009,0,.121.121,0,0,1,.089-.109,19.362,19.362,0,0,1,10.871.3,10.88,10.88,0,0,0-.03-2.323,8.415,8.415,0,0,0-3.185-.633,16.112,16.112,0,0,0-7.742,1.817.124.124,0,0,1-.1.008.121.121,0,0,1-.072-.067,1.4,1.4,0,0,0-2.679,0,.12.12,0,0,1-.072.067.122.122,0,0,1-.1-.008,16.113,16.113,0,0,0-7.751-1.822,8.416,8.416,0,0,0-3.185.633,10.9,10.9,0,0,0-.03,2.323A19.381,19.381,0,0,1,3492.489,2144.379Z" transform="translate(-3486.241 -2142.115)"/>
      </g>
      <g id="그룹_5128-3" data-name="그룹 5128" transform="translate(3455.244 2140.215)">
        <path id="패스_2326-3" data-name="패스 2326" d="M3596.469,2146.88l.023-.013a3.245,3.245,0,0,1,1.215-.445.431.431,0,0,1,.236.058.278.278,0,0,1,.083.086c.008.013.058.08.017.083l-.042,0-.114.015-.151.022-.187.028-.209.033-.215.036-.206.039c-.061.012-.122.025-.181.039s-.095.023-.141.039a.514.514,0,0,0-.068.026l-.018.011Z" transform="translate(-3596.469 -2146.422)"/>
      </g>
      <g id="그룹_5129-3" data-name="그룹 5129" transform="translate(3455.244 2139.357)">
        <path id="패스_2327-3" data-name="패스 2327" d="M3596.469,2140.7a.173.173,0,0,1,0-.027c.016-.311.094-1.319.415-1.319a.227.227,0,0,1,.136.055.09.09,0,0,1,.018.014.009.009,0,0,1,0,.007.013.013,0,0,1,0,.007l-.012.025-.011.024-.018.039-.024.052-.029.063c-.011.024-.022.048-.033.073l-.036.08-.038.086-.04.09-.04.092-.039.094-.038.092-.035.089-.031.085c-.009.026-.018.052-.027.078s-.015.047-.021.071-.011.041-.016.061a.367.367,0,0,0-.008.049v.023Z" transform="translate(-3596.469 -2139.357)"/>
      </g>
      <g id="그룹_5130-3" data-name="그룹 5130" transform="translate(3453.924 2141.919)">
        <ellipse id="타원_2408-3" data-name="타원 2408" cx="0.172" cy="0.243" rx="0.172" ry="0.243" transform="translate(0 0)"/>
      </g>
      <g id="그룹_5131-3" data-name="그룹 5131" transform="translate(3454.996 2141.919)">
        <ellipse id="타원_2409-3" data-name="타원 2409" cx="0.172" cy="0.243" rx="0.172" ry="0.243" transform="translate(0 0)"/>
      </g>
      <g id="그룹_5134-3" data-name="그룹 5134" transform="translate(3453.774 2142.426)">
        <g id="그룹_5132-3" data-name="그룹 5132" transform="translate(0 0)">
          <path id="패스_2328-3" data-name="패스 2328" d="M3585.35,2164.659a.391.391,0,0,0-.265,0c-.241.086-.726.288-.726.524h1.716C3586.075,2164.947,3585.59,2164.745,3585.35,2164.659Z" transform="translate(-3584.359 -2164.636)" fill="#f7931e"/>
        </g>
        <g id="그룹_5133-3" data-name="그룹 5133" transform="translate(0 0.547)">
          <path id="패스_2329-3" data-name="패스 2329" d="M3584.359,2169.144c0,.236.485.438.726.524a.391.391,0,0,0,.265,0c.24-.086.726-.288.726-.524Z" transform="translate(-3584.359 -2169.144)" fill="#ea8018"/>
        </g>
      </g>
    </g>
  </g>
</svg>
