<svg xmlns="http://www.w3.org/2000/svg" width="157.726" height="57.74" viewBox="0 0 157.726 57.74">
  <g id="그룹_5052" data-name="그룹 5052" transform="translate(-1193.137 -1717.261)">
    <g id="그룹_5011" data-name="그룹 5011" transform="translate(-1246.945 948.318)">
      <path id="패스_2218" data-name="패스 2218" d="M2591.322,778.012c-2.22-1.27-5.826-.939-8.406-.49a21.871,21.871,0,0,0-3.948,1.088,25.665,25.665,0,0,1-3.986,1.5c-3.093.626-5.916-1.287-8.322-2.367-5.552-2.493-11.53-1.53-16.843.8-1.216.533-2.448,1.338-3.745,1.843a5.341,5.341,0,0,0-.656-.51c-1.453-.959-3.592-1-5.516-.776a27.379,27.379,0,0,0-7.933-1.55,25.094,25.094,0,0,0-9.3,1.45c-4.414-1.682-9.055-.7-13.225,1.406a29.933,29.933,0,0,1-3.867,2.088c-1.085.356-2.98-.823-3.957-1.225a22,22,0,0,0-7.649-1.857,18.075,18.075,0,0,0-12.626,4.3,4.422,4.422,0,0,0-.735.714c-.076.08-.156.157-.23.238a.911.911,0,0,0-.274.827,1.761,1.761,0,0,0,.677,1.605c1.48,1.347,3.885.616,5.653.2a22.868,22.868,0,0,1,8.633-.708c2.7.38,5.287,1.14,8,1.463a24.4,24.4,0,0,0,7.791-.424,54.916,54.916,0,0,1,7.844-1.448c2.906-.156,5.623.669,8.384,1.281a71.451,71.451,0,0,0,8.8,1.441c3.217.3,11.288.778,12.324-2.7,1.08-.1,2.159-.246,3.244-.435a72.311,72.311,0,0,1,9.05-1.447c3.351-.157,6.486.669,9.672,1.281a94.379,94.379,0,0,0,10.15,1.441c4.006.326,14.542.858,14.348-3.6A6.838,6.838,0,0,0,2591.322,778.012Z" fill="#007dff"/>
      <path id="패스_2218_-_윤곽선" data-name="패스 2218 - 윤곽선" d="M2559.657,778.274a22.666,22.666,0,0,0-9.037,2.1c-.465.2-.958.467-1.481.746a21.585,21.585,0,0,1-2.341,1.129,2,2,0,0,1-2.069-.382,3.37,3.37,0,0,0-.414-.322,4.9,4.9,0,0,0-2.608-.56,13.479,13.479,0,0,0-1.571.1,2,2,0,0,1-.87-.09,25.079,25.079,0,0,0-7.363-1.448c-.252-.008-.508-.012-.761-.012a23.071,23.071,0,0,0-7.794,1.343,2,2,0,0,1-1.4-.011,11.184,11.184,0,0,0-4-.723,17.02,17.02,0,0,0-7.613,2.045c-.39.2-.813.458-1.26.734a13.7,13.7,0,0,1-2.885,1.469,3.453,3.453,0,0,1-1.078.166,8.672,8.672,0,0,1-3.6-1.131c-.258-.125-.5-.244-.661-.31a19.93,19.93,0,0,0-6.964-1.708c-.214-.008-.431-.012-.645-.012a17.311,17.311,0,0,0-5.835,1.015,14.429,14.429,0,0,0-4.73,2.781c-.036.033-.074.064-.112.094a2.481,2.481,0,0,0-.391.372,1.453,1.453,0,0,0,.9.209,11.356,11.356,0,0,0,2.454-.42l.434-.105a29.45,29.45,0,0,1,6.737-.924,18.967,18.967,0,0,1,2.637.182c1.32.186,2.605.456,3.848.718,1.412.3,2.745.577,4.108.74a19.093,19.093,0,0,0,2.253.132,24.851,24.851,0,0,0,4.907-.531c.715-.144,1.422-.307,2.171-.479a34.608,34.608,0,0,1,5.96-1.005c.273-.015.554-.022.834-.022a28.5,28.5,0,0,1,6.638,1.012c.478.113.972.229,1.452.336a69.462,69.462,0,0,0,8.554,1.4c1.409.132,2.734.2,3.939.2,4.62,0,6.129-.969,6.281-1.481a2,2,0,0,1,1.736-1.421c.994-.09,2-.225,3.082-.414.834-.145,1.694-.317,2.525-.483a45.078,45.078,0,0,1,6.774-.992c.306-.014.621-.022.935-.022a37.04,37.04,0,0,1,7.521,1c.554.113,1.127.231,1.687.338a92.36,92.36,0,0,0,9.935,1.412c1.649.134,3.2.2,4.609.2a26.718,26.718,0,0,0,4.792-.363,5,5,0,0,0,2.655-1.027.381.381,0,0,0,.132-.336,4.826,4.826,0,0,0-2.342-3.767,6.92,6.92,0,0,0-3.288-.627,22.457,22.457,0,0,0-3.782.371,19.8,19.8,0,0,0-3.584.989c-.382.144-.77.315-1.181.5a15.042,15.042,0,0,1-3.115,1.092,8.279,8.279,0,0,1-1.638.163,14.9,14.9,0,0,1-6.56-2.019c-.473-.236-.92-.458-1.34-.647a14.989,14.989,0,0,0-6.184-1.292m0-2a16.93,16.93,0,0,1,7,1.468c2.406,1.08,5.228,2.993,8.322,2.367a25.665,25.665,0,0,0,3.986-1.5,21.871,21.871,0,0,1,3.948-1.088c2.58-.449,6.186-.78,8.406.49a6.838,6.838,0,0,1,3.347,5.416c.194,4.462-10.342,3.93-14.348,3.6a94.379,94.379,0,0,1-10.15-1.441c-3.186-.612-6.323-1.438-9.672-1.281a72.311,72.311,0,0,0-9.05,1.447c-1.085.189-2.164.337-3.244.435-1.036,3.48-9.107,3-12.324,2.7a71.451,71.451,0,0,1-8.8-1.441c-2.761-.612-5.475-1.437-8.384-1.281a54.916,54.916,0,0,0-7.844,1.448,24.409,24.409,0,0,1-7.791.424c-2.711-.323-5.3-1.083-8-1.463a22.863,22.863,0,0,0-8.633.708c-1.768.42-4.173,1.151-5.653-.2a1.761,1.761,0,0,1-.677-1.605.911.911,0,0,1,.274-.827c.074-.081.154-.158.23-.238a4.422,4.422,0,0,1,.735-.714,18.079,18.079,0,0,1,12.626-4.3,22,22,0,0,1,7.649,1.857c.977.4,2.874,1.581,3.957,1.225a29.933,29.933,0,0,0,3.867-2.088c4.17-2.109,8.811-3.088,13.225-1.406a25.1,25.1,0,0,1,9.3-1.45,27.379,27.379,0,0,1,7.933,1.55c1.925-.228,4.063-.183,5.516.776a5.341,5.341,0,0,1,.656.51c1.3-.5,2.529-1.31,3.745-1.843A24.746,24.746,0,0,1,2559.657,776.274Z"/>
      <path id="패스_2219" data-name="패스 2219" d="M2552.67,781.2a7.6,7.6,0,0,0-1.166-4.928,6.482,6.482,0,0,0-2.428-1.771,34.194,34.194,0,0,0-5.6-2.169,11.1,11.1,0,0,0-6.226-.373c-3.4,1.012-5.764,5.73-4.242,9.568.588,1.482,2.018,2.6,3.412,2.283,1.165-.268,2.247-1.453,3.375-1.022,1,.38,1.326,1.769,1.977,2.714a3.055,3.055,0,0,0,3.067,1.331c.731-.15,1.671-.692,2.451-.439.946.307.9,1.481,1.487,2.168,1.331,1.554,2.61-.625,2.938-1.983A30.559,30.559,0,0,0,2552.67,781.2Z" fill="#fff"/>
      <path id="패스_2219_-_윤곽선" data-name="패스 2219 - 윤곽선" d="M2549.778,786.084l.021-.087a28.413,28.413,0,0,0,.874-4.9,5.686,5.686,0,0,0-.759-3.6,4.683,4.683,0,0,0-1.72-1.189,32.3,32.3,0,0,0-5.273-2.043,12.637,12.637,0,0,0-3.473-.6,5.634,5.634,0,0,0-1.627.221,4.716,4.716,0,0,0-2.672,2.543,5.465,5.465,0,0,0-.282,4.371c.264.666.8,1.076,1.066,1.076a.168.168,0,0,0,.038,0,4.4,4.4,0,0,0,.769-.359,5.309,5.309,0,0,1,2.545-.807,3.413,3.413,0,0,1,1.222.225,4.9,4.9,0,0,1,2.5,2.694,7.19,7.19,0,0,0,.416.754,1.141,1.141,0,0,0,.885.52.658.658,0,0,0,.133-.013c.1-.02.3-.087.472-.146a5.921,5.921,0,0,1,1.935-.4,3.442,3.442,0,0,1,1.063.164,3.235,3.235,0,0,1,1.87,1.589m-.046,3.018a1.28,1.28,0,0,1-.954-.537c-.588-.687-.541-1.861-1.487-2.168-.78-.253-1.72.289-2.451.439a3.054,3.054,0,0,1-3.067-1.331c-.651-.945-.981-2.334-1.977-2.714-1.128-.431-2.21.754-3.375,1.022-1.392.321-2.824-.8-3.412-2.283-1.522-3.838.845-8.556,4.242-9.568a11.106,11.106,0,0,1,6.226.373,34.194,34.194,0,0,1,5.6,2.169,6.482,6.482,0,0,1,2.428,1.771,7.6,7.6,0,0,1,1.166,4.928,30.559,30.559,0,0,1-.955,5.379C2551.467,787.608,2550.677,789.1,2549.731,789.1Z"/>
      <path id="패스_2220" data-name="패스 2220" d="M2597.808,777.809a6.46,6.46,0,0,0-4.483-6.536,46.4,46.4,0,0,0-8.153-2.052c-2.531-.517-4.971-.482-7.23,1.575a2.553,2.553,0,0,0-.6.89,5.948,5.948,0,0,0-.69,7.149c2.107,3.347,4.584.02,6.955.251,1.182.115,1.139,1.344,1.891,2.463a3.347,3.347,0,0,0,2.951,1.514,4.2,4.2,0,0,0,1.544-.187c.465-.167,1.107-.906,1.566-.762.612.191,1.034.9,1.517,1.509-.082.373-.167.71-.226.962-.89,3.748,2.969,5.365,3.851,1.647a20.373,20.373,0,0,0,.558-4.686A13.205,13.205,0,0,0,2597.808,777.809Z" fill="#fff"/>
      <path id="패스_2220_-_윤곽선" data-name="패스 2220 - 윤곽선" d="M2582.726,770.942a4.777,4.777,0,0,0-3.434,1.33.853.853,0,0,0-.113.2,2,2,0,0,1-.46.66,3.466,3.466,0,0,0-.914,2.04,3.959,3.959,0,0,0,.539,2.593,1.7,1.7,0,0,0,.464.543.134.134,0,0,0,.094.024,5.128,5.128,0,0,0,1.419-.466,7.751,7.751,0,0,1,3.043-.8h0c.147,0,.294.007.437.021a3.565,3.565,0,0,1,2.98,2.57,4.715,4.715,0,0,0,.377.768c.279.416.541.606,1.354.63l.182,0a2.362,2.362,0,0,0,.543-.05c.05-.034.116-.082.166-.117a3.461,3.461,0,0,1,2.031-.8,2.41,2.41,0,0,1,.721.109,4.621,4.621,0,0,1,2.25,1.864c.083.112.163.217.238.312a2,2,0,0,1,.386,1.672c-.06.27-.121.524-.17.727l-.062.26,0,.007a2.4,2.4,0,0,0-.066.823q.013-.048.026-.1a18.327,18.327,0,0,0,.5-4.218,2,2,0,0,1,.088-.592,11.137,11.137,0,0,0,.462-3.147,4.475,4.475,0,0,0-3.23-4.685,35.549,35.549,0,0,0-6.4-1.669c-.46-.09-.936-.183-1.4-.279a10.289,10.289,0,0,0-2.046-.238h0m0-2a12.265,12.265,0,0,1,2.446.279,46.4,46.4,0,0,1,8.153,2.052,6.46,6.46,0,0,1,4.483,6.536,13.205,13.205,0,0,1-.55,3.737,20.373,20.373,0,0,1-.558,4.686c-.882,3.718-4.741,2.1-3.851-1.647.059-.252.144-.589.226-.962-.483-.609-.905-1.318-1.517-1.509-.458-.145-1.1.6-1.566.762a4.2,4.2,0,0,1-1.544.187,3.347,3.347,0,0,1-2.951-1.514c-.752-1.119-.709-2.348-1.891-2.463-1.567-.152-3.182,1.251-4.705,1.251a2.619,2.619,0,0,1-2.25-1.5,5.948,5.948,0,0,1,.69-7.149,2.553,2.553,0,0,1,.6-.89A6.774,6.774,0,0,1,2582.726,768.942Z"/>
    </g>
    <g id="그룹_5012" data-name="그룹 5012" transform="translate(-1286.945 985.898)">
      <path id="패스_2218-2" data-name="패스 2218" d="M2591.322,778.012c-2.22-1.27-5.826-.939-8.406-.49a21.871,21.871,0,0,0-3.948,1.088,25.665,25.665,0,0,1-3.986,1.5c-3.093.626-5.916-1.287-8.322-2.367-5.552-2.493-11.53-1.53-16.843.8-1.216.533-2.448,1.338-3.745,1.843a5.341,5.341,0,0,0-.656-.51c-1.453-.959-3.592-1-5.516-.776a27.379,27.379,0,0,0-7.933-1.55,25.094,25.094,0,0,0-9.3,1.45c-4.414-1.682-9.055-.7-13.225,1.406a29.933,29.933,0,0,1-3.867,2.088c-1.085.356-2.98-.823-3.957-1.225a22,22,0,0,0-7.649-1.857,18.075,18.075,0,0,0-12.626,4.3,4.422,4.422,0,0,0-.735.714c-.076.08-.156.157-.23.238a.911.911,0,0,0-.274.827,1.761,1.761,0,0,0,.677,1.605c1.48,1.347,3.885.616,5.653.2a22.868,22.868,0,0,1,8.633-.708c2.7.38,5.287,1.14,8,1.463a24.4,24.4,0,0,0,7.791-.424,54.916,54.916,0,0,1,7.844-1.448c2.906-.156,5.623.669,8.384,1.281a71.451,71.451,0,0,0,8.8,1.441c3.217.3,11.288.778,12.324-2.7,1.08-.1,2.159-.246,3.244-.435a72.311,72.311,0,0,1,9.05-1.447c3.351-.157,6.486.669,9.672,1.281a94.379,94.379,0,0,0,10.15,1.441c4.006.326,14.542.858,14.348-3.6A6.838,6.838,0,0,0,2591.322,778.012Z" fill="#007dff"/>
      <path id="패스_2218_-_윤곽선-2" data-name="패스 2218 - 윤곽선" d="M2559.657,778.274a22.666,22.666,0,0,0-9.037,2.1c-.465.2-.958.467-1.481.746a21.585,21.585,0,0,1-2.341,1.129,2,2,0,0,1-2.069-.382,3.37,3.37,0,0,0-.414-.322,4.9,4.9,0,0,0-2.608-.56,13.479,13.479,0,0,0-1.571.1,2,2,0,0,1-.87-.09,25.079,25.079,0,0,0-7.363-1.448c-.252-.008-.508-.012-.761-.012a23.071,23.071,0,0,0-7.794,1.343,2,2,0,0,1-1.4-.011,11.184,11.184,0,0,0-4-.723,17.02,17.02,0,0,0-7.613,2.045c-.39.2-.813.458-1.26.734a13.7,13.7,0,0,1-2.885,1.469,3.453,3.453,0,0,1-1.078.166,8.672,8.672,0,0,1-3.6-1.131c-.258-.125-.5-.244-.661-.31a19.93,19.93,0,0,0-6.964-1.708c-.214-.008-.431-.012-.645-.012a17.311,17.311,0,0,0-5.835,1.015,14.429,14.429,0,0,0-4.73,2.781c-.036.033-.074.064-.112.094a2.481,2.481,0,0,0-.391.372,1.453,1.453,0,0,0,.9.209,11.356,11.356,0,0,0,2.454-.42l.434-.105a29.45,29.45,0,0,1,6.737-.924,18.967,18.967,0,0,1,2.637.182c1.32.186,2.605.456,3.848.718,1.412.3,2.745.577,4.108.74a19.093,19.093,0,0,0,2.253.132,24.851,24.851,0,0,0,4.907-.531c.715-.144,1.422-.307,2.171-.479a34.608,34.608,0,0,1,5.96-1.005c.273-.015.554-.022.834-.022a28.5,28.5,0,0,1,6.638,1.012c.478.113.972.229,1.452.336a69.462,69.462,0,0,0,8.554,1.4c1.409.132,2.734.2,3.939.2,4.62,0,6.129-.969,6.281-1.481a2,2,0,0,1,1.736-1.421c.994-.09,2-.225,3.082-.414.834-.145,1.694-.317,2.525-.483a45.078,45.078,0,0,1,6.774-.992c.306-.014.621-.022.935-.022a37.04,37.04,0,0,1,7.521,1c.554.113,1.127.231,1.687.338a92.36,92.36,0,0,0,9.935,1.412c1.649.134,3.2.2,4.609.2a26.718,26.718,0,0,0,4.792-.363,5,5,0,0,0,2.655-1.027.381.381,0,0,0,.132-.336,4.826,4.826,0,0,0-2.342-3.767,6.92,6.92,0,0,0-3.288-.627,22.457,22.457,0,0,0-3.782.371,19.8,19.8,0,0,0-3.584.989c-.382.144-.77.315-1.181.5a15.042,15.042,0,0,1-3.115,1.092,8.279,8.279,0,0,1-1.638.163,14.9,14.9,0,0,1-6.56-2.019c-.473-.236-.92-.458-1.34-.647a14.989,14.989,0,0,0-6.184-1.292m0-2a16.93,16.93,0,0,1,7,1.468c2.406,1.08,5.228,2.993,8.322,2.367a25.665,25.665,0,0,0,3.986-1.5,21.871,21.871,0,0,1,3.948-1.088c2.58-.449,6.186-.78,8.406.49a6.838,6.838,0,0,1,3.347,5.416c.194,4.462-10.342,3.93-14.348,3.6a94.379,94.379,0,0,1-10.15-1.441c-3.186-.612-6.323-1.438-9.672-1.281a72.311,72.311,0,0,0-9.05,1.447c-1.085.189-2.164.337-3.244.435-1.036,3.48-9.107,3-12.324,2.7a71.451,71.451,0,0,1-8.8-1.441c-2.761-.612-5.475-1.437-8.384-1.281a54.916,54.916,0,0,0-7.844,1.448,24.409,24.409,0,0,1-7.791.424c-2.711-.323-5.3-1.083-8-1.463a22.863,22.863,0,0,0-8.633.708c-1.768.42-4.173,1.151-5.653-.2a1.761,1.761,0,0,1-.677-1.605.911.911,0,0,1,.274-.827c.074-.081.154-.158.23-.238a4.422,4.422,0,0,1,.735-.714,18.079,18.079,0,0,1,12.626-4.3,22,22,0,0,1,7.649,1.857c.977.4,2.874,1.581,3.957,1.225a29.933,29.933,0,0,0,3.867-2.088c4.17-2.109,8.811-3.088,13.225-1.406a25.1,25.1,0,0,1,9.3-1.45,27.379,27.379,0,0,1,7.933,1.55c1.925-.228,4.063-.183,5.516.776a5.341,5.341,0,0,1,.656.51c1.3-.5,2.529-1.31,3.745-1.843A24.746,24.746,0,0,1,2559.657,776.274Z"/>
      <path id="패스_2219-2" data-name="패스 2219" d="M2552.67,781.2a7.6,7.6,0,0,0-1.166-4.928,6.482,6.482,0,0,0-2.428-1.771,34.194,34.194,0,0,0-5.6-2.169,11.1,11.1,0,0,0-6.226-.373c-3.4,1.012-5.764,5.73-4.242,9.568.588,1.482,2.018,2.6,3.412,2.283,1.165-.268,2.247-1.453,3.375-1.022,1,.38,1.326,1.769,1.977,2.714a3.055,3.055,0,0,0,3.067,1.331c.731-.15,1.671-.692,2.451-.439.946.307.9,1.481,1.487,2.168,1.331,1.554,2.61-.625,2.938-1.983A30.559,30.559,0,0,0,2552.67,781.2Z" fill="#fff"/>
      <path id="패스_2219_-_윤곽선-2" data-name="패스 2219 - 윤곽선" d="M2549.778,786.084l.021-.087a28.413,28.413,0,0,0,.874-4.9,5.686,5.686,0,0,0-.759-3.6,4.683,4.683,0,0,0-1.72-1.189,32.3,32.3,0,0,0-5.273-2.043,12.637,12.637,0,0,0-3.473-.6,5.634,5.634,0,0,0-1.627.221,4.716,4.716,0,0,0-2.672,2.543,5.465,5.465,0,0,0-.282,4.371c.264.666.8,1.076,1.066,1.076a.168.168,0,0,0,.038,0,4.4,4.4,0,0,0,.769-.359,5.309,5.309,0,0,1,2.545-.807,3.413,3.413,0,0,1,1.222.225,4.9,4.9,0,0,1,2.5,2.694,7.19,7.19,0,0,0,.416.754,1.141,1.141,0,0,0,.885.52.658.658,0,0,0,.133-.013c.1-.02.3-.087.472-.146a5.921,5.921,0,0,1,1.935-.4,3.442,3.442,0,0,1,1.063.164,3.235,3.235,0,0,1,1.87,1.589m-.046,3.018a1.28,1.28,0,0,1-.954-.537c-.588-.687-.541-1.861-1.487-2.168-.78-.253-1.72.289-2.451.439a3.054,3.054,0,0,1-3.067-1.331c-.651-.945-.981-2.334-1.977-2.714-1.128-.431-2.21.754-3.375,1.022-1.392.321-2.824-.8-3.412-2.283-1.522-3.838.845-8.556,4.242-9.568a11.106,11.106,0,0,1,6.226.373,34.194,34.194,0,0,1,5.6,2.169,6.482,6.482,0,0,1,2.428,1.771,7.6,7.6,0,0,1,1.166,4.928,30.559,30.559,0,0,1-.955,5.379C2551.467,787.608,2550.677,789.1,2549.731,789.1Z"/>
      <path id="패스_2220-2" data-name="패스 2220" d="M2597.808,777.809a6.46,6.46,0,0,0-4.483-6.536,46.4,46.4,0,0,0-8.153-2.052c-2.531-.517-4.971-.482-7.23,1.575a2.553,2.553,0,0,0-.6.89,5.948,5.948,0,0,0-.69,7.149c2.107,3.347,4.584.02,6.955.251,1.182.115,1.139,1.344,1.891,2.463a3.347,3.347,0,0,0,2.951,1.514,4.2,4.2,0,0,0,1.544-.187c.465-.167,1.107-.906,1.566-.762.612.191,1.034.9,1.517,1.509-.082.373-.167.71-.226.962-.89,3.748,2.969,5.365,3.851,1.647a20.373,20.373,0,0,0,.558-4.686A13.205,13.205,0,0,0,2597.808,777.809Z" fill="#fff"/>
      <path id="패스_2220_-_윤곽선-2" data-name="패스 2220 - 윤곽선" d="M2582.726,770.942a4.777,4.777,0,0,0-3.434,1.33.853.853,0,0,0-.113.2,2,2,0,0,1-.46.66,3.466,3.466,0,0,0-.914,2.04,3.959,3.959,0,0,0,.539,2.593,1.7,1.7,0,0,0,.464.543.134.134,0,0,0,.094.024,5.128,5.128,0,0,0,1.419-.466,7.751,7.751,0,0,1,3.043-.8h0c.147,0,.294.007.437.021a3.565,3.565,0,0,1,2.98,2.57,4.715,4.715,0,0,0,.377.768c.279.416.541.606,1.354.63l.182,0a2.362,2.362,0,0,0,.543-.05c.05-.034.116-.082.166-.117a3.461,3.461,0,0,1,2.031-.8,2.41,2.41,0,0,1,.721.109,4.621,4.621,0,0,1,2.25,1.864c.083.112.163.217.238.312a2,2,0,0,1,.386,1.672c-.06.27-.121.524-.17.727l-.062.26,0,.007a2.4,2.4,0,0,0-.066.823q.013-.048.026-.1a18.327,18.327,0,0,0,.5-4.218,2,2,0,0,1,.088-.592,11.137,11.137,0,0,0,.462-3.147,4.475,4.475,0,0,0-3.23-4.685,35.549,35.549,0,0,0-6.4-1.669c-.46-.09-.936-.183-1.4-.279a10.289,10.289,0,0,0-2.046-.238h0m0-2a12.265,12.265,0,0,1,2.446.279,46.4,46.4,0,0,1,8.153,2.052,6.46,6.46,0,0,1,4.483,6.536,13.205,13.205,0,0,1-.55,3.737,20.373,20.373,0,0,1-.558,4.686c-.882,3.718-4.741,2.1-3.851-1.647.059-.252.144-.589.226-.962-.483-.609-.905-1.318-1.517-1.509-.458-.145-1.1.6-1.566.762a4.2,4.2,0,0,1-1.544.187,3.347,3.347,0,0,1-2.951-1.514c-.752-1.119-.709-2.348-1.891-2.463-1.567-.152-3.182,1.251-4.705,1.251a2.619,2.619,0,0,1-2.25-1.5,5.948,5.948,0,0,1,.69-7.149,2.553,2.553,0,0,1,.6-.89A6.774,6.774,0,0,1,2582.726,768.942Z"/>
    </g>
  </g>
</svg>
