<svg xmlns="http://www.w3.org/2000/svg" width="220.19" height="158.196" viewBox="0 0 220.19 158.196">
  <g id="그룹_5049" data-name="그룹 5049" transform="translate(-15413.001 -17524)">
    <path id="패스_2258" data-name="패스 2258" d="M2516.8,457.3c-.535,0-1.064.023-1.595.04a50.338,50.338,0,0,0-96.98-1.716,50.328,50.328,0,1,0-20.956,96.085,50.83,50.83,0,0,0,6-.368,50.338,50.338,0,0,0,62.414,23.121,50.329,50.329,0,0,0,58.561-17.055A50.33,50.33,0,0,0,2516.8,457.3Z" transform="translate(13066.063 17104.377)" fill="#e9fffe"/>
    <path id="패스_2258_-_윤곽선" data-name="패스 2258 - 윤곽선" d="M2466.469,421.623a48.366,48.366,0,0,0-46.329,34.565l-.656,2.21-2.1-.961a48.335,48.335,0,1,0-20.122,92.267,49.135,49.135,0,0,0,5.765-.354l1.351-.16.646,1.2a48.559,48.559,0,0,0,17.444,18.4,48.354,48.354,0,0,0,42.49,3.808l.719-.277.719.277a48.231,48.231,0,0,0,48.686-8.3,48.708,48.708,0,0,0,7.549-8.083l.494-.667.82-.122A48.327,48.327,0,0,0,2516.8,459.3c-.386,0-.775.013-1.187.027l-.345.012-1.6.051-.4-1.55a47.989,47.989,0,0,0-6.414-14.442,48.234,48.234,0,0,0-40.384-21.771m0-2a50.35,50.35,0,0,1,48.734,37.713c.531-.017,1.06-.04,1.595-.04a50.33,50.33,0,0,1,7.445,100.106,50.329,50.329,0,0,1-58.561,17.055,50.338,50.338,0,0,1-62.414-23.121,50.843,50.843,0,0,1-6,.368,50.329,50.329,0,1,1,20.956-96.085A50.343,50.343,0,0,1,2466.469,419.623Z" transform="translate(13066.063 17104.377)"/>
  </g>
</svg>
