<svg xmlns="http://www.w3.org/2000/svg" width="32" height="32" viewBox="0 0 32 32">
  <g id="그룹_12387" data-name="그룹 12387" transform="translate(-1833 -2242)">
    <g id="그룹_12380" data-name="그룹 12380" transform="translate(-87.574 -342.576)">
      <path id="패스_1656" data-name="패스 1656" d="M1936.829,2681.861s-2.505-1.714-7.646-1.714-7.646,1.714-7.646,1.714v-13.753s2.505-1.714,7.646-1.714,7.646,1.714,7.646,1.714Z" transform="translate(0 -65.531)" fill="none"/>
      <path id="패스_1657" data-name="패스 1657" d="M1944.261,2676.089s-2.166-1.714-6.609-1.714a29.019,29.019,0,0,0-7.386.856V2661.48a29,29,0,0,1,7.386-.857c4.443,0,6.609,1.714,6.609,1.714Z" transform="translate(-7.432 -60.616)" fill="#fff" stroke="#333" stroke-linecap="round" stroke-linejoin="round" stroke-width="2"/>
      <path id="패스_1659" data-name="패스 1659" d="M2024.538,2681.861s2.505-1.714,7.646-1.714,7.646,1.714,7.646,1.714v-13.753s-2.505-1.714-7.646-1.714-7.646,1.714-7.646,1.714Z" transform="translate(-87.709 -65.531)" fill="none"/>
      <path id="패스_1660" data-name="패스 1660" d="M2024.538,2676.089s2.166-1.714,6.609-1.714a29.023,29.023,0,0,1,7.386.856V2661.48a29,29,0,0,0-7.386-.857c-4.443,0-6.609,1.714-6.609,1.714Z" transform="translate(-87.709 -60.616)" fill="#fff" stroke="#333" stroke-linecap="round" stroke-linejoin="round" stroke-width="2"/>
      <ellipse id="타원_1409" data-name="타원 1409" cx="2.561" cy="2.545" rx="2.561" ry="2.545" transform="translate(1934.383 2591.65)" fill="#fff" stroke="#333" stroke-miterlimit="10" stroke-width="2"/>
      <line id="선_223" data-name="선 223" y2="1.399" transform="translate(1936.829 2585.576)" fill="#fff" stroke="#333" stroke-linecap="round" stroke-miterlimit="10" stroke-width="2"/>
      <line id="선_224" data-name="선 224" x1="0.995" y2="0.989" transform="translate(1941.539 2588.104)" fill="#fff" stroke="#333" stroke-linecap="round" stroke-miterlimit="10" stroke-width="2"/>
      <line id="선_225" data-name="선 225" x2="0.995" y2="0.989" transform="translate(1931.124 2588.104)" fill="#fff" stroke="#333" stroke-linecap="round" stroke-miterlimit="10" stroke-width="2"/>
    </g>
    <rect id="사각형_636" data-name="사각형 636" width="32" height="32" transform="translate(1833 2242)" fill="none"/>
  </g>
</svg>
